<ttFont>
    <TTGlyph name=".ttfautohint" xMin="0" yMin="0" xMax="0" yMax="0">
      <contour>
        <pt x="0" y="0" on="1"/>
      </contour>
    </TTGlyph>
    <TTGlyph name="A" xMin="-3" yMin="0" xMax="592" yMax="625">
      <contour>
        <pt x="205" y="37" on="1"/>
        <pt x="205" y="0" on="1"/>
        <pt x="-3" y="0" on="1"/>
        <pt x="-3" y="36" on="1"/>
        <pt x="69" y="57" on="1"/>
        <pt x="256" y="612" on="1"/>
        <pt x="320" y="625" on="1"/>
        <pt x="520" y="57" on="1"/>
        <pt x="592" y="37" on="1"/>
        <pt x="592" y="0" on="1"/>
        <pt x="356" y="0" on="1"/>
        <pt x="356" y="37" on="1"/>
        <pt x="417" y="55" on="1"/>
        <pt x="383" y="152" on="1"/>
        <pt x="166" y="152" on="1"/>
        <pt x="134" y="57" on="1"/>
      </contour>
      <contour>
        <pt x="181" y="201" on="1"/>
        <pt x="367" y="201" on="1"/>
        <pt x="272" y="471" on="1"/>
      </contour>
    </TTGlyph>
    <TTGlyph name="AE" xMin="-26" yMin="0" xMax="690" yMax="612">
      <contour>
        <pt x="-26" y="36" on="1"/>
        <pt x="46" y="58" on="1"/>
        <pt x="311" y="560" on="1"/>
        <pt x="245" y="575" on="1"/>
        <pt x="245" y="612" on="1"/>
        <pt x="652" y="612" on="1"/>
        <pt x="652" y="476" on="1"/>
        <pt x="608" y="476" on="1"/>
        <pt x="586" y="555" on="1"/>
        <pt x="433" y="555" on="1"/>
        <pt x="450" y="312" on="1"/>
        <pt x="545" y="312" on="1"/>
        <pt x="564" y="378" on="1"/>
        <pt x="606" y="378" on="1"/>
        <pt x="606" y="193" on="1"/>
        <pt x="564" y="193" on="1"/>
        <pt x="543" y="262" on="1"/>
        <pt x="453" y="262" on="1"/>
        <pt x="467" y="60" on="1"/>
        <pt x="620" y="60" on="1"/>
        <pt x="646" y="152" on="1"/>
        <pt x="690" y="152" on="1"/>
        <pt x="690" y="0" on="1"/>
        <pt x="281" y="0" on="1"/>
        <pt x="281" y="37" on="1"/>
        <pt x="371" y="58" on="1"/>
        <pt x="357" y="260" on="1"/>
        <pt x="219" y="260" on="1"/>
        <pt x="115" y="58" on="1"/>
        <pt x="183" y="37" on="1"/>
        <pt x="183" y="0" on="1"/>
        <pt x="-26" y="0" on="1"/>
      </contour>
      <contour>
        <pt x="354" y="310" on="1"/>
        <pt x="341" y="498" on="1"/>
        <pt x="244" y="310" on="1"/>
      </contour>
    </TTGlyph>
    <TTGlyph name="AEacute" xMin="-26" yMin="0" xMax="690" yMax="799">
      <component glyphName=".ttfautohint" x="0" y="0" flags="0x0"/>
      <component glyphName="AE" x="0" y="0" flags="0x0"/>
      <component glyphName="acutecomb" x="546" y="0" flags="0x0"/>
    </TTGlyph>
    <TTGlyph name="Aacute" xMin="-3" yMin="0" xMax="592" yMax="799">
      <contour>
        <pt x="193" y="669" on="1"/>
        <pt x="348" y="799" on="1"/>
        <pt x="431" y="769" on="1"/>
        <pt x="431" y="750" on="1"/>
        <pt x="213" y="645" on="1"/>
      </contour>
      <contour>
        <pt x="205" y="37" on="1"/>
        <pt x="205" y="0" on="1"/>
        <pt x="-3" y="0" on="1"/>
        <pt x="-3" y="36" on="1"/>
        <pt x="69" y="57" on="1"/>
        <pt x="256" y="612" on="1"/>
        <pt x="320" y="625" on="1"/>
        <pt x="520" y="57" on="1"/>
        <pt x="592" y="37" on="1"/>
        <pt x="592" y="0" on="1"/>
        <pt x="356" y="0" on="1"/>
        <pt x="356" y="37" on="1"/>
        <pt x="417" y="55" on="1"/>
        <pt x="383" y="152" on="1"/>
        <pt x="166" y="152" on="1"/>
        <pt x="134" y="57" on="1"/>
      </contour>
      <contour>
        <pt x="181" y="201" on="1"/>
        <pt x="367" y="201" on="1"/>
        <pt x="272" y="471" on="1"/>
      </contour>
    </TTGlyph>
    <TTGlyph name="Abreve" xMin="-3" yMin="0" xMax="592" yMax="783">
      <contour>
        <pt x="173" y="661" on="0"/>
        <pt x="173" y="781" on="1"/>
        <pt x="214" y="783" on="1"/>
        <pt x="214" y="721" on="0"/>
        <pt x="289" y="721" on="1"/>
        <pt x="369" y="721" on="0"/>
        <pt x="369" y="783" on="1"/>
        <pt x="409" y="781" on="1"/>
        <pt x="409" y="727" on="0"/>
        <pt x="358" y="661" on="0"/>
        <pt x="292" y="661" on="1"/>
      </contour>
      <contour>
        <pt x="205" y="37" on="1"/>
        <pt x="205" y="0" on="1"/>
        <pt x="-3" y="0" on="1"/>
        <pt x="-3" y="36" on="1"/>
        <pt x="69" y="57" on="1"/>
        <pt x="256" y="612" on="1"/>
        <pt x="320" y="625" on="1"/>
        <pt x="520" y="57" on="1"/>
        <pt x="592" y="37" on="1"/>
        <pt x="592" y="0" on="1"/>
        <pt x="356" y="0" on="1"/>
        <pt x="356" y="37" on="1"/>
        <pt x="417" y="55" on="1"/>
        <pt x="383" y="152" on="1"/>
        <pt x="166" y="152" on="1"/>
        <pt x="134" y="57" on="1"/>
      </contour>
      <contour>
        <pt x="181" y="201" on="1"/>
        <pt x="367" y="201" on="1"/>
        <pt x="272" y="471" on="1"/>
      </contour>
    </TTGlyph>
    <TTGlyph name="Acircumflex" xMin="-3" yMin="0" xMax="592" yMax="800">
      <contour>
        <pt x="284" y="728" on="1"/>
        <pt x="169" y="648" on="1"/>
        <pt x="149" y="668" on="1"/>
        <pt x="252" y="800" on="1"/>
        <pt x="320" y="800" on="1"/>
        <pt x="424" y="668" on="1"/>
        <pt x="404" y="648" on="1"/>
      </contour>
      <contour>
        <pt x="205" y="37" on="1"/>
        <pt x="205" y="0" on="1"/>
        <pt x="-3" y="0" on="1"/>
        <pt x="-3" y="36" on="1"/>
        <pt x="69" y="57" on="1"/>
        <pt x="256" y="612" on="1"/>
        <pt x="320" y="625" on="1"/>
        <pt x="520" y="57" on="1"/>
        <pt x="592" y="37" on="1"/>
        <pt x="592" y="0" on="1"/>
        <pt x="356" y="0" on="1"/>
        <pt x="356" y="37" on="1"/>
        <pt x="417" y="55" on="1"/>
        <pt x="383" y="152" on="1"/>
        <pt x="166" y="152" on="1"/>
        <pt x="134" y="57" on="1"/>
      </contour>
      <contour>
        <pt x="181" y="201" on="1"/>
        <pt x="367" y="201" on="1"/>
        <pt x="272" y="471" on="1"/>
      </contour>
    </TTGlyph>
    <TTGlyph name="Adieresis" xMin="-3" yMin="0" xMax="592" yMax="784">
      <contour>
        <pt x="248" y="696" on="0"/>
        <pt x="211" y="661" on="0"/>
        <pt x="186" y="661" on="1"/>
        <pt x="161" y="661" on="0"/>
        <pt x="122" y="696" on="0"/>
        <pt x="122" y="721" on="1"/>
        <pt x="122" y="747" on="0"/>
        <pt x="161" y="784" on="0"/>
        <pt x="186" y="784" on="1"/>
        <pt x="211" y="784" on="0"/>
        <pt x="248" y="747" on="0"/>
        <pt x="248" y="721" on="1"/>
      </contour>
      <contour>
        <pt x="454" y="696" on="0"/>
        <pt x="417" y="661" on="0"/>
        <pt x="392" y="661" on="1"/>
        <pt x="366" y="661" on="0"/>
        <pt x="328" y="696" on="0"/>
        <pt x="328" y="721" on="1"/>
        <pt x="328" y="747" on="0"/>
        <pt x="366" y="784" on="0"/>
        <pt x="392" y="784" on="1"/>
        <pt x="416" y="784" on="0"/>
        <pt x="454" y="747" on="0"/>
        <pt x="454" y="721" on="1"/>
      </contour>
      <contour>
        <pt x="205" y="37" on="1"/>
        <pt x="205" y="0" on="1"/>
        <pt x="-3" y="0" on="1"/>
        <pt x="-3" y="36" on="1"/>
        <pt x="69" y="57" on="1"/>
        <pt x="256" y="612" on="1"/>
        <pt x="320" y="625" on="1"/>
        <pt x="520" y="57" on="1"/>
        <pt x="592" y="37" on="1"/>
        <pt x="592" y="0" on="1"/>
        <pt x="356" y="0" on="1"/>
        <pt x="356" y="37" on="1"/>
        <pt x="417" y="55" on="1"/>
        <pt x="383" y="152" on="1"/>
        <pt x="166" y="152" on="1"/>
        <pt x="134" y="57" on="1"/>
      </contour>
      <contour>
        <pt x="181" y="201" on="1"/>
        <pt x="367" y="201" on="1"/>
        <pt x="272" y="471" on="1"/>
      </contour>
    </TTGlyph>
    <TTGlyph name="Agrave" xMin="-3" yMin="0" xMax="592" yMax="798">
      <contour>
        <pt x="144" y="749" on="1"/>
        <pt x="146" y="768" on="1"/>
        <pt x="229" y="798" on="1"/>
        <pt x="382" y="668" on="1"/>
        <pt x="365" y="644" on="1"/>
      </contour>
      <contour>
        <pt x="205" y="37" on="1"/>
        <pt x="205" y="0" on="1"/>
        <pt x="-3" y="0" on="1"/>
        <pt x="-3" y="36" on="1"/>
        <pt x="69" y="57" on="1"/>
        <pt x="256" y="612" on="1"/>
        <pt x="320" y="625" on="1"/>
        <pt x="520" y="57" on="1"/>
        <pt x="592" y="37" on="1"/>
        <pt x="592" y="0" on="1"/>
        <pt x="356" y="0" on="1"/>
        <pt x="356" y="37" on="1"/>
        <pt x="417" y="55" on="1"/>
        <pt x="383" y="152" on="1"/>
        <pt x="166" y="152" on="1"/>
        <pt x="134" y="57" on="1"/>
      </contour>
      <contour>
        <pt x="181" y="201" on="1"/>
        <pt x="367" y="201" on="1"/>
        <pt x="272" y="471" on="1"/>
      </contour>
    </TTGlyph>
    <TTGlyph name="Amacron" xMin="-3" yMin="0" xMax="592" yMax="752">
      <contour>
        <pt x="402" y="752" on="1"/>
        <pt x="402" y="691" on="1"/>
        <pt x="177" y="691" on="1"/>
        <pt x="177" y="752" on="1"/>
      </contour>
      <contour>
        <pt x="205" y="37" on="1"/>
        <pt x="205" y="0" on="1"/>
        <pt x="-3" y="0" on="1"/>
        <pt x="-3" y="36" on="1"/>
        <pt x="69" y="57" on="1"/>
        <pt x="256" y="612" on="1"/>
        <pt x="320" y="625" on="1"/>
        <pt x="520" y="57" on="1"/>
        <pt x="592" y="37" on="1"/>
        <pt x="592" y="0" on="1"/>
        <pt x="356" y="0" on="1"/>
        <pt x="356" y="37" on="1"/>
        <pt x="417" y="55" on="1"/>
        <pt x="383" y="152" on="1"/>
        <pt x="166" y="152" on="1"/>
        <pt x="134" y="57" on="1"/>
      </contour>
      <contour>
        <pt x="181" y="201" on="1"/>
        <pt x="367" y="201" on="1"/>
        <pt x="272" y="471" on="1"/>
      </contour>
    </TTGlyph>
    <TTGlyph name="Aogonek" xMin="-3" yMin="-235" xMax="597" yMax="625">
      <contour>
        <pt x="-3" y="36" on="1"/>
        <pt x="69" y="58" on="1"/>
        <pt x="256" y="612" on="1"/>
        <pt x="322" y="625" on="1"/>
        <pt x="525" y="57" on="1"/>
        <pt x="597" y="37" on="1"/>
        <pt x="597" y="0" on="1"/>
        <pt x="474" y="0" on="1"/>
        <pt x="443" y="0" on="0"/>
        <pt x="392" y="-38" on="0"/>
        <pt x="363" y="-95" on="0"/>
        <pt x="363" y="-122" on="1"/>
        <pt x="363" y="-153" on="0"/>
        <pt x="391" y="-186" on="0"/>
        <pt x="414" y="-186" on="1"/>
        <pt x="443" y="-186" on="0"/>
        <pt x="468" y="-164" on="1"/>
        <pt x="486" y="-181" on="1"/>
        <pt x="486" y="-183" on="0"/>
        <pt x="461" y="-211" on="0"/>
        <pt x="417" y="-235" on="0"/>
        <pt x="387" y="-235" on="1"/>
        <pt x="339" y="-235" on="0"/>
        <pt x="292" y="-185" on="0"/>
        <pt x="292" y="-150" on="1"/>
        <pt x="292" y="-108" on="0"/>
        <pt x="335" y="-44" on="0"/>
        <pt x="372" y="-6" on="1"/>
        <pt x="394" y="16" on="0"/>
        <pt x="414" y="42" on="0"/>
        <pt x="414" y="54" on="1"/>
        <pt x="414" y="62" on="0"/>
        <pt x="410" y="76" on="1"/>
        <pt x="383" y="152" on="1"/>
        <pt x="169" y="152" on="1"/>
        <pt x="138" y="58" on="1"/>
        <pt x="208" y="37" on="1"/>
        <pt x="208" y="0" on="1"/>
        <pt x="-3" y="0" on="1"/>
      </contour>
      <contour>
        <pt x="184" y="201" on="1"/>
        <pt x="367" y="201" on="1"/>
        <pt x="273" y="468" on="1"/>
      </contour>
    </TTGlyph>
    <TTGlyph name="Aring" xMin="-3" yMin="0" xMax="592" yMax="821">
      <contour>
        <pt x="238" y="631" on="0"/>
        <pt x="183" y="684" on="0"/>
        <pt x="183" y="726" on="1"/>
        <pt x="183" y="767" on="0"/>
        <pt x="238" y="821" on="0"/>
        <pt x="287" y="821" on="1"/>
        <pt x="337" y="821" on="0"/>
        <pt x="392" y="767" on="0"/>
        <pt x="392" y="726" on="1"/>
        <pt x="392" y="684" on="0"/>
        <pt x="338" y="631" on="0"/>
        <pt x="287" y="631" on="1"/>
      </contour>
      <contour>
        <pt x="316" y="670" on="0"/>
        <pt x="335" y="698" on="0"/>
        <pt x="335" y="726" on="1"/>
        <pt x="335" y="753" on="0"/>
        <pt x="316" y="783" on="0"/>
        <pt x="287" y="783" on="1"/>
        <pt x="259" y="783" on="0"/>
        <pt x="240" y="753" on="0"/>
        <pt x="240" y="726" on="1"/>
        <pt x="240" y="698" on="0"/>
        <pt x="259" y="670" on="0"/>
        <pt x="287" y="670" on="1"/>
      </contour>
      <contour>
        <pt x="-3" y="36" on="1"/>
        <pt x="69" y="57" on="1"/>
        <pt x="256" y="612" on="1"/>
        <pt x="320" y="625" on="1"/>
        <pt x="520" y="57" on="1"/>
        <pt x="592" y="37" on="1"/>
        <pt x="592" y="0" on="1"/>
        <pt x="356" y="0" on="1"/>
        <pt x="356" y="37" on="1"/>
        <pt x="417" y="55" on="1"/>
        <pt x="383" y="152" on="1"/>
        <pt x="166" y="152" on="1"/>
        <pt x="134" y="57" on="1"/>
        <pt x="205" y="37" on="1"/>
        <pt x="205" y="0" on="1"/>
        <pt x="-3" y="0" on="1"/>
      </contour>
      <contour>
        <pt x="367" y="201" on="1"/>
        <pt x="272" y="471" on="1"/>
        <pt x="181" y="201" on="1"/>
      </contour>
    </TTGlyph>
    <TTGlyph name="Aringacute" xMin="-3" yMin="0" xMax="592" yMax="980">
      <component glyphName=".ttfautohint" x="0" y="0" flags="0x0"/>
      <component glyphName="A" x="0" y="0" flags="0x0"/>
      <component glyphName="uni030A" x="424" y="0" flags="0x0"/>
      <component glyphName="acutecomb" x="483" y="181" flags="0x4"/>
    </TTGlyph>
    <TTGlyph name="Atilde" xMin="-3" yMin="0" xMax="592" yMax="782">
      <contour>
        <pt x="427" y="717" on="0"/>
        <pt x="391" y="667" on="0"/>
        <pt x="369" y="667" on="1"/>
        <pt x="347" y="667" on="0"/>
        <pt x="289" y="687" on="1"/>
        <pt x="234" y="706" on="0"/>
        <pt x="216" y="706" on="1"/>
        <pt x="206" y="706" on="0"/>
        <pt x="187" y="690" on="0"/>
        <pt x="175" y="674" on="0"/>
        <pt x="173" y="671" on="1"/>
        <pt x="138" y="685" on="1"/>
        <pt x="174" y="782" on="0"/>
        <pt x="216" y="782" on="1"/>
        <pt x="236" y="782" on="0"/>
        <pt x="294" y="762" on="1"/>
        <pt x="347" y="743" on="0"/>
        <pt x="368" y="743" on="1"/>
        <pt x="379" y="743" on="0"/>
        <pt x="398" y="758" on="0"/>
        <pt x="410" y="774" on="0"/>
        <pt x="411" y="777" on="1"/>
        <pt x="446" y="763" on="1"/>
      </contour>
      <contour>
        <pt x="205" y="37" on="1"/>
        <pt x="205" y="0" on="1"/>
        <pt x="-3" y="0" on="1"/>
        <pt x="-3" y="36" on="1"/>
        <pt x="69" y="57" on="1"/>
        <pt x="256" y="612" on="1"/>
        <pt x="320" y="625" on="1"/>
        <pt x="520" y="57" on="1"/>
        <pt x="592" y="37" on="1"/>
        <pt x="592" y="0" on="1"/>
        <pt x="356" y="0" on="1"/>
        <pt x="356" y="37" on="1"/>
        <pt x="417" y="55" on="1"/>
        <pt x="383" y="152" on="1"/>
        <pt x="166" y="152" on="1"/>
        <pt x="134" y="57" on="1"/>
      </contour>
      <contour>
        <pt x="181" y="201" on="1"/>
        <pt x="367" y="201" on="1"/>
        <pt x="272" y="471" on="1"/>
      </contour>
    </TTGlyph>
    <TTGlyph name="B" xMin="37" yMin="0" xMax="515" yMax="612">
      <contour>
        <pt x="439" y="308" on="0"/>
        <pt x="515" y="229" on="0"/>
        <pt x="515" y="169" on="1"/>
        <pt x="515" y="92" on="0"/>
        <pt x="395" y="0" on="0"/>
        <pt x="288" y="0" on="1"/>
        <pt x="37" y="0" on="1"/>
        <pt x="37" y="37" on="1"/>
        <pt x="126" y="58" on="1"/>
        <pt x="126" y="554" on="1"/>
        <pt x="37" y="575" on="1"/>
        <pt x="37" y="612" on="1"/>
        <pt x="287" y="612" on="1"/>
        <pt x="395" y="612" on="0"/>
        <pt x="496" y="533" on="0"/>
        <pt x="496" y="465" on="1"/>
        <pt x="496" y="407" on="0"/>
        <pt x="425" y="335" on="0"/>
        <pt x="360" y="323" on="1"/>
      </contour>
      <contour>
        <pt x="325" y="341" on="0"/>
        <pt x="395" y="397" on="0"/>
        <pt x="395" y="458" on="1"/>
        <pt x="395" y="510" on="0"/>
        <pt x="333" y="563" on="0"/>
        <pt x="283" y="563" on="1"/>
        <pt x="262" y="563" on="0"/>
        <pt x="225" y="555" on="1"/>
        <pt x="225" y="341" on="1"/>
        <pt x="266" y="341" on="1"/>
      </contour>
      <contour>
        <pt x="249" y="48" on="0"/>
        <pt x="281" y="48" on="1"/>
        <pt x="339" y="48" on="0"/>
        <pt x="411" y="109" on="0"/>
        <pt x="411" y="174" on="1"/>
        <pt x="411" y="235" on="0"/>
        <pt x="332" y="296" on="0"/>
        <pt x="261" y="296" on="1"/>
        <pt x="225" y="296" on="1"/>
        <pt x="225" y="55" on="1"/>
      </contour>
    </TTGlyph>
    <TTGlyph name="C" xMin="38" yMin="-10" xMax="507" yMax="628">
      <contour>
        <pt x="463" y="6" on="0"/>
        <pt x="380" y="-10" on="0"/>
        <pt x="326" y="-10" on="1"/>
        <pt x="180" y="-10" on="0"/>
        <pt x="38" y="168" on="0"/>
        <pt x="38" y="310" on="1"/>
        <pt x="38" y="452" on="0"/>
        <pt x="178" y="628" on="0"/>
        <pt x="326" y="628" on="1"/>
        <pt x="382" y="628" on="0"/>
        <pt x="459" y="613" on="0"/>
        <pt x="507" y="598" on="1"/>
        <pt x="497" y="463" on="1"/>
        <pt x="457" y="463" on="1"/>
        <pt x="432" y="560" on="1"/>
        <pt x="386" y="572" on="0"/>
        <pt x="343" y="572" on="1"/>
        <pt x="232" y="572" on="0"/>
        <pt x="144" y="427" on="0"/>
        <pt x="144" y="310" on="1"/>
        <pt x="144" y="199" on="0"/>
        <pt x="235" y="46" on="0"/>
        <pt x="339" y="46" on="1"/>
        <pt x="386" y="46" on="0"/>
        <pt x="432" y="61" on="1"/>
        <pt x="457" y="145" on="1"/>
        <pt x="499" y="145" on="1"/>
        <pt x="507" y="22" on="1"/>
      </contour>
    </TTGlyph>
    <TTGlyph name="Cacute" xMin="38" yMin="-10" xMax="507" yMax="799">
      <contour>
        <pt x="211" y="669" on="1"/>
        <pt x="365" y="799" on="1"/>
        <pt x="448" y="769" on="1"/>
        <pt x="448" y="750" on="1"/>
        <pt x="230" y="645" on="1"/>
      </contour>
      <contour>
        <pt x="463" y="6" on="0"/>
        <pt x="380" y="-10" on="0"/>
        <pt x="326" y="-10" on="1"/>
        <pt x="180" y="-10" on="0"/>
        <pt x="38" y="168" on="0"/>
        <pt x="38" y="310" on="1"/>
        <pt x="38" y="452" on="0"/>
        <pt x="178" y="628" on="0"/>
        <pt x="326" y="628" on="1"/>
        <pt x="382" y="628" on="0"/>
        <pt x="459" y="613" on="0"/>
        <pt x="507" y="598" on="1"/>
        <pt x="497" y="463" on="1"/>
        <pt x="457" y="463" on="1"/>
        <pt x="432" y="560" on="1"/>
        <pt x="386" y="572" on="0"/>
        <pt x="343" y="572" on="1"/>
        <pt x="232" y="572" on="0"/>
        <pt x="144" y="427" on="0"/>
        <pt x="144" y="310" on="1"/>
        <pt x="144" y="199" on="0"/>
        <pt x="235" y="46" on="0"/>
        <pt x="339" y="46" on="1"/>
        <pt x="386" y="46" on="0"/>
        <pt x="432" y="61" on="1"/>
        <pt x="457" y="145" on="1"/>
        <pt x="499" y="145" on="1"/>
        <pt x="507" y="22" on="1"/>
      </contour>
    </TTGlyph>
    <TTGlyph name="Cacute.loclPLK" xMin="38" yMin="-10" xMax="507" yMax="804">
      <component glyphName=".ttfautohint" x="38" y="0" flags="0x0"/>
      <component glyphName="C" x="0" y="0" flags="0x0"/>
      <component glyphName="acute.loclPLK.case" x="221" y="0" flags="0x0"/>
    </TTGlyph>
    <TTGlyph name="Ccaron" xMin="38" yMin="-10" xMax="507" yMax="800">
      <contour>
        <pt x="176" y="780" on="1"/>
        <pt x="196" y="800" on="1"/>
        <pt x="315" y="720" on="1"/>
        <pt x="432" y="800" on="1"/>
        <pt x="451" y="780" on="1"/>
        <pt x="349" y="648" on="1"/>
        <pt x="281" y="648" on="1"/>
      </contour>
      <contour>
        <pt x="180" y="-10" on="0"/>
        <pt x="38" y="168" on="0"/>
        <pt x="38" y="310" on="1"/>
        <pt x="38" y="452" on="0"/>
        <pt x="178" y="628" on="0"/>
        <pt x="326" y="628" on="1"/>
        <pt x="382" y="628" on="0"/>
        <pt x="459" y="613" on="0"/>
        <pt x="507" y="598" on="1"/>
        <pt x="497" y="463" on="1"/>
        <pt x="457" y="463" on="1"/>
        <pt x="432" y="560" on="1"/>
        <pt x="386" y="572" on="0"/>
        <pt x="343" y="572" on="1"/>
        <pt x="232" y="572" on="0"/>
        <pt x="144" y="427" on="0"/>
        <pt x="144" y="310" on="1"/>
        <pt x="144" y="199" on="0"/>
        <pt x="235" y="46" on="0"/>
        <pt x="339" y="46" on="1"/>
        <pt x="386" y="46" on="0"/>
        <pt x="432" y="61" on="1"/>
        <pt x="457" y="145" on="1"/>
        <pt x="499" y="145" on="1"/>
        <pt x="507" y="22" on="1"/>
        <pt x="463" y="6" on="0"/>
        <pt x="380" y="-10" on="0"/>
        <pt x="326" y="-10" on="1"/>
      </contour>
    </TTGlyph>
    <TTGlyph name="Ccedilla" xMin="38" yMin="-219" xMax="507" yMax="628">
      <contour>
        <pt x="323" y="-10" on="1"/>
        <pt x="312" y="-46" on="1"/>
        <pt x="363" y="-46" on="0"/>
        <pt x="417" y="-86" on="0"/>
        <pt x="417" y="-117" on="1"/>
        <pt x="417" y="-144" on="0"/>
        <pt x="379" y="-191" on="0"/>
        <pt x="317" y="-219" on="0"/>
        <pt x="281" y="-219" on="1"/>
        <pt x="251" y="-219" on="0"/>
        <pt x="229" y="-210" on="1"/>
        <pt x="237" y="-181" on="1"/>
        <pt x="254" y="-187" on="0"/>
        <pt x="270" y="-187" on="1"/>
        <pt x="302" y="-187" on="0"/>
        <pt x="342" y="-151" on="0"/>
        <pt x="342" y="-126" on="1"/>
        <pt x="342" y="-106" on="0"/>
        <pt x="308" y="-81" on="0"/>
        <pt x="272" y="-81" on="1"/>
        <pt x="268" y="-69" on="1"/>
        <pt x="289" y="-8" on="1"/>
        <pt x="161" y="3" on="0"/>
        <pt x="38" y="177" on="0"/>
        <pt x="38" y="310" on="1"/>
        <pt x="38" y="452" on="0"/>
        <pt x="178" y="628" on="0"/>
        <pt x="326" y="628" on="1"/>
        <pt x="382" y="628" on="0"/>
        <pt x="459" y="613" on="0"/>
        <pt x="507" y="598" on="1"/>
        <pt x="497" y="463" on="1"/>
        <pt x="457" y="463" on="1"/>
        <pt x="432" y="560" on="1"/>
        <pt x="386" y="572" on="0"/>
        <pt x="343" y="572" on="1"/>
        <pt x="232" y="572" on="0"/>
        <pt x="144" y="427" on="0"/>
        <pt x="144" y="310" on="1"/>
        <pt x="144" y="199" on="0"/>
        <pt x="235" y="46" on="0"/>
        <pt x="339" y="46" on="1"/>
        <pt x="386" y="46" on="0"/>
        <pt x="432" y="61" on="1"/>
        <pt x="457" y="145" on="1"/>
        <pt x="499" y="145" on="1"/>
        <pt x="507" y="22" on="1"/>
        <pt x="462" y="6" on="0"/>
        <pt x="379" y="-10" on="0"/>
        <pt x="324" y="-10" on="1"/>
      </contour>
    </TTGlyph>
    <TTGlyph name="Ccircumflex" xMin="38" yMin="-10" xMax="507" yMax="800">
      <component glyphName=".ttfautohint" x="38" y="0" flags="0x0"/>
      <component glyphName="C" x="0" y="0" flags="0x0"/>
      <component glyphName="uni0302" x="450" y="0" flags="0x0"/>
    </TTGlyph>
    <TTGlyph name="Cdotaccent" xMin="38" yMin="-10" xMax="507" yMax="789">
      <component glyphName=".ttfautohint" x="38" y="0" flags="0x0"/>
      <component glyphName="C" x="0" y="0" flags="0x0"/>
      <component glyphName="uni0307" x="450" y="0" flags="0x0"/>
    </TTGlyph>
    <TTGlyph name="D" xMin="37" yMin="0" xMax="606" yMax="612">
      <contour>
        <pt x="460" y="612" on="0"/>
        <pt x="606" y="457" on="0"/>
        <pt x="606" y="319" on="1"/>
        <pt x="606" y="177" on="0"/>
        <pt x="466" y="0" on="0"/>
        <pt x="320" y="0" on="1"/>
        <pt x="37" y="0" on="1"/>
        <pt x="37" y="37" on="1"/>
        <pt x="126" y="58" on="1"/>
        <pt x="126" y="554" on="1"/>
        <pt x="37" y="575" on="1"/>
        <pt x="37" y="612" on="1"/>
        <pt x="303" y="612" on="1"/>
      </contour>
      <contour>
        <pt x="255" y="560" on="0"/>
        <pt x="225" y="554" on="1"/>
        <pt x="225" y="61" on="1"/>
        <pt x="244" y="55" on="0"/>
        <pt x="304" y="46" on="0"/>
        <pt x="330" y="46" on="1"/>
        <pt x="427" y="46" on="0"/>
        <pt x="500" y="205" on="0"/>
        <pt x="500" y="319" on="1"/>
        <pt x="500" y="429" on="0"/>
        <pt x="392" y="560" on="0"/>
        <pt x="296" y="560" on="1"/>
      </contour>
    </TTGlyph>
    <TTGlyph name="Dcaron" xMin="37" yMin="0" xMax="606" yMax="800">
      <contour>
        <pt x="174" y="780" on="1"/>
        <pt x="194" y="800" on="1"/>
        <pt x="313" y="720" on="1"/>
        <pt x="429" y="800" on="1"/>
        <pt x="449" y="780" on="1"/>
        <pt x="346" y="648" on="1"/>
        <pt x="278" y="648" on="1"/>
      </contour>
      <contour>
        <pt x="37" y="37" on="1"/>
        <pt x="126" y="58" on="1"/>
        <pt x="126" y="554" on="1"/>
        <pt x="37" y="575" on="1"/>
        <pt x="37" y="612" on="1"/>
        <pt x="303" y="612" on="1"/>
        <pt x="460" y="612" on="0"/>
        <pt x="606" y="457" on="0"/>
        <pt x="606" y="319" on="1"/>
        <pt x="606" y="177" on="0"/>
        <pt x="466" y="0" on="0"/>
        <pt x="320" y="0" on="1"/>
        <pt x="37" y="0" on="1"/>
      </contour>
      <contour>
        <pt x="427" y="46" on="0"/>
        <pt x="500" y="205" on="0"/>
        <pt x="500" y="319" on="1"/>
        <pt x="500" y="429" on="0"/>
        <pt x="392" y="560" on="0"/>
        <pt x="296" y="560" on="1"/>
        <pt x="255" y="560" on="0"/>
        <pt x="225" y="554" on="1"/>
        <pt x="225" y="61" on="1"/>
        <pt x="244" y="55" on="0"/>
        <pt x="304" y="46" on="0"/>
        <pt x="330" y="46" on="1"/>
      </contour>
    </TTGlyph>
    <TTGlyph name="Dcroat" xMin="38" yMin="0" xMax="607" yMax="612">
      <component glyphName=".ttfautohint" x="38" y="0" flags="0x0"/>
      <component glyphName="Eth" x="0" y="0" flags="0x0"/>
    </TTGlyph>
    <TTGlyph name="E" xMin="38" yMin="0" xMax="504" yMax="612">
      <contour>
        <pt x="423" y="391" on="1"/>
        <pt x="423" y="207" on="1"/>
        <pt x="381" y="207" on="1"/>
        <pt x="359" y="276" on="1"/>
        <pt x="229" y="276" on="1"/>
        <pt x="229" y="60" on="1"/>
        <pt x="434" y="60" on="1"/>
        <pt x="460" y="152" on="1"/>
        <pt x="504" y="152" on="1"/>
        <pt x="504" y="0" on="1"/>
        <pt x="38" y="0" on="1"/>
        <pt x="38" y="37" on="1"/>
        <pt x="130" y="58" on="1"/>
        <pt x="130" y="554" on="1"/>
        <pt x="38" y="575" on="1"/>
        <pt x="38" y="612" on="1"/>
        <pt x="481" y="612" on="1"/>
        <pt x="481" y="476" on="1"/>
        <pt x="436" y="476" on="1"/>
        <pt x="415" y="555" on="1"/>
        <pt x="229" y="555" on="1"/>
        <pt x="229" y="325" on="1"/>
        <pt x="362" y="325" on="1"/>
        <pt x="381" y="391" on="1"/>
      </contour>
    </TTGlyph>
    <TTGlyph name="Eacute" xMin="38" yMin="0" xMax="504" yMax="799">
      <contour>
        <pt x="187" y="669" on="1"/>
        <pt x="342" y="799" on="1"/>
        <pt x="425" y="769" on="1"/>
        <pt x="425" y="750" on="1"/>
        <pt x="207" y="645" on="1"/>
      </contour>
      <contour>
        <pt x="38" y="37" on="1"/>
        <pt x="130" y="58" on="1"/>
        <pt x="130" y="554" on="1"/>
        <pt x="38" y="575" on="1"/>
        <pt x="38" y="612" on="1"/>
        <pt x="481" y="612" on="1"/>
        <pt x="481" y="476" on="1"/>
        <pt x="436" y="476" on="1"/>
        <pt x="415" y="555" on="1"/>
        <pt x="229" y="555" on="1"/>
        <pt x="229" y="325" on="1"/>
        <pt x="362" y="325" on="1"/>
        <pt x="381" y="391" on="1"/>
        <pt x="423" y="391" on="1"/>
        <pt x="423" y="207" on="1"/>
        <pt x="381" y="207" on="1"/>
        <pt x="359" y="276" on="1"/>
        <pt x="229" y="276" on="1"/>
        <pt x="229" y="60" on="1"/>
        <pt x="434" y="60" on="1"/>
        <pt x="460" y="152" on="1"/>
        <pt x="504" y="152" on="1"/>
        <pt x="504" y="0" on="1"/>
        <pt x="38" y="0" on="1"/>
      </contour>
    </TTGlyph>
    <TTGlyph name="Ebreve" xMin="38" yMin="0" xMax="504" yMax="783">
      <component glyphName=".ttfautohint" x="38" y="0" flags="0x0"/>
      <component glyphName="E" x="0" y="0" flags="0x0"/>
      <component glyphName="uni0306" x="400" y="0" flags="0x0"/>
    </TTGlyph>
    <TTGlyph name="Ecaron" xMin="38" yMin="0" xMax="504" yMax="800">
      <contour>
        <pt x="153" y="780" on="1"/>
        <pt x="173" y="800" on="1"/>
        <pt x="292" y="720" on="1"/>
        <pt x="408" y="800" on="1"/>
        <pt x="428" y="780" on="1"/>
        <pt x="325" y="648" on="1"/>
        <pt x="257" y="648" on="1"/>
      </contour>
      <contour>
        <pt x="38" y="37" on="1"/>
        <pt x="130" y="58" on="1"/>
        <pt x="130" y="554" on="1"/>
        <pt x="38" y="575" on="1"/>
        <pt x="38" y="612" on="1"/>
        <pt x="481" y="612" on="1"/>
        <pt x="481" y="476" on="1"/>
        <pt x="436" y="476" on="1"/>
        <pt x="415" y="555" on="1"/>
        <pt x="229" y="555" on="1"/>
        <pt x="229" y="325" on="1"/>
        <pt x="362" y="325" on="1"/>
        <pt x="381" y="391" on="1"/>
        <pt x="423" y="391" on="1"/>
        <pt x="423" y="207" on="1"/>
        <pt x="381" y="207" on="1"/>
        <pt x="359" y="276" on="1"/>
        <pt x="229" y="276" on="1"/>
        <pt x="229" y="60" on="1"/>
        <pt x="434" y="60" on="1"/>
        <pt x="460" y="152" on="1"/>
        <pt x="504" y="152" on="1"/>
        <pt x="504" y="0" on="1"/>
        <pt x="38" y="0" on="1"/>
      </contour>
    </TTGlyph>
    <TTGlyph name="Ecircumflex" xMin="38" yMin="0" xMax="504" yMax="800">
      <contour>
        <pt x="279" y="728" on="1"/>
        <pt x="164" y="648" on="1"/>
        <pt x="144" y="668" on="1"/>
        <pt x="247" y="800" on="1"/>
        <pt x="315" y="800" on="1"/>
        <pt x="419" y="668" on="1"/>
        <pt x="399" y="648" on="1"/>
      </contour>
      <contour>
        <pt x="423" y="391" on="1"/>
        <pt x="423" y="207" on="1"/>
        <pt x="381" y="207" on="1"/>
        <pt x="359" y="276" on="1"/>
        <pt x="229" y="276" on="1"/>
        <pt x="229" y="60" on="1"/>
        <pt x="434" y="60" on="1"/>
        <pt x="460" y="152" on="1"/>
        <pt x="504" y="152" on="1"/>
        <pt x="504" y="0" on="1"/>
        <pt x="38" y="0" on="1"/>
        <pt x="38" y="37" on="1"/>
        <pt x="130" y="58" on="1"/>
        <pt x="130" y="554" on="1"/>
        <pt x="38" y="575" on="1"/>
        <pt x="38" y="612" on="1"/>
        <pt x="481" y="612" on="1"/>
        <pt x="481" y="476" on="1"/>
        <pt x="436" y="476" on="1"/>
        <pt x="415" y="555" on="1"/>
        <pt x="229" y="555" on="1"/>
        <pt x="229" y="325" on="1"/>
        <pt x="362" y="325" on="1"/>
        <pt x="381" y="391" on="1"/>
      </contour>
    </TTGlyph>
    <TTGlyph name="Edieresis" xMin="38" yMin="0" xMax="504" yMax="784">
      <contour>
        <pt x="242" y="696" on="0"/>
        <pt x="204" y="661" on="0"/>
        <pt x="179" y="661" on="1"/>
        <pt x="154" y="661" on="0"/>
        <pt x="116" y="696" on="0"/>
        <pt x="116" y="721" on="1"/>
        <pt x="116" y="747" on="0"/>
        <pt x="154" y="784" on="0"/>
        <pt x="179" y="784" on="1"/>
        <pt x="204" y="784" on="0"/>
        <pt x="242" y="747" on="0"/>
        <pt x="242" y="721" on="1"/>
      </contour>
      <contour>
        <pt x="448" y="696" on="0"/>
        <pt x="410" y="661" on="0"/>
        <pt x="385" y="661" on="1"/>
        <pt x="359" y="661" on="0"/>
        <pt x="322" y="696" on="0"/>
        <pt x="322" y="721" on="1"/>
        <pt x="322" y="747" on="0"/>
        <pt x="359" y="784" on="0"/>
        <pt x="385" y="784" on="1"/>
        <pt x="410" y="784" on="0"/>
        <pt x="448" y="747" on="0"/>
        <pt x="448" y="721" on="1"/>
      </contour>
      <contour>
        <pt x="423" y="391" on="1"/>
        <pt x="423" y="207" on="1"/>
        <pt x="381" y="207" on="1"/>
        <pt x="359" y="276" on="1"/>
        <pt x="229" y="276" on="1"/>
        <pt x="229" y="60" on="1"/>
        <pt x="434" y="60" on="1"/>
        <pt x="460" y="152" on="1"/>
        <pt x="504" y="152" on="1"/>
        <pt x="504" y="0" on="1"/>
        <pt x="38" y="0" on="1"/>
        <pt x="38" y="37" on="1"/>
        <pt x="130" y="58" on="1"/>
        <pt x="130" y="554" on="1"/>
        <pt x="38" y="575" on="1"/>
        <pt x="38" y="612" on="1"/>
        <pt x="481" y="612" on="1"/>
        <pt x="481" y="476" on="1"/>
        <pt x="436" y="476" on="1"/>
        <pt x="415" y="555" on="1"/>
        <pt x="229" y="555" on="1"/>
        <pt x="229" y="325" on="1"/>
        <pt x="362" y="325" on="1"/>
        <pt x="381" y="391" on="1"/>
      </contour>
    </TTGlyph>
    <TTGlyph name="Edotaccent" xMin="38" yMin="0" xMax="504" yMax="789">
      <contour>
        <pt x="362" y="695" on="0"/>
        <pt x="322" y="658" on="0"/>
        <pt x="295" y="658" on="1"/>
        <pt x="267" y="658" on="0"/>
        <pt x="227" y="695" on="0"/>
        <pt x="227" y="722" on="1"/>
        <pt x="227" y="749" on="0"/>
        <pt x="268" y="789" on="0"/>
        <pt x="295" y="789" on="1"/>
        <pt x="322" y="789" on="0"/>
        <pt x="362" y="750" on="0"/>
        <pt x="362" y="722" on="1"/>
      </contour>
      <contour>
        <pt x="423" y="391" on="1"/>
        <pt x="423" y="207" on="1"/>
        <pt x="381" y="207" on="1"/>
        <pt x="359" y="276" on="1"/>
        <pt x="229" y="276" on="1"/>
        <pt x="229" y="60" on="1"/>
        <pt x="434" y="60" on="1"/>
        <pt x="460" y="152" on="1"/>
        <pt x="504" y="152" on="1"/>
        <pt x="504" y="0" on="1"/>
        <pt x="38" y="0" on="1"/>
        <pt x="38" y="37" on="1"/>
        <pt x="130" y="58" on="1"/>
        <pt x="130" y="554" on="1"/>
        <pt x="38" y="575" on="1"/>
        <pt x="38" y="612" on="1"/>
        <pt x="481" y="612" on="1"/>
        <pt x="481" y="476" on="1"/>
        <pt x="436" y="476" on="1"/>
        <pt x="415" y="555" on="1"/>
        <pt x="229" y="555" on="1"/>
        <pt x="229" y="325" on="1"/>
        <pt x="362" y="325" on="1"/>
        <pt x="381" y="391" on="1"/>
      </contour>
    </TTGlyph>
    <TTGlyph name="Egrave" xMin="38" yMin="0" xMax="504" yMax="799">
      <contour>
        <pt x="162" y="750" on="1"/>
        <pt x="163" y="769" on="1"/>
        <pt x="246" y="799" on="1"/>
        <pt x="399" y="669" on="1"/>
        <pt x="383" y="645" on="1"/>
      </contour>
      <contour>
        <pt x="38" y="37" on="1"/>
        <pt x="130" y="58" on="1"/>
        <pt x="130" y="554" on="1"/>
        <pt x="38" y="575" on="1"/>
        <pt x="38" y="612" on="1"/>
        <pt x="481" y="612" on="1"/>
        <pt x="481" y="476" on="1"/>
        <pt x="436" y="476" on="1"/>
        <pt x="415" y="555" on="1"/>
        <pt x="229" y="555" on="1"/>
        <pt x="229" y="325" on="1"/>
        <pt x="362" y="325" on="1"/>
        <pt x="381" y="391" on="1"/>
        <pt x="423" y="391" on="1"/>
        <pt x="423" y="207" on="1"/>
        <pt x="381" y="207" on="1"/>
        <pt x="359" y="276" on="1"/>
        <pt x="229" y="276" on="1"/>
        <pt x="229" y="60" on="1"/>
        <pt x="434" y="60" on="1"/>
        <pt x="460" y="152" on="1"/>
        <pt x="504" y="152" on="1"/>
        <pt x="504" y="0" on="1"/>
        <pt x="38" y="0" on="1"/>
      </contour>
    </TTGlyph>
    <TTGlyph name="Emacron" xMin="38" yMin="0" xMax="504" yMax="752">
      <contour>
        <pt x="397" y="752" on="1"/>
        <pt x="397" y="691" on="1"/>
        <pt x="172" y="691" on="1"/>
        <pt x="172" y="752" on="1"/>
      </contour>
      <contour>
        <pt x="423" y="391" on="1"/>
        <pt x="423" y="207" on="1"/>
        <pt x="381" y="207" on="1"/>
        <pt x="359" y="276" on="1"/>
        <pt x="229" y="276" on="1"/>
        <pt x="229" y="60" on="1"/>
        <pt x="434" y="60" on="1"/>
        <pt x="460" y="152" on="1"/>
        <pt x="504" y="152" on="1"/>
        <pt x="504" y="0" on="1"/>
        <pt x="38" y="0" on="1"/>
        <pt x="38" y="37" on="1"/>
        <pt x="130" y="58" on="1"/>
        <pt x="130" y="554" on="1"/>
        <pt x="38" y="575" on="1"/>
        <pt x="38" y="612" on="1"/>
        <pt x="481" y="612" on="1"/>
        <pt x="481" y="476" on="1"/>
        <pt x="436" y="476" on="1"/>
        <pt x="415" y="555" on="1"/>
        <pt x="229" y="555" on="1"/>
        <pt x="229" y="325" on="1"/>
        <pt x="362" y="325" on="1"/>
        <pt x="381" y="391" on="1"/>
      </contour>
    </TTGlyph>
    <TTGlyph name="Eng" xMin="36" yMin="-167" xMax="678" yMax="612">
      <contour>
        <pt x="448" y="-167" on="0"/>
        <pt x="399" y="-154" on="0"/>
        <pt x="375" y="-142" on="1"/>
        <pt x="380" y="-107" on="1"/>
        <pt x="426" y="-107" on="1"/>
        <pt x="462" y="-107" on="0"/>
        <pt x="496" y="-54" on="0"/>
        <pt x="496" y="-20" on="1"/>
        <pt x="496" y="22" on="1"/>
        <pt x="179" y="478" on="1"/>
        <pt x="179" y="58" on="1"/>
        <pt x="264" y="37" on="1"/>
        <pt x="264" y="0" on="1"/>
        <pt x="36" y="0" on="1"/>
        <pt x="36" y="37" on="1"/>
        <pt x="117" y="58" on="1"/>
        <pt x="117" y="555" on="1"/>
        <pt x="36" y="575" on="1"/>
        <pt x="36" y="612" on="1"/>
        <pt x="202" y="612" on="1"/>
        <pt x="534" y="140" on="1"/>
        <pt x="534" y="555" on="1"/>
        <pt x="449" y="575" on="1"/>
        <pt x="449" y="612" on="1"/>
        <pt x="678" y="612" on="1"/>
        <pt x="678" y="575" on="1"/>
        <pt x="595" y="555" on="1"/>
        <pt x="595" y="57" on="1"/>
        <pt x="595" y="-167" on="0"/>
        <pt x="464" y="-167" on="1"/>
      </contour>
    </TTGlyph>
    <TTGlyph name="Eogonek" xMin="38" yMin="-235" xMax="524" yMax="612">
      <contour>
        <pt x="376" y="-235" on="0"/>
        <pt x="329" y="-186" on="0"/>
        <pt x="329" y="-150" on="1"/>
        <pt x="329" y="-117" on="0"/>
        <pt x="375" y="-37" on="0"/>
        <pt x="421" y="0" on="1"/>
        <pt x="38" y="0" on="1"/>
        <pt x="38" y="37" on="1"/>
        <pt x="130" y="58" on="1"/>
        <pt x="130" y="554" on="1"/>
        <pt x="38" y="575" on="1"/>
        <pt x="38" y="612" on="1"/>
        <pt x="481" y="612" on="1"/>
        <pt x="481" y="476" on="1"/>
        <pt x="436" y="476" on="1"/>
        <pt x="415" y="555" on="1"/>
        <pt x="229" y="555" on="1"/>
        <pt x="229" y="325" on="1"/>
        <pt x="362" y="325" on="1"/>
        <pt x="381" y="391" on="1"/>
        <pt x="423" y="391" on="1"/>
        <pt x="423" y="207" on="1"/>
        <pt x="381" y="207" on="1"/>
        <pt x="359" y="276" on="1"/>
        <pt x="229" y="276" on="1"/>
        <pt x="229" y="60" on="1"/>
        <pt x="434" y="60" on="1"/>
        <pt x="460" y="152" on="1"/>
        <pt x="504" y="152" on="1"/>
        <pt x="504" y="0" on="1"/>
        <pt x="459" y="0" on="1"/>
        <pt x="438" y="-21" on="0"/>
        <pt x="401" y="-94" on="0"/>
        <pt x="401" y="-131" on="1"/>
        <pt x="401" y="-157" on="0"/>
        <pt x="428" y="-186" on="0"/>
        <pt x="452" y="-186" on="1"/>
        <pt x="481" y="-186" on="0"/>
        <pt x="506" y="-164" on="1"/>
        <pt x="524" y="-181" on="1"/>
        <pt x="524" y="-183" on="0"/>
        <pt x="499" y="-211" on="0"/>
        <pt x="455" y="-235" on="0"/>
        <pt x="425" y="-235" on="1"/>
      </contour>
    </TTGlyph>
    <TTGlyph name="Eth" xMin="38" yMin="0" xMax="607" yMax="612">
      <contour>
        <pt x="38" y="37" on="1"/>
        <pt x="126" y="58" on="1"/>
        <pt x="126" y="276" on="1"/>
        <pt x="41" y="276" on="1"/>
        <pt x="41" y="325" on="1"/>
        <pt x="126" y="325" on="1"/>
        <pt x="126" y="554" on="1"/>
        <pt x="38" y="575" on="1"/>
        <pt x="38" y="612" on="1"/>
        <pt x="304" y="612" on="1"/>
        <pt x="461" y="612" on="0"/>
        <pt x="607" y="457" on="0"/>
        <pt x="607" y="319" on="1"/>
        <pt x="607" y="177" on="0"/>
        <pt x="467" y="0" on="0"/>
        <pt x="321" y="0" on="1"/>
        <pt x="38" y="0" on="1"/>
      </contour>
      <contour>
        <pt x="427" y="46" on="0"/>
        <pt x="501" y="205" on="0"/>
        <pt x="501" y="319" on="1"/>
        <pt x="501" y="429" on="0"/>
        <pt x="393" y="560" on="0"/>
        <pt x="296" y="560" on="1"/>
        <pt x="257" y="560" on="0"/>
        <pt x="225" y="554" on="1"/>
        <pt x="225" y="325" on="1"/>
        <pt x="338" y="325" on="1"/>
        <pt x="338" y="276" on="1"/>
        <pt x="225" y="276" on="1"/>
        <pt x="225" y="61" on="1"/>
        <pt x="244" y="55" on="0"/>
        <pt x="304" y="46" on="0"/>
        <pt x="330" y="46" on="1"/>
      </contour>
    </TTGlyph>
    <TTGlyph name="Euro" xMin="28" yMin="-6" xMax="488" yMax="620">
      <contour>
        <pt x="205" y="276" on="0"/>
        <pt x="206" y="263" on="1"/>
        <pt x="404" y="263" on="1"/>
        <pt x="395" y="215" on="1"/>
        <pt x="211" y="215" on="1"/>
        <pt x="222" y="139" on="0"/>
        <pt x="299" y="51" on="0"/>
        <pt x="380" y="51" on="1"/>
        <pt x="418" y="51" on="0"/>
        <pt x="475" y="64" on="1"/>
        <pt x="484" y="19" on="1"/>
        <pt x="427" y="-6" on="0"/>
        <pt x="352" y="-6" on="1"/>
        <pt x="289" y="-6" on="0"/>
        <pt x="193" y="28" on="0"/>
        <pt x="123" y="125" on="0"/>
        <pt x="111" y="215" on="1"/>
        <pt x="28" y="215" on="1"/>
        <pt x="36" y="263" on="1"/>
        <pt x="108" y="263" on="1"/>
        <pt x="107" y="276" on="0"/>
        <pt x="107" y="309" on="1"/>
        <pt x="107" y="330" on="1"/>
        <pt x="28" y="330" on="1"/>
        <pt x="36" y="377" on="1"/>
        <pt x="110" y="377" on="1"/>
        <pt x="124" y="514" on="0"/>
        <pt x="246" y="620" on="0"/>
        <pt x="335" y="620" on="1"/>
        <pt x="409" y="620" on="0"/>
        <pt x="488" y="592" on="1"/>
        <pt x="473" y="472" on="1"/>
        <pt x="437" y="472" on="1"/>
        <pt x="415" y="554" on="1"/>
        <pt x="387" y="563" on="0"/>
        <pt x="352" y="563" on="1"/>
        <pt x="290" y="563" on="0"/>
        <pt x="217" y="485" on="0"/>
        <pt x="208" y="377" on="1"/>
        <pt x="404" y="377" on="1"/>
        <pt x="395" y="330" on="1"/>
        <pt x="205" y="330" on="1"/>
        <pt x="205" y="308" on="1"/>
      </contour>
    </TTGlyph>
    <TTGlyph name="F" xMin="37" yMin="0" xMax="481" yMax="612">
      <contour>
        <pt x="481" y="476" on="1"/>
        <pt x="436" y="476" on="1"/>
        <pt x="415" y="555" on="1"/>
        <pt x="229" y="555" on="1"/>
        <pt x="229" y="315" on="1"/>
        <pt x="362" y="315" on="1"/>
        <pt x="381" y="381" on="1"/>
        <pt x="423" y="381" on="1"/>
        <pt x="423" y="197" on="1"/>
        <pt x="381" y="197" on="1"/>
        <pt x="359" y="266" on="1"/>
        <pt x="229" y="266" on="1"/>
        <pt x="229" y="60" on="1"/>
        <pt x="340" y="39" on="1"/>
        <pt x="340" y="0" on="1"/>
        <pt x="37" y="0" on="1"/>
        <pt x="37" y="37" on="1"/>
        <pt x="129" y="58" on="1"/>
        <pt x="129" y="554" on="1"/>
        <pt x="37" y="575" on="1"/>
        <pt x="37" y="612" on="1"/>
        <pt x="481" y="612" on="1"/>
      </contour>
    </TTGlyph>
    <TTGlyph name="G" xMin="38" yMin="-10" xMax="594" yMax="628">
      <contour>
        <pt x="408" y="572" on="0"/>
        <pt x="350" y="572" on="1"/>
        <pt x="235" y="572" on="0"/>
        <pt x="144" y="416" on="0"/>
        <pt x="144" y="310" on="1"/>
        <pt x="144" y="201" on="0"/>
        <pt x="233" y="45" on="0"/>
        <pt x="342" y="45" on="1"/>
        <pt x="394" y="45" on="0"/>
        <pt x="428" y="61" on="1"/>
        <pt x="428" y="230" on="1"/>
        <pt x="340" y="251" on="1"/>
        <pt x="340" y="288" on="1"/>
        <pt x="594" y="288" on="1"/>
        <pt x="594" y="250" on="1"/>
        <pt x="527" y="231" on="1"/>
        <pt x="527" y="32" on="1"/>
        <pt x="492" y="12" on="0"/>
        <pt x="396" y="-10" on="0"/>
        <pt x="341" y="-10" on="1"/>
        <pt x="182" y="-10" on="0"/>
        <pt x="38" y="167" on="0"/>
        <pt x="38" y="310" on="1"/>
        <pt x="38" y="452" on="0"/>
        <pt x="188" y="628" on="0"/>
        <pt x="350" y="628" on="1"/>
        <pt x="395" y="628" on="0"/>
        <pt x="498" y="612" on="0"/>
        <pt x="530" y="598" on="1"/>
        <pt x="516" y="463" on="1"/>
        <pt x="473" y="463" on="1"/>
        <pt x="449" y="560" on="1"/>
      </contour>
    </TTGlyph>
    <TTGlyph name="G_tilde.loclGUA" xMin="38" yMin="-10" xMax="594" yMax="803">
      <contour>
        <pt x="463" y="737" on="0"/>
        <pt x="429" y="687" on="0"/>
        <pt x="406" y="687" on="1"/>
        <pt x="393" y="687" on="0"/>
        <pt x="348" y="699" on="0"/>
        <pt x="326" y="707" on="1"/>
        <pt x="273" y="726" on="0"/>
        <pt x="254" y="726" on="1"/>
        <pt x="244" y="726" on="0"/>
        <pt x="224" y="711" on="0"/>
        <pt x="212" y="695" on="0"/>
        <pt x="210" y="692" on="1"/>
        <pt x="175" y="706" on="1"/>
        <pt x="193" y="752" on="0"/>
        <pt x="230" y="803" on="0"/>
        <pt x="253" y="803" on="1"/>
        <pt x="274" y="803" on="0"/>
        <pt x="332" y="783" on="1"/>
        <pt x="385" y="764" on="0"/>
        <pt x="405" y="764" on="1"/>
        <pt x="416" y="764" on="0"/>
        <pt x="435" y="779" on="0"/>
        <pt x="447" y="795" on="0"/>
        <pt x="448" y="798" on="1"/>
        <pt x="483" y="784" on="1"/>
      </contour>
      <contour>
        <pt x="408" y="572" on="0"/>
        <pt x="350" y="572" on="1"/>
        <pt x="235" y="572" on="0"/>
        <pt x="144" y="416" on="0"/>
        <pt x="144" y="310" on="1"/>
        <pt x="144" y="201" on="0"/>
        <pt x="233" y="45" on="0"/>
        <pt x="342" y="45" on="1"/>
        <pt x="394" y="45" on="0"/>
        <pt x="428" y="61" on="1"/>
        <pt x="428" y="230" on="1"/>
        <pt x="340" y="251" on="1"/>
        <pt x="340" y="288" on="1"/>
        <pt x="594" y="288" on="1"/>
        <pt x="594" y="250" on="1"/>
        <pt x="527" y="231" on="1"/>
        <pt x="527" y="32" on="1"/>
        <pt x="492" y="12" on="0"/>
        <pt x="396" y="-10" on="0"/>
        <pt x="341" y="-10" on="1"/>
        <pt x="182" y="-10" on="0"/>
        <pt x="38" y="167" on="0"/>
        <pt x="38" y="310" on="1"/>
        <pt x="38" y="452" on="0"/>
        <pt x="188" y="628" on="0"/>
        <pt x="350" y="628" on="1"/>
        <pt x="395" y="628" on="0"/>
        <pt x="498" y="612" on="0"/>
        <pt x="530" y="598" on="1"/>
        <pt x="516" y="463" on="1"/>
        <pt x="473" y="463" on="1"/>
        <pt x="449" y="560" on="1"/>
      </contour>
    </TTGlyph>
    <TTGlyph name="Gbreve" xMin="38" yMin="-10" xMax="594" yMax="783">
      <contour>
        <pt x="256" y="661" on="0"/>
        <pt x="204" y="727" on="0"/>
        <pt x="204" y="781" on="1"/>
        <pt x="246" y="783" on="1"/>
        <pt x="246" y="721" on="0"/>
        <pt x="322" y="721" on="1"/>
        <pt x="401" y="721" on="0"/>
        <pt x="401" y="783" on="1"/>
        <pt x="441" y="781" on="1"/>
        <pt x="441" y="661" on="0"/>
        <pt x="322" y="661" on="1"/>
      </contour>
      <contour>
        <pt x="408" y="572" on="0"/>
        <pt x="350" y="572" on="1"/>
        <pt x="235" y="572" on="0"/>
        <pt x="144" y="416" on="0"/>
        <pt x="144" y="310" on="1"/>
        <pt x="144" y="201" on="0"/>
        <pt x="233" y="45" on="0"/>
        <pt x="342" y="45" on="1"/>
        <pt x="394" y="45" on="0"/>
        <pt x="428" y="61" on="1"/>
        <pt x="428" y="230" on="1"/>
        <pt x="340" y="251" on="1"/>
        <pt x="340" y="288" on="1"/>
        <pt x="594" y="288" on="1"/>
        <pt x="594" y="250" on="1"/>
        <pt x="527" y="231" on="1"/>
        <pt x="527" y="32" on="1"/>
        <pt x="492" y="12" on="0"/>
        <pt x="396" y="-10" on="0"/>
        <pt x="341" y="-10" on="1"/>
        <pt x="182" y="-10" on="0"/>
        <pt x="38" y="167" on="0"/>
        <pt x="38" y="310" on="1"/>
        <pt x="38" y="452" on="0"/>
        <pt x="188" y="628" on="0"/>
        <pt x="350" y="628" on="1"/>
        <pt x="395" y="628" on="0"/>
        <pt x="498" y="612" on="0"/>
        <pt x="530" y="598" on="1"/>
        <pt x="516" y="463" on="1"/>
        <pt x="473" y="463" on="1"/>
        <pt x="449" y="560" on="1"/>
      </contour>
    </TTGlyph>
    <TTGlyph name="Gcaron" xMin="38" yMin="-10" xMax="594" yMax="800">
      <component glyphName=".ttfautohint" x="38" y="0" flags="0x0"/>
      <component glyphName="G" x="0" y="0" flags="0x0"/>
      <component glyphName="uni030C" x="431" y="0" flags="0x0"/>
    </TTGlyph>
    <TTGlyph name="Gcircumflex" xMin="38" yMin="-10" xMax="594" yMax="800">
      <component glyphName=".ttfautohint" x="38" y="0" flags="0x0"/>
      <component glyphName="G" x="0" y="0" flags="0x0"/>
      <component glyphName="uni0302" x="431" y="0" flags="0x0"/>
    </TTGlyph>
    <TTGlyph name="Gcommaaccent" xMin="38" yMin="-226" xMax="594" yMax="628">
      <contour>
        <pt x="182" y="-10" on="0"/>
        <pt x="38" y="167" on="0"/>
        <pt x="38" y="310" on="1"/>
        <pt x="38" y="452" on="0"/>
        <pt x="188" y="628" on="0"/>
        <pt x="350" y="628" on="1"/>
        <pt x="395" y="628" on="0"/>
        <pt x="498" y="612" on="0"/>
        <pt x="530" y="598" on="1"/>
        <pt x="516" y="463" on="1"/>
        <pt x="473" y="463" on="1"/>
        <pt x="449" y="560" on="1"/>
        <pt x="408" y="572" on="0"/>
        <pt x="350" y="572" on="1"/>
        <pt x="235" y="572" on="0"/>
        <pt x="144" y="416" on="0"/>
        <pt x="144" y="310" on="1"/>
        <pt x="144" y="201" on="0"/>
        <pt x="233" y="45" on="0"/>
        <pt x="342" y="45" on="1"/>
        <pt x="394" y="45" on="0"/>
        <pt x="428" y="61" on="1"/>
        <pt x="428" y="230" on="1"/>
        <pt x="340" y="251" on="1"/>
        <pt x="340" y="288" on="1"/>
        <pt x="594" y="288" on="1"/>
        <pt x="594" y="250" on="1"/>
        <pt x="527" y="231" on="1"/>
        <pt x="527" y="32" on="1"/>
        <pt x="492" y="12" on="0"/>
        <pt x="396" y="-10" on="0"/>
        <pt x="341" y="-10" on="1"/>
      </contour>
      <contour>
        <pt x="287" y="-43" on="1"/>
        <pt x="363" y="-27" on="1"/>
        <pt x="380" y="-44" on="1"/>
        <pt x="311" y="-226" on="1"/>
        <pt x="274" y="-223" on="1"/>
      </contour>
    </TTGlyph>
    <TTGlyph name="Gdotaccent" xMin="38" yMin="-10" xMax="594" yMax="789">
      <component glyphName=".ttfautohint" x="38" y="0" flags="0x0"/>
      <component glyphName="G" x="0" y="0" flags="0x0"/>
      <component glyphName="uni0307" x="431" y="0" flags="0x0"/>
    </TTGlyph>
    <TTGlyph name="H" xMin="38" yMin="0" xMax="691" yMax="612">
      <contour>
        <pt x="38" y="37" on="1"/>
        <pt x="126" y="58" on="1"/>
        <pt x="126" y="555" on="1"/>
        <pt x="38" y="575" on="1"/>
        <pt x="38" y="612" on="1"/>
        <pt x="312" y="612" on="1"/>
        <pt x="312" y="575" on="1"/>
        <pt x="225" y="555" on="1"/>
        <pt x="225" y="331" on="1"/>
        <pt x="503" y="331" on="1"/>
        <pt x="503" y="555" on="1"/>
        <pt x="415" y="575" on="1"/>
        <pt x="415" y="612" on="1"/>
        <pt x="690" y="612" on="1"/>
        <pt x="690" y="575" on="1"/>
        <pt x="602" y="555" on="1"/>
        <pt x="602" y="58" on="1"/>
        <pt x="691" y="37" on="1"/>
        <pt x="691" y="0" on="1"/>
        <pt x="415" y="0" on="1"/>
        <pt x="415" y="37" on="1"/>
        <pt x="503" y="58" on="1"/>
        <pt x="503" y="279" on="1"/>
        <pt x="225" y="279" on="1"/>
        <pt x="225" y="58" on="1"/>
        <pt x="312" y="37" on="1"/>
        <pt x="312" y="0" on="1"/>
        <pt x="38" y="0" on="1"/>
      </contour>
    </TTGlyph>
    <TTGlyph name="Hbar" xMin="38" yMin="0" xMax="691" yMax="612">
      <contour>
        <pt x="691" y="37" on="1"/>
        <pt x="691" y="0" on="1"/>
        <pt x="415" y="0" on="1"/>
        <pt x="415" y="37" on="1"/>
        <pt x="503" y="58" on="1"/>
        <pt x="503" y="249" on="1"/>
        <pt x="225" y="249" on="1"/>
        <pt x="225" y="58" on="1"/>
        <pt x="312" y="37" on="1"/>
        <pt x="312" y="0" on="1"/>
        <pt x="38" y="0" on="1"/>
        <pt x="38" y="37" on="1"/>
        <pt x="126" y="58" on="1"/>
        <pt x="126" y="392" on="1"/>
        <pt x="41" y="392" on="1"/>
        <pt x="41" y="441" on="1"/>
        <pt x="126" y="441" on="1"/>
        <pt x="126" y="555" on="1"/>
        <pt x="38" y="575" on="1"/>
        <pt x="38" y="612" on="1"/>
        <pt x="312" y="612" on="1"/>
        <pt x="312" y="575" on="1"/>
        <pt x="225" y="555" on="1"/>
        <pt x="225" y="441" on="1"/>
        <pt x="503" y="441" on="1"/>
        <pt x="503" y="555" on="1"/>
        <pt x="415" y="575" on="1"/>
        <pt x="415" y="612" on="1"/>
        <pt x="690" y="612" on="1"/>
        <pt x="690" y="575" on="1"/>
        <pt x="602" y="555" on="1"/>
        <pt x="602" y="441" on="1"/>
        <pt x="687" y="441" on="1"/>
        <pt x="687" y="392" on="1"/>
        <pt x="602" y="392" on="1"/>
        <pt x="602" y="58" on="1"/>
      </contour>
      <contour>
        <pt x="503" y="301" on="1"/>
        <pt x="503" y="392" on="1"/>
        <pt x="225" y="392" on="1"/>
        <pt x="225" y="301" on="1"/>
      </contour>
    </TTGlyph>
    <TTGlyph name="Hcircumflex" xMin="38" yMin="0" xMax="691" yMax="800">
      <component glyphName=".ttfautohint" x="38" y="0" flags="0x0"/>
      <component glyphName="H" x="0" y="0" flags="0x0"/>
      <component glyphName="uni0302" x="492" y="0" flags="0x0"/>
    </TTGlyph>
    <TTGlyph name="I" xMin="37" yMin="0" xMax="313" yMax="612">
      <contour>
        <pt x="37" y="37" on="1"/>
        <pt x="126" y="58" on="1"/>
        <pt x="126" y="554" on="1"/>
        <pt x="37" y="575" on="1"/>
        <pt x="37" y="612" on="1"/>
        <pt x="313" y="612" on="1"/>
        <pt x="313" y="575" on="1"/>
        <pt x="225" y="554" on="1"/>
        <pt x="225" y="58" on="1"/>
        <pt x="313" y="37" on="1"/>
        <pt x="313" y="0" on="1"/>
        <pt x="37" y="0" on="1"/>
      </contour>
    </TTGlyph>
    <TTGlyph name="IJ" xMin="37" yMin="-149" xMax="640" yMax="612">
      <component glyphName=".ttfautohint" x="37" y="0" flags="0x0"/>
      <component glyphName="I" x="0" y="0" flags="0x0"/>
      <component glyphName="J" x="344" y="0" flags="0x0"/>
    </TTGlyph>
    <TTGlyph name="Iacute" xMin="37" yMin="0" xMax="313" yMax="799">
      <contour>
        <pt x="58" y="669" on="1"/>
        <pt x="213" y="799" on="1"/>
        <pt x="296" y="769" on="1"/>
        <pt x="296" y="750" on="1"/>
        <pt x="77" y="645" on="1"/>
      </contour>
      <contour>
        <pt x="37" y="37" on="1"/>
        <pt x="126" y="58" on="1"/>
        <pt x="126" y="554" on="1"/>
        <pt x="37" y="575" on="1"/>
        <pt x="37" y="612" on="1"/>
        <pt x="313" y="612" on="1"/>
        <pt x="313" y="575" on="1"/>
        <pt x="225" y="554" on="1"/>
        <pt x="225" y="58" on="1"/>
        <pt x="313" y="37" on="1"/>
        <pt x="313" y="0" on="1"/>
        <pt x="37" y="0" on="1"/>
      </contour>
    </TTGlyph>
    <TTGlyph name="Iacute_J.loclNLD" xMin="37" yMin="-149" xMax="674" yMax="799">
      <component glyphName=".ttfautohint" x="37" y="0" flags="0x0"/>
      <component glyphName="I" x="0" y="0" flags="0x0"/>
      <component glyphName="acutecomb" x="360" y="0" flags="0x0"/>
      <component glyphName="J" x="344" y="0" flags="0x0"/>
      <component glyphName="acutecomb" x="683" y="0" flags="0x0"/>
    </TTGlyph>
    <TTGlyph name="Ibreve" xMin="37" yMin="0" xMax="313" yMax="783">
      <component glyphName=".ttfautohint" x="37" y="0" flags="0x0"/>
      <component glyphName="I" x="0" y="0" flags="0x0"/>
      <component glyphName="uni0306" x="304" y="0" flags="0x0"/>
    </TTGlyph>
    <TTGlyph name="Icircumflex" xMin="37" yMin="0" xMax="313" yMax="800">
      <contour>
        <pt x="37" y="668" on="1"/>
        <pt x="140" y="800" on="1"/>
        <pt x="208" y="800" on="1"/>
        <pt x="312" y="668" on="1"/>
        <pt x="292" y="648" on="1"/>
        <pt x="172" y="728" on="1"/>
        <pt x="57" y="648" on="1"/>
      </contour>
      <contour>
        <pt x="37" y="37" on="1"/>
        <pt x="126" y="58" on="1"/>
        <pt x="126" y="554" on="1"/>
        <pt x="37" y="575" on="1"/>
        <pt x="37" y="612" on="1"/>
        <pt x="313" y="612" on="1"/>
        <pt x="313" y="575" on="1"/>
        <pt x="225" y="554" on="1"/>
        <pt x="225" y="58" on="1"/>
        <pt x="313" y="37" on="1"/>
        <pt x="313" y="0" on="1"/>
        <pt x="37" y="0" on="1"/>
      </contour>
    </TTGlyph>
    <TTGlyph name="Idieresis" xMin="10" yMin="0" xMax="342" yMax="784">
      <contour>
        <pt x="48" y="661" on="0"/>
        <pt x="10" y="696" on="0"/>
        <pt x="10" y="721" on="1"/>
        <pt x="10" y="747" on="0"/>
        <pt x="48" y="784" on="0"/>
        <pt x="73" y="784" on="1"/>
        <pt x="98" y="784" on="0"/>
        <pt x="136" y="747" on="0"/>
        <pt x="136" y="721" on="1"/>
        <pt x="136" y="696" on="0"/>
        <pt x="98" y="661" on="0"/>
        <pt x="73" y="661" on="1"/>
      </contour>
      <contour>
        <pt x="253" y="661" on="0"/>
        <pt x="216" y="696" on="0"/>
        <pt x="216" y="721" on="1"/>
        <pt x="216" y="747" on="0"/>
        <pt x="253" y="784" on="0"/>
        <pt x="279" y="784" on="1"/>
        <pt x="304" y="784" on="0"/>
        <pt x="342" y="747" on="0"/>
        <pt x="342" y="721" on="1"/>
        <pt x="342" y="696" on="0"/>
        <pt x="304" y="661" on="0"/>
        <pt x="279" y="661" on="1"/>
      </contour>
      <contour>
        <pt x="37" y="37" on="1"/>
        <pt x="126" y="58" on="1"/>
        <pt x="126" y="554" on="1"/>
        <pt x="37" y="575" on="1"/>
        <pt x="37" y="612" on="1"/>
        <pt x="313" y="612" on="1"/>
        <pt x="313" y="575" on="1"/>
        <pt x="225" y="554" on="1"/>
        <pt x="225" y="58" on="1"/>
        <pt x="313" y="37" on="1"/>
        <pt x="313" y="0" on="1"/>
        <pt x="37" y="0" on="1"/>
      </contour>
    </TTGlyph>
    <TTGlyph name="Idotaccent" xMin="37" yMin="0" xMax="313" yMax="789">
      <contour>
        <pt x="147" y="658" on="0"/>
        <pt x="107" y="695" on="0"/>
        <pt x="107" y="722" on="1"/>
        <pt x="107" y="749" on="0"/>
        <pt x="148" y="789" on="0"/>
        <pt x="175" y="789" on="1"/>
        <pt x="202" y="789" on="0"/>
        <pt x="242" y="749" on="0"/>
        <pt x="242" y="722" on="1"/>
        <pt x="242" y="695" on="0"/>
        <pt x="202" y="658" on="0"/>
        <pt x="175" y="658" on="1"/>
      </contour>
      <contour>
        <pt x="37" y="37" on="1"/>
        <pt x="126" y="58" on="1"/>
        <pt x="126" y="554" on="1"/>
        <pt x="37" y="575" on="1"/>
        <pt x="37" y="612" on="1"/>
        <pt x="313" y="612" on="1"/>
        <pt x="313" y="575" on="1"/>
        <pt x="225" y="554" on="1"/>
        <pt x="225" y="58" on="1"/>
        <pt x="313" y="37" on="1"/>
        <pt x="313" y="0" on="1"/>
        <pt x="37" y="0" on="1"/>
      </contour>
    </TTGlyph>
    <TTGlyph name="Igrave" xMin="37" yMin="0" xMax="313" yMax="799">
      <contour>
        <pt x="55" y="750" on="1"/>
        <pt x="56" y="769" on="1"/>
        <pt x="140" y="799" on="1"/>
        <pt x="293" y="669" on="1"/>
        <pt x="276" y="645" on="1"/>
      </contour>
      <contour>
        <pt x="37" y="37" on="1"/>
        <pt x="126" y="58" on="1"/>
        <pt x="126" y="554" on="1"/>
        <pt x="37" y="575" on="1"/>
        <pt x="37" y="612" on="1"/>
        <pt x="313" y="612" on="1"/>
        <pt x="313" y="575" on="1"/>
        <pt x="225" y="554" on="1"/>
        <pt x="225" y="58" on="1"/>
        <pt x="313" y="37" on="1"/>
        <pt x="313" y="0" on="1"/>
        <pt x="37" y="0" on="1"/>
      </contour>
    </TTGlyph>
    <TTGlyph name="Imacron" xMin="37" yMin="0" xMax="313" yMax="752">
      <contour>
        <pt x="62" y="752" on="1"/>
        <pt x="287" y="752" on="1"/>
        <pt x="287" y="691" on="1"/>
        <pt x="62" y="691" on="1"/>
      </contour>
      <contour>
        <pt x="37" y="37" on="1"/>
        <pt x="126" y="58" on="1"/>
        <pt x="126" y="554" on="1"/>
        <pt x="37" y="575" on="1"/>
        <pt x="37" y="612" on="1"/>
        <pt x="313" y="612" on="1"/>
        <pt x="313" y="575" on="1"/>
        <pt x="225" y="554" on="1"/>
        <pt x="225" y="58" on="1"/>
        <pt x="313" y="37" on="1"/>
        <pt x="313" y="0" on="1"/>
        <pt x="37" y="0" on="1"/>
      </contour>
    </TTGlyph>
    <TTGlyph name="Iogonek" xMin="37" yMin="-235" xMax="317" yMax="612">
      <contour>
        <pt x="169" y="-235" on="0"/>
        <pt x="121" y="-186" on="0"/>
        <pt x="121" y="-150" on="1"/>
        <pt x="121" y="-108" on="0"/>
        <pt x="180" y="-27" on="0"/>
        <pt x="229" y="0" on="1"/>
        <pt x="37" y="0" on="1"/>
        <pt x="37" y="37" on="1"/>
        <pt x="126" y="58" on="1"/>
        <pt x="126" y="554" on="1"/>
        <pt x="37" y="575" on="1"/>
        <pt x="37" y="612" on="1"/>
        <pt x="313" y="612" on="1"/>
        <pt x="313" y="575" on="1"/>
        <pt x="225" y="554" on="1"/>
        <pt x="225" y="58" on="1"/>
        <pt x="313" y="37" on="1"/>
        <pt x="313" y="0" on="1"/>
        <pt x="251" y="-16" on="0"/>
        <pt x="194" y="-89" on="0"/>
        <pt x="194" y="-131" on="1"/>
        <pt x="194" y="-158" on="0"/>
        <pt x="221" y="-186" on="0"/>
        <pt x="245" y="-186" on="1"/>
        <pt x="273" y="-186" on="0"/>
        <pt x="298" y="-164" on="1"/>
        <pt x="317" y="-181" on="1"/>
        <pt x="307" y="-198" on="0"/>
        <pt x="258" y="-235" on="0"/>
        <pt x="218" y="-235" on="1"/>
      </contour>
    </TTGlyph>
    <TTGlyph name="Itilde" xMin="17" yMin="0" xMax="325" yMax="803">
      <contour>
        <pt x="235" y="687" on="0"/>
        <pt x="191" y="699" on="0"/>
        <pt x="169" y="707" on="1"/>
        <pt x="116" y="726" on="0"/>
        <pt x="96" y="726" on="1"/>
        <pt x="86" y="726" on="0"/>
        <pt x="67" y="711" on="0"/>
        <pt x="54" y="695" on="0"/>
        <pt x="53" y="692" on="1"/>
        <pt x="17" y="706" on="1"/>
        <pt x="35" y="752" on="0"/>
        <pt x="72" y="803" on="0"/>
        <pt x="95" y="803" on="1"/>
        <pt x="116" y="803" on="0"/>
        <pt x="174" y="783" on="1"/>
        <pt x="229" y="764" on="0"/>
        <pt x="248" y="764" on="1"/>
        <pt x="258" y="764" on="0"/>
        <pt x="277" y="779" on="0"/>
        <pt x="289" y="795" on="0"/>
        <pt x="290" y="798" on="1"/>
        <pt x="325" y="784" on="1"/>
        <pt x="307" y="738" on="0"/>
        <pt x="271" y="687" on="0"/>
        <pt x="248" y="687" on="1"/>
      </contour>
      <contour>
        <pt x="37" y="37" on="1"/>
        <pt x="126" y="58" on="1"/>
        <pt x="126" y="554" on="1"/>
        <pt x="37" y="575" on="1"/>
        <pt x="37" y="612" on="1"/>
        <pt x="313" y="612" on="1"/>
        <pt x="313" y="575" on="1"/>
        <pt x="225" y="554" on="1"/>
        <pt x="225" y="58" on="1"/>
        <pt x="313" y="37" on="1"/>
        <pt x="313" y="0" on="1"/>
        <pt x="37" y="0" on="1"/>
      </contour>
    </TTGlyph>
    <TTGlyph name="J" xMin="-40" yMin="-149" xMax="296" yMax="612">
      <contour>
        <pt x="3" y="-149" on="0"/>
        <pt x="-40" y="-121" on="1"/>
        <pt x="-36" y="-90" on="1"/>
        <pt x="36" y="-90" on="1"/>
        <pt x="80" y="-90" on="0"/>
        <pt x="110" y="-28" on="0"/>
        <pt x="110" y="33" on="1"/>
        <pt x="110" y="554" on="1"/>
        <pt x="22" y="575" on="1"/>
        <pt x="22" y="612" on="1"/>
        <pt x="296" y="612" on="1"/>
        <pt x="296" y="575" on="1"/>
        <pt x="209" y="554" on="1"/>
        <pt x="209" y="63" on="1"/>
        <pt x="209" y="-55" on="0"/>
        <pt x="137" y="-149" on="0"/>
        <pt x="63" y="-149" on="1"/>
      </contour>
    </TTGlyph>
    <TTGlyph name="Jcircumflex" xMin="-40" yMin="-149" xMax="296" yMax="800">
      <component glyphName=".ttfautohint" x="0" y="0" flags="0x0"/>
      <component glyphName="J" x="0" y="0" flags="0x0"/>
      <component glyphName="uni0302" x="283" y="0" flags="0x0"/>
    </TTGlyph>
    <TTGlyph name="K" xMin="37" yMin="0" xMax="586" yMax="612">
      <contour>
        <pt x="430" y="0" on="1"/>
        <pt x="224" y="294" on="1"/>
        <pt x="224" y="58" on="1"/>
        <pt x="307" y="37" on="1"/>
        <pt x="307" y="0" on="1"/>
        <pt x="37" y="0" on="1"/>
        <pt x="37" y="37" on="1"/>
        <pt x="125" y="58" on="1"/>
        <pt x="125" y="554" on="1"/>
        <pt x="37" y="575" on="1"/>
        <pt x="37" y="612" on="1"/>
        <pt x="307" y="612" on="1"/>
        <pt x="307" y="575" on="1"/>
        <pt x="224" y="554" on="1"/>
        <pt x="224" y="331" on="1"/>
        <pt x="428" y="557" on="1"/>
        <pt x="366" y="575" on="1"/>
        <pt x="366" y="612" on="1"/>
        <pt x="570" y="612" on="1"/>
        <pt x="570" y="576" on="1"/>
        <pt x="500" y="555" on="1"/>
        <pt x="307" y="340" on="1"/>
        <pt x="505" y="59" on="1"/>
        <pt x="586" y="37" on="1"/>
        <pt x="586" y="0" on="1"/>
      </contour>
    </TTGlyph>
    <TTGlyph name="Kcommaaccent" xMin="37" yMin="-226" xMax="586" yMax="612">
      <contour>
        <pt x="37" y="37" on="1"/>
        <pt x="125" y="58" on="1"/>
        <pt x="125" y="554" on="1"/>
        <pt x="37" y="575" on="1"/>
        <pt x="37" y="612" on="1"/>
        <pt x="307" y="612" on="1"/>
        <pt x="307" y="575" on="1"/>
        <pt x="224" y="554" on="1"/>
        <pt x="224" y="331" on="1"/>
        <pt x="428" y="557" on="1"/>
        <pt x="366" y="575" on="1"/>
        <pt x="366" y="612" on="1"/>
        <pt x="570" y="612" on="1"/>
        <pt x="570" y="576" on="1"/>
        <pt x="500" y="555" on="1"/>
        <pt x="307" y="340" on="1"/>
        <pt x="505" y="59" on="1"/>
        <pt x="586" y="37" on="1"/>
        <pt x="586" y="0" on="1"/>
        <pt x="430" y="0" on="1"/>
        <pt x="224" y="294" on="1"/>
        <pt x="224" y="58" on="1"/>
        <pt x="307" y="37" on="1"/>
        <pt x="307" y="0" on="1"/>
        <pt x="37" y="0" on="1"/>
      </contour>
      <contour>
        <pt x="285" y="-43" on="1"/>
        <pt x="361" y="-27" on="1"/>
        <pt x="378" y="-44" on="1"/>
        <pt x="308" y="-226" on="1"/>
        <pt x="272" y="-223" on="1"/>
      </contour>
    </TTGlyph>
    <TTGlyph name="L" xMin="37" yMin="0" xMax="472" yMax="612">
      <contour>
        <pt x="37" y="0" on="1"/>
        <pt x="37" y="37" on="1"/>
        <pt x="125" y="58" on="1"/>
        <pt x="125" y="554" on="1"/>
        <pt x="37" y="575" on="1"/>
        <pt x="37" y="612" on="1"/>
        <pt x="313" y="612" on="1"/>
        <pt x="313" y="575" on="1"/>
        <pt x="224" y="554" on="1"/>
        <pt x="224" y="60" on="1"/>
        <pt x="403" y="60" on="1"/>
        <pt x="429" y="152" on="1"/>
        <pt x="472" y="152" on="1"/>
        <pt x="472" y="0" on="1"/>
      </contour>
    </TTGlyph>
    <TTGlyph name="Lacute" xMin="37" yMin="0" xMax="472" yMax="799">
      <contour>
        <pt x="89" y="669" on="1"/>
        <pt x="244" y="799" on="1"/>
        <pt x="327" y="769" on="1"/>
        <pt x="327" y="750" on="1"/>
        <pt x="108" y="645" on="1"/>
      </contour>
      <contour>
        <pt x="37" y="0" on="1"/>
        <pt x="37" y="37" on="1"/>
        <pt x="125" y="58" on="1"/>
        <pt x="125" y="554" on="1"/>
        <pt x="37" y="575" on="1"/>
        <pt x="37" y="612" on="1"/>
        <pt x="313" y="612" on="1"/>
        <pt x="313" y="575" on="1"/>
        <pt x="224" y="554" on="1"/>
        <pt x="224" y="60" on="1"/>
        <pt x="403" y="60" on="1"/>
        <pt x="429" y="152" on="1"/>
        <pt x="472" y="152" on="1"/>
        <pt x="472" y="0" on="1"/>
      </contour>
    </TTGlyph>
    <TTGlyph name="Lcaron" xMin="34" yMin="0" xMax="472" yMax="800">
      <contour>
        <pt x="34" y="780" on="1"/>
        <pt x="54" y="800" on="1"/>
        <pt x="173" y="720" on="1"/>
        <pt x="290" y="800" on="1"/>
        <pt x="309" y="780" on="1"/>
        <pt x="207" y="648" on="1"/>
        <pt x="139" y="648" on="1"/>
      </contour>
      <contour>
        <pt x="37" y="37" on="1"/>
        <pt x="125" y="58" on="1"/>
        <pt x="125" y="554" on="1"/>
        <pt x="37" y="575" on="1"/>
        <pt x="37" y="612" on="1"/>
        <pt x="313" y="612" on="1"/>
        <pt x="313" y="575" on="1"/>
        <pt x="224" y="554" on="1"/>
        <pt x="224" y="60" on="1"/>
        <pt x="403" y="60" on="1"/>
        <pt x="429" y="152" on="1"/>
        <pt x="472" y="152" on="1"/>
        <pt x="472" y="0" on="1"/>
        <pt x="37" y="0" on="1"/>
      </contour>
    </TTGlyph>
    <TTGlyph name="Lcommaaccent" xMin="37" yMin="-226" xMax="472" yMax="612">
      <contour>
        <pt x="37" y="37" on="1"/>
        <pt x="125" y="58" on="1"/>
        <pt x="125" y="554" on="1"/>
        <pt x="37" y="575" on="1"/>
        <pt x="37" y="612" on="1"/>
        <pt x="313" y="612" on="1"/>
        <pt x="313" y="575" on="1"/>
        <pt x="224" y="554" on="1"/>
        <pt x="224" y="60" on="1"/>
        <pt x="403" y="60" on="1"/>
        <pt x="429" y="152" on="1"/>
        <pt x="472" y="152" on="1"/>
        <pt x="472" y="0" on="1"/>
        <pt x="37" y="0" on="1"/>
      </contour>
      <contour>
        <pt x="236" y="-43" on="1"/>
        <pt x="312" y="-27" on="1"/>
        <pt x="329" y="-44" on="1"/>
        <pt x="260" y="-226" on="1"/>
        <pt x="223" y="-223" on="1"/>
      </contour>
    </TTGlyph>
    <TTGlyph name="Ldot" xMin="37" yMin="0" xMax="472" yMax="612">
      <component glyphName=".ttfautohint" x="37" y="0" flags="0x0"/>
      <component glyphName="L" x="0" y="0" flags="0x0"/>
      <component glyphName="periodcentered" x="288" y="176" flags="0x4"/>
    </TTGlyph>
    <TTGlyph name="Lslash" xMin="34" yMin="0" xMax="472" yMax="612">
      <contour>
        <pt x="37" y="37" on="1"/>
        <pt x="125" y="58" on="1"/>
        <pt x="125" y="249" on="1"/>
        <pt x="59" y="211" on="1"/>
        <pt x="34" y="254" on="1"/>
        <pt x="125" y="307" on="1"/>
        <pt x="125" y="554" on="1"/>
        <pt x="37" y="575" on="1"/>
        <pt x="37" y="612" on="1"/>
        <pt x="313" y="612" on="1"/>
        <pt x="313" y="575" on="1"/>
        <pt x="224" y="554" on="1"/>
        <pt x="224" y="365" on="1"/>
        <pt x="319" y="419" on="1"/>
        <pt x="345" y="375" on="1"/>
        <pt x="224" y="306" on="1"/>
        <pt x="224" y="60" on="1"/>
        <pt x="403" y="60" on="1"/>
        <pt x="429" y="152" on="1"/>
        <pt x="472" y="152" on="1"/>
        <pt x="472" y="0" on="1"/>
        <pt x="37" y="0" on="1"/>
      </contour>
    </TTGlyph>
    <TTGlyph name="M" xMin="21" yMin="-10" xMax="781" yMax="612">
      <contour>
        <pt x="21" y="0" on="1"/>
        <pt x="21" y="37" on="1"/>
        <pt x="103" y="58" on="1"/>
        <pt x="120" y="555" on="1"/>
        <pt x="39" y="575" on="1"/>
        <pt x="39" y="612" on="1"/>
        <pt x="231" y="612" on="1"/>
        <pt x="400" y="129" on="1"/>
        <pt x="561" y="612" on="1"/>
        <pt x="760" y="612" on="1"/>
        <pt x="760" y="575" on="1"/>
        <pt x="671" y="554" on="1"/>
        <pt x="691" y="58" on="1"/>
        <pt x="781" y="37" on="1"/>
        <pt x="781" y="0" on="1"/>
        <pt x="508" y="0" on="1"/>
        <pt x="508" y="37" on="1"/>
        <pt x="596" y="58" on="1"/>
        <pt x="580" y="486" on="1"/>
        <pt x="412" y="0" on="1"/>
        <pt x="355" y="-10" on="1"/>
        <pt x="177" y="487" on="1"/>
        <pt x="162" y="58" on="1"/>
        <pt x="250" y="37" on="1"/>
        <pt x="250" y="0" on="1"/>
      </contour>
    </TTGlyph>
    <TTGlyph name="N" xMin="36" yMin="-10" xMax="678" yMax="612">
      <contour>
        <pt x="678" y="612" on="1"/>
        <pt x="678" y="575" on="1"/>
        <pt x="595" y="555" on="1"/>
        <pt x="595" y="0" on="1"/>
        <pt x="518" y="-10" on="1"/>
        <pt x="179" y="478" on="1"/>
        <pt x="179" y="58" on="1"/>
        <pt x="264" y="37" on="1"/>
        <pt x="264" y="0" on="1"/>
        <pt x="36" y="0" on="1"/>
        <pt x="36" y="37" on="1"/>
        <pt x="117" y="58" on="1"/>
        <pt x="117" y="555" on="1"/>
        <pt x="36" y="575" on="1"/>
        <pt x="36" y="612" on="1"/>
        <pt x="202" y="612" on="1"/>
        <pt x="534" y="140" on="1"/>
        <pt x="534" y="555" on="1"/>
        <pt x="449" y="575" on="1"/>
        <pt x="449" y="612" on="1"/>
      </contour>
    </TTGlyph>
    <TTGlyph name="Nacute" xMin="34" yMin="-10" xMax="676" yMax="799">
      <contour>
        <pt x="256" y="669" on="1"/>
        <pt x="411" y="799" on="1"/>
        <pt x="494" y="769" on="1"/>
        <pt x="494" y="750" on="1"/>
        <pt x="276" y="645" on="1"/>
      </contour>
      <contour>
        <pt x="676" y="612" on="1"/>
        <pt x="676" y="575" on="1"/>
        <pt x="594" y="555" on="1"/>
        <pt x="594" y="0" on="1"/>
        <pt x="517" y="-10" on="1"/>
        <pt x="177" y="478" on="1"/>
        <pt x="177" y="58" on="1"/>
        <pt x="263" y="37" on="1"/>
        <pt x="263" y="0" on="1"/>
        <pt x="35" y="0" on="1"/>
        <pt x="35" y="37" on="1"/>
        <pt x="116" y="58" on="1"/>
        <pt x="116" y="555" on="1"/>
        <pt x="34" y="575" on="1"/>
        <pt x="34" y="612" on="1"/>
        <pt x="200" y="612" on="1"/>
        <pt x="533" y="140" on="1"/>
        <pt x="533" y="555" on="1"/>
        <pt x="448" y="575" on="1"/>
        <pt x="448" y="612" on="1"/>
      </contour>
    </TTGlyph>
    <TTGlyph name="Nacute.loclPLK" xMin="36" yMin="-10" xMax="678" yMax="804">
      <component glyphName=".ttfautohint" x="36" y="0" flags="0x0"/>
      <component glyphName="N" x="0" y="0" flags="0x0"/>
      <component glyphName="acute.loclPLK.case" x="249" y="0" flags="0x0"/>
    </TTGlyph>
    <TTGlyph name="Ncaron" xMin="34" yMin="-10" xMax="676" yMax="800">
      <contour>
        <pt x="220" y="780" on="1"/>
        <pt x="240" y="800" on="1"/>
        <pt x="359" y="720" on="1"/>
        <pt x="476" y="800" on="1"/>
        <pt x="495" y="780" on="1"/>
        <pt x="393" y="648" on="1"/>
        <pt x="325" y="648" on="1"/>
      </contour>
      <contour>
        <pt x="177" y="478" on="1"/>
        <pt x="177" y="58" on="1"/>
        <pt x="263" y="37" on="1"/>
        <pt x="263" y="0" on="1"/>
        <pt x="35" y="0" on="1"/>
        <pt x="35" y="37" on="1"/>
        <pt x="116" y="58" on="1"/>
        <pt x="116" y="555" on="1"/>
        <pt x="34" y="575" on="1"/>
        <pt x="34" y="612" on="1"/>
        <pt x="200" y="612" on="1"/>
        <pt x="533" y="140" on="1"/>
        <pt x="533" y="555" on="1"/>
        <pt x="448" y="575" on="1"/>
        <pt x="448" y="612" on="1"/>
        <pt x="676" y="612" on="1"/>
        <pt x="676" y="575" on="1"/>
        <pt x="594" y="555" on="1"/>
        <pt x="594" y="0" on="1"/>
        <pt x="517" y="-10" on="1"/>
      </contour>
    </TTGlyph>
    <TTGlyph name="Ncommaaccent" xMin="34" yMin="-226" xMax="676" yMax="612">
      <contour>
        <pt x="177" y="478" on="1"/>
        <pt x="177" y="58" on="1"/>
        <pt x="263" y="37" on="1"/>
        <pt x="263" y="0" on="1"/>
        <pt x="35" y="0" on="1"/>
        <pt x="35" y="37" on="1"/>
        <pt x="116" y="58" on="1"/>
        <pt x="116" y="555" on="1"/>
        <pt x="34" y="575" on="1"/>
        <pt x="34" y="612" on="1"/>
        <pt x="200" y="612" on="1"/>
        <pt x="533" y="140" on="1"/>
        <pt x="533" y="555" on="1"/>
        <pt x="448" y="575" on="1"/>
        <pt x="448" y="612" on="1"/>
        <pt x="676" y="612" on="1"/>
        <pt x="676" y="575" on="1"/>
        <pt x="594" y="555" on="1"/>
        <pt x="594" y="0" on="1"/>
        <pt x="517" y="-10" on="1"/>
      </contour>
      <contour>
        <pt x="323" y="-43" on="1"/>
        <pt x="399" y="-27" on="1"/>
        <pt x="416" y="-44" on="1"/>
        <pt x="347" y="-226" on="1"/>
        <pt x="310" y="-223" on="1"/>
      </contour>
    </TTGlyph>
    <TTGlyph name="Ntilde" xMin="34" yMin="-10" xMax="676" yMax="782">
      <contour>
        <pt x="495" y="716" on="0"/>
        <pt x="461" y="667" on="0"/>
        <pt x="438" y="667" on="1"/>
        <pt x="425" y="667" on="0"/>
        <pt x="380" y="679" on="0"/>
        <pt x="358" y="687" on="1"/>
        <pt x="305" y="706" on="0"/>
        <pt x="286" y="706" on="1"/>
        <pt x="276" y="706" on="0"/>
        <pt x="256" y="690" on="0"/>
        <pt x="244" y="674" on="0"/>
        <pt x="242" y="671" on="1"/>
        <pt x="207" y="685" on="1"/>
        <pt x="225" y="731" on="0"/>
        <pt x="262" y="782" on="0"/>
        <pt x="285" y="782" on="1"/>
        <pt x="306" y="782" on="0"/>
        <pt x="364" y="762" on="1"/>
        <pt x="417" y="743" on="0"/>
        <pt x="437" y="743" on="1"/>
        <pt x="448" y="743" on="0"/>
        <pt x="467" y="758" on="0"/>
        <pt x="479" y="774" on="0"/>
        <pt x="480" y="777" on="1"/>
        <pt x="515" y="763" on="1"/>
      </contour>
      <contour>
        <pt x="676" y="612" on="1"/>
        <pt x="676" y="575" on="1"/>
        <pt x="594" y="555" on="1"/>
        <pt x="594" y="0" on="1"/>
        <pt x="517" y="-10" on="1"/>
        <pt x="177" y="478" on="1"/>
        <pt x="177" y="58" on="1"/>
        <pt x="263" y="37" on="1"/>
        <pt x="263" y="0" on="1"/>
        <pt x="35" y="0" on="1"/>
        <pt x="35" y="37" on="1"/>
        <pt x="116" y="58" on="1"/>
        <pt x="116" y="555" on="1"/>
        <pt x="34" y="575" on="1"/>
        <pt x="34" y="612" on="1"/>
        <pt x="200" y="612" on="1"/>
        <pt x="533" y="140" on="1"/>
        <pt x="533" y="555" on="1"/>
        <pt x="448" y="575" on="1"/>
        <pt x="448" y="612" on="1"/>
      </contour>
    </TTGlyph>
    <TTGlyph name="O" xMin="38" yMin="-9" xMax="622" yMax="627">
      <contour>
        <pt x="480" y="627" on="0"/>
        <pt x="622" y="451" on="0"/>
        <pt x="622" y="309" on="1"/>
        <pt x="622" y="168" on="0"/>
        <pt x="479" y="-9" on="0"/>
        <pt x="331" y="-9" on="1"/>
        <pt x="183" y="-9" on="0"/>
        <pt x="38" y="168" on="0"/>
        <pt x="38" y="309" on="1"/>
        <pt x="38" y="450" on="0"/>
        <pt x="181" y="627" on="0"/>
        <pt x="331" y="627" on="1"/>
      </contour>
      <contour>
        <pt x="515" y="414" on="0"/>
        <pt x="431" y="572" on="0"/>
        <pt x="325" y="572" on="1"/>
        <pt x="223" y="572" on="0"/>
        <pt x="145" y="415" on="0"/>
        <pt x="145" y="309" on="1"/>
        <pt x="145" y="203" on="0"/>
        <pt x="228" y="46" on="0"/>
        <pt x="334" y="46" on="1"/>
        <pt x="438" y="46" on="0"/>
        <pt x="515" y="202" on="0"/>
        <pt x="515" y="309" on="1"/>
      </contour>
    </TTGlyph>
    <TTGlyph name="OE" xMin="38" yMin="0" xMax="785" yMax="612">
      <contour>
        <pt x="761" y="476" on="1"/>
        <pt x="717" y="476" on="1"/>
        <pt x="695" y="555" on="1"/>
        <pt x="513" y="555" on="1"/>
        <pt x="513" y="325" on="1"/>
        <pt x="642" y="325" on="1"/>
        <pt x="662" y="391" on="1"/>
        <pt x="703" y="391" on="1"/>
        <pt x="703" y="207" on="1"/>
        <pt x="662" y="207" on="1"/>
        <pt x="640" y="276" on="1"/>
        <pt x="513" y="276" on="1"/>
        <pt x="513" y="60" on="1"/>
        <pt x="714" y="60" on="1"/>
        <pt x="741" y="152" on="1"/>
        <pt x="785" y="152" on="1"/>
        <pt x="785" y="0" on="1"/>
        <pt x="328" y="0" on="1"/>
        <pt x="181" y="0" on="0"/>
        <pt x="38" y="170" on="0"/>
        <pt x="38" y="309" on="1"/>
        <pt x="38" y="448" on="0"/>
        <pt x="179" y="612" on="0"/>
        <pt x="328" y="612" on="1"/>
        <pt x="761" y="612" on="1"/>
      </contour>
      <contour>
        <pt x="386" y="560" on="0"/>
        <pt x="350" y="564" on="0"/>
        <pt x="322" y="564" on="1"/>
        <pt x="221" y="564" on="0"/>
        <pt x="143" y="414" on="0"/>
        <pt x="143" y="309" on="1"/>
        <pt x="143" y="203" on="0"/>
        <pt x="227" y="48" on="0"/>
        <pt x="331" y="48" on="1"/>
        <pt x="379" y="48" on="0"/>
        <pt x="415" y="58" on="1"/>
        <pt x="415" y="554" on="1"/>
      </contour>
    </TTGlyph>
    <TTGlyph name="Oacute" xMin="38" yMin="-9" xMax="622" yMax="799">
      <component glyphName=".ttfautohint" x="38" y="0" flags="0x0"/>
      <component glyphName="O" x="0" y="0" flags="0x0"/>
      <component glyphName="acute.case" x="259" y="0" flags="0x0"/>
    </TTGlyph>
    <TTGlyph name="Oacute.loclPLK" xMin="38" yMin="-9" xMax="622" yMax="804">
      <component glyphName=".ttfautohint" x="38" y="0" flags="0x0"/>
      <component glyphName="O" x="0" y="0" flags="0x0"/>
      <component glyphName="acute.loclPLK.case" x="229" y="0" flags="0x0"/>
    </TTGlyph>
    <TTGlyph name="Obreve" xMin="38" yMin="-9" xMax="622" yMax="783">
      <component glyphName=".ttfautohint" x="38" y="0" flags="0x0"/>
      <component glyphName="O" x="0" y="0" flags="0x0"/>
      <component glyphName="uni0306" x="458" y="0" flags="0x0"/>
    </TTGlyph>
    <TTGlyph name="Ocircumflex" xMin="38" yMin="-9" xMax="622" yMax="800">
      <contour>
        <pt x="328" y="728" on="1"/>
        <pt x="213" y="648" on="1"/>
        <pt x="193" y="668" on="1"/>
        <pt x="296" y="800" on="1"/>
        <pt x="364" y="800" on="1"/>
        <pt x="468" y="668" on="1"/>
        <pt x="448" y="648" on="1"/>
      </contour>
      <contour>
        <pt x="480" y="627" on="0"/>
        <pt x="622" y="451" on="0"/>
        <pt x="622" y="309" on="1"/>
        <pt x="622" y="168" on="0"/>
        <pt x="479" y="-9" on="0"/>
        <pt x="331" y="-9" on="1"/>
        <pt x="183" y="-9" on="0"/>
        <pt x="38" y="168" on="0"/>
        <pt x="38" y="309" on="1"/>
        <pt x="38" y="450" on="0"/>
        <pt x="181" y="627" on="0"/>
        <pt x="331" y="627" on="1"/>
      </contour>
      <contour>
        <pt x="515" y="414" on="0"/>
        <pt x="431" y="572" on="0"/>
        <pt x="325" y="572" on="1"/>
        <pt x="223" y="572" on="0"/>
        <pt x="145" y="415" on="0"/>
        <pt x="145" y="309" on="1"/>
        <pt x="145" y="203" on="0"/>
        <pt x="228" y="46" on="0"/>
        <pt x="334" y="46" on="1"/>
        <pt x="438" y="46" on="0"/>
        <pt x="515" y="202" on="0"/>
        <pt x="515" y="309" on="1"/>
      </contour>
    </TTGlyph>
    <TTGlyph name="Odieresis" xMin="38" yMin="-9" xMax="622" yMax="784">
      <contour>
        <pt x="290" y="697" on="0"/>
        <pt x="253" y="662" on="0"/>
        <pt x="228" y="662" on="1"/>
        <pt x="202" y="662" on="0"/>
        <pt x="164" y="697" on="0"/>
        <pt x="164" y="722" on="1"/>
        <pt x="164" y="748" on="0"/>
        <pt x="202" y="784" on="0"/>
        <pt x="228" y="784" on="1"/>
        <pt x="253" y="784" on="0"/>
        <pt x="290" y="748" on="0"/>
        <pt x="290" y="722" on="1"/>
      </contour>
      <contour>
        <pt x="496" y="697" on="0"/>
        <pt x="458" y="662" on="0"/>
        <pt x="433" y="662" on="1"/>
        <pt x="408" y="662" on="0"/>
        <pt x="370" y="697" on="0"/>
        <pt x="370" y="722" on="1"/>
        <pt x="370" y="748" on="0"/>
        <pt x="408" y="784" on="0"/>
        <pt x="433" y="784" on="1"/>
        <pt x="458" y="784" on="0"/>
        <pt x="496" y="748" on="0"/>
        <pt x="496" y="722" on="1"/>
      </contour>
      <contour>
        <pt x="480" y="627" on="0"/>
        <pt x="622" y="451" on="0"/>
        <pt x="622" y="309" on="1"/>
        <pt x="622" y="168" on="0"/>
        <pt x="479" y="-9" on="0"/>
        <pt x="331" y="-9" on="1"/>
        <pt x="183" y="-9" on="0"/>
        <pt x="38" y="168" on="0"/>
        <pt x="38" y="309" on="1"/>
        <pt x="38" y="450" on="0"/>
        <pt x="181" y="627" on="0"/>
        <pt x="331" y="627" on="1"/>
      </contour>
      <contour>
        <pt x="515" y="414" on="0"/>
        <pt x="431" y="572" on="0"/>
        <pt x="325" y="572" on="1"/>
        <pt x="223" y="572" on="0"/>
        <pt x="145" y="415" on="0"/>
        <pt x="145" y="309" on="1"/>
        <pt x="145" y="203" on="0"/>
        <pt x="228" y="46" on="0"/>
        <pt x="334" y="46" on="1"/>
        <pt x="438" y="46" on="0"/>
        <pt x="515" y="202" on="0"/>
        <pt x="515" y="309" on="1"/>
      </contour>
    </TTGlyph>
    <TTGlyph name="Ograve" xMin="38" yMin="-9" xMax="622" yMax="799">
      <contour>
        <pt x="199" y="750" on="1"/>
        <pt x="200" y="769" on="1"/>
        <pt x="284" y="799" on="1"/>
        <pt x="437" y="669" on="1"/>
        <pt x="420" y="645" on="1"/>
      </contour>
      <contour>
        <pt x="480" y="627" on="0"/>
        <pt x="622" y="451" on="0"/>
        <pt x="622" y="309" on="1"/>
        <pt x="622" y="168" on="0"/>
        <pt x="479" y="-9" on="0"/>
        <pt x="331" y="-9" on="1"/>
        <pt x="183" y="-9" on="0"/>
        <pt x="38" y="168" on="0"/>
        <pt x="38" y="309" on="1"/>
        <pt x="38" y="450" on="0"/>
        <pt x="181" y="627" on="0"/>
        <pt x="331" y="627" on="1"/>
      </contour>
      <contour>
        <pt x="515" y="414" on="0"/>
        <pt x="431" y="572" on="0"/>
        <pt x="325" y="572" on="1"/>
        <pt x="223" y="572" on="0"/>
        <pt x="145" y="415" on="0"/>
        <pt x="145" y="309" on="1"/>
        <pt x="145" y="203" on="0"/>
        <pt x="228" y="46" on="0"/>
        <pt x="334" y="46" on="1"/>
        <pt x="438" y="46" on="0"/>
        <pt x="515" y="202" on="0"/>
        <pt x="515" y="309" on="1"/>
      </contour>
    </TTGlyph>
    <TTGlyph name="Ohorn" xMin="38" yMin="-9" xMax="672" yMax="704">
      <contour>
        <pt x="672" y="607" on="0"/>
        <pt x="602" y="553" on="0"/>
        <pt x="548" y="543" on="1"/>
        <pt x="622" y="459" on="0"/>
        <pt x="622" y="309" on="1"/>
        <pt x="622" y="168" on="0"/>
        <pt x="479" y="-9" on="0"/>
        <pt x="331" y="-9" on="1"/>
        <pt x="183" y="-9" on="0"/>
        <pt x="38" y="168" on="0"/>
        <pt x="38" y="309" on="1"/>
        <pt x="38" y="450" on="0"/>
        <pt x="181" y="627" on="0"/>
        <pt x="331" y="627" on="1"/>
        <pt x="432" y="627" on="0"/>
        <pt x="501" y="583" on="1"/>
        <pt x="522" y="583" on="1"/>
        <pt x="553" y="583" on="0"/>
        <pt x="585" y="605" on="0"/>
        <pt x="585" y="636" on="1"/>
        <pt x="585" y="655" on="0"/>
        <pt x="580" y="677" on="1"/>
        <pt x="586" y="690" on="1"/>
        <pt x="659" y="704" on="1"/>
        <pt x="665" y="691" on="0"/>
        <pt x="672" y="659" on="0"/>
        <pt x="672" y="647" on="1"/>
      </contour>
      <contour>
        <pt x="438" y="46" on="0"/>
        <pt x="515" y="202" on="0"/>
        <pt x="515" y="309" on="1"/>
        <pt x="515" y="414" on="0"/>
        <pt x="431" y="572" on="0"/>
        <pt x="325" y="572" on="1"/>
        <pt x="223" y="572" on="0"/>
        <pt x="145" y="415" on="0"/>
        <pt x="145" y="309" on="1"/>
        <pt x="145" y="203" on="0"/>
        <pt x="228" y="46" on="0"/>
        <pt x="334" y="46" on="1"/>
      </contour>
    </TTGlyph>
    <TTGlyph name="Ohungarumlaut" xMin="38" yMin="-9" xMax="622" yMax="804">
      <contour>
        <pt x="195" y="663" on="1"/>
        <pt x="275" y="804" on="1"/>
        <pt x="355" y="804" on="1"/>
        <pt x="355" y="786" on="1"/>
        <pt x="220" y="646" on="1"/>
      </contour>
      <contour>
        <pt x="356" y="663" on="1"/>
        <pt x="436" y="804" on="1"/>
        <pt x="516" y="804" on="1"/>
        <pt x="516" y="786" on="1"/>
        <pt x="381" y="646" on="1"/>
      </contour>
      <contour>
        <pt x="183" y="-9" on="0"/>
        <pt x="38" y="168" on="0"/>
        <pt x="38" y="309" on="1"/>
        <pt x="38" y="450" on="0"/>
        <pt x="181" y="627" on="0"/>
        <pt x="331" y="627" on="1"/>
        <pt x="480" y="627" on="0"/>
        <pt x="622" y="451" on="0"/>
        <pt x="622" y="309" on="1"/>
        <pt x="622" y="168" on="0"/>
        <pt x="479" y="-9" on="0"/>
        <pt x="331" y="-9" on="1"/>
      </contour>
      <contour>
        <pt x="438" y="46" on="0"/>
        <pt x="515" y="202" on="0"/>
        <pt x="515" y="309" on="1"/>
        <pt x="515" y="414" on="0"/>
        <pt x="431" y="572" on="0"/>
        <pt x="325" y="572" on="1"/>
        <pt x="223" y="572" on="0"/>
        <pt x="145" y="415" on="0"/>
        <pt x="145" y="309" on="1"/>
        <pt x="145" y="203" on="0"/>
        <pt x="228" y="46" on="0"/>
        <pt x="334" y="46" on="1"/>
      </contour>
    </TTGlyph>
    <TTGlyph name="Omacron" xMin="38" yMin="-9" xMax="622" yMax="752">
      <contour>
        <pt x="442" y="752" on="1"/>
        <pt x="442" y="691" on="1"/>
        <pt x="217" y="691" on="1"/>
        <pt x="217" y="752" on="1"/>
      </contour>
      <contour>
        <pt x="480" y="627" on="0"/>
        <pt x="622" y="451" on="0"/>
        <pt x="622" y="309" on="1"/>
        <pt x="622" y="168" on="0"/>
        <pt x="479" y="-9" on="0"/>
        <pt x="331" y="-9" on="1"/>
        <pt x="183" y="-9" on="0"/>
        <pt x="38" y="168" on="0"/>
        <pt x="38" y="309" on="1"/>
        <pt x="38" y="450" on="0"/>
        <pt x="181" y="627" on="0"/>
        <pt x="331" y="627" on="1"/>
      </contour>
      <contour>
        <pt x="515" y="414" on="0"/>
        <pt x="431" y="572" on="0"/>
        <pt x="325" y="572" on="1"/>
        <pt x="223" y="572" on="0"/>
        <pt x="145" y="415" on="0"/>
        <pt x="145" y="309" on="1"/>
        <pt x="145" y="203" on="0"/>
        <pt x="228" y="46" on="0"/>
        <pt x="334" y="46" on="1"/>
        <pt x="438" y="46" on="0"/>
        <pt x="515" y="202" on="0"/>
        <pt x="515" y="309" on="1"/>
      </contour>
    </TTGlyph>
    <TTGlyph name="Oslash" xMin="38" yMin="-95" xMax="622" yMax="708">
      <contour>
        <pt x="192" y="19" on="1"/>
        <pt x="114" y="55" on="0"/>
        <pt x="38" y="208" on="0"/>
        <pt x="38" y="309" on="1"/>
        <pt x="38" y="450" on="0"/>
        <pt x="181" y="627" on="0"/>
        <pt x="331" y="627" on="1"/>
        <pt x="368" y="627" on="0"/>
        <pt x="398" y="621" on="1"/>
        <pt x="428" y="708" on="1"/>
        <pt x="496" y="708" on="1"/>
        <pt x="460" y="604" on="1"/>
        <pt x="543" y="570" on="0"/>
        <pt x="622" y="414" on="0"/>
        <pt x="622" y="309" on="1"/>
        <pt x="622" y="168" on="0"/>
        <pt x="479" y="-9" on="0"/>
        <pt x="331" y="-9" on="1"/>
        <pt x="290" y="-9" on="0"/>
        <pt x="252" y="-1" on="1"/>
        <pt x="220" y="-95" on="1"/>
        <pt x="153" y="-95" on="1"/>
      </contour>
      <contour>
        <pt x="380" y="567" on="1"/>
        <pt x="356" y="574" on="0"/>
        <pt x="325" y="574" on="1"/>
        <pt x="223" y="574" on="0"/>
        <pt x="145" y="416" on="0"/>
        <pt x="145" y="309" on="1"/>
        <pt x="145" y="243" on="0"/>
        <pt x="177" y="125" on="0"/>
        <pt x="216" y="89" on="1"/>
      </contour>
      <contour>
        <pt x="438" y="44" on="0"/>
        <pt x="515" y="201" on="0"/>
        <pt x="515" y="309" on="1"/>
        <pt x="515" y="377" on="0"/>
        <pt x="479" y="499" on="0"/>
        <pt x="436" y="534" on="1"/>
        <pt x="271" y="54" on="1"/>
        <pt x="298" y="44" on="0"/>
        <pt x="334" y="44" on="1"/>
      </contour>
    </TTGlyph>
    <TTGlyph name="Oslashacute" xMin="38" yMin="-95" xMax="622" yMax="799">
      <component glyphName=".ttfautohint" x="38" y="0" flags="0x0"/>
      <component glyphName="Oslash" x="0" y="0" flags="0x0"/>
      <component glyphName="acutecomb" x="458" y="0" flags="0x0"/>
    </TTGlyph>
    <TTGlyph name="Otilde" xMin="38" yMin="-9" xMax="622" yMax="782">
      <contour>
        <pt x="465" y="717" on="0"/>
        <pt x="429" y="667" on="0"/>
        <pt x="407" y="667" on="1"/>
        <pt x="385" y="667" on="0"/>
        <pt x="327" y="687" on="1"/>
        <pt x="272" y="706" on="0"/>
        <pt x="254" y="706" on="1"/>
        <pt x="244" y="706" on="0"/>
        <pt x="225" y="690" on="0"/>
        <pt x="213" y="674" on="0"/>
        <pt x="211" y="671" on="1"/>
        <pt x="176" y="685" on="1"/>
        <pt x="212" y="782" on="0"/>
        <pt x="254" y="782" on="1"/>
        <pt x="274" y="782" on="0"/>
        <pt x="332" y="762" on="1"/>
        <pt x="385" y="743" on="0"/>
        <pt x="406" y="743" on="1"/>
        <pt x="417" y="743" on="0"/>
        <pt x="436" y="758" on="0"/>
        <pt x="448" y="774" on="0"/>
        <pt x="449" y="777" on="1"/>
        <pt x="484" y="763" on="1"/>
      </contour>
      <contour>
        <pt x="480" y="627" on="0"/>
        <pt x="622" y="451" on="0"/>
        <pt x="622" y="309" on="1"/>
        <pt x="622" y="168" on="0"/>
        <pt x="479" y="-9" on="0"/>
        <pt x="331" y="-9" on="1"/>
        <pt x="183" y="-9" on="0"/>
        <pt x="38" y="168" on="0"/>
        <pt x="38" y="309" on="1"/>
        <pt x="38" y="450" on="0"/>
        <pt x="181" y="627" on="0"/>
        <pt x="331" y="627" on="1"/>
      </contour>
      <contour>
        <pt x="515" y="414" on="0"/>
        <pt x="431" y="572" on="0"/>
        <pt x="325" y="572" on="1"/>
        <pt x="223" y="572" on="0"/>
        <pt x="145" y="415" on="0"/>
        <pt x="145" y="309" on="1"/>
        <pt x="145" y="203" on="0"/>
        <pt x="228" y="46" on="0"/>
        <pt x="334" y="46" on="1"/>
        <pt x="438" y="46" on="0"/>
        <pt x="515" y="202" on="0"/>
        <pt x="515" y="309" on="1"/>
      </contour>
    </TTGlyph>
    <TTGlyph name="P" xMin="38" yMin="0" xMax="509" yMax="612">
      <contour>
        <pt x="384" y="612" on="0"/>
        <pt x="509" y="523" on="0"/>
        <pt x="509" y="440" on="1"/>
        <pt x="509" y="377" on="0"/>
        <pt x="451" y="290" on="0"/>
        <pt x="356" y="247" on="0"/>
        <pt x="299" y="247" on="1"/>
        <pt x="261" y="247" on="0"/>
        <pt x="226" y="255" on="1"/>
        <pt x="226" y="58" on="1"/>
        <pt x="331" y="38" on="1"/>
        <pt x="331" y="0" on="1"/>
        <pt x="38" y="0" on="1"/>
        <pt x="38" y="37" on="1"/>
        <pt x="127" y="58" on="1"/>
        <pt x="127" y="552" on="1"/>
        <pt x="38" y="574" on="1"/>
        <pt x="38" y="612" on="1"/>
        <pt x="284" y="612" on="1"/>
      </contour>
      <contour>
        <pt x="243" y="290" on="0"/>
        <pt x="276" y="290" on="1"/>
        <pt x="334" y="290" on="0"/>
        <pt x="403" y="361" on="0"/>
        <pt x="403" y="432" on="1"/>
        <pt x="403" y="497" on="0"/>
        <pt x="340" y="563" on="0"/>
        <pt x="287" y="563" on="1"/>
        <pt x="255" y="563" on="0"/>
        <pt x="226" y="555" on="1"/>
        <pt x="226" y="297" on="1"/>
      </contour>
    </TTGlyph>
    <TTGlyph name="Q" xMin="38" yMin="-153" xMax="681" yMax="627">
      <contour>
        <pt x="660" y="-135" on="0"/>
        <pt x="598" y="-153" on="0"/>
        <pt x="573" y="-153" on="1"/>
        <pt x="543" y="-153" on="0"/>
        <pt x="488" y="-135" on="0"/>
        <pt x="438" y="-105" on="1"/>
        <pt x="265" y="0" on="1"/>
        <pt x="156" y="23" on="0"/>
        <pt x="38" y="192" on="0"/>
        <pt x="38" y="309" on="1"/>
        <pt x="38" y="450" on="0"/>
        <pt x="181" y="627" on="0"/>
        <pt x="331" y="627" on="1"/>
        <pt x="480" y="627" on="0"/>
        <pt x="622" y="451" on="0"/>
        <pt x="622" y="309" on="1"/>
        <pt x="622" y="182" on="0"/>
        <pt x="499" y="14" on="0"/>
        <pt x="379" y="-2" on="1"/>
        <pt x="472" y="-46" on="0"/>
        <pt x="583" y="-94" on="0"/>
        <pt x="601" y="-94" on="1"/>
        <pt x="678" y="-94" on="1"/>
        <pt x="681" y="-125" on="1"/>
      </contour>
      <contour>
        <pt x="144" y="206" on="0"/>
        <pt x="230" y="48" on="0"/>
        <pt x="334" y="48" on="1"/>
        <pt x="435" y="48" on="0"/>
        <pt x="516" y="205" on="0"/>
        <pt x="516" y="309" on="1"/>
        <pt x="516" y="414" on="0"/>
        <pt x="431" y="572" on="0"/>
        <pt x="325" y="572" on="1"/>
        <pt x="223" y="572" on="0"/>
        <pt x="144" y="415" on="0"/>
        <pt x="144" y="309" on="1"/>
      </contour>
    </TTGlyph>
    <TTGlyph name="R" xMin="38" yMin="0" xMax="592" yMax="612">
      <contour>
        <pt x="396" y="85" on="1"/>
        <pt x="350" y="189" on="0"/>
        <pt x="316" y="257" on="0"/>
        <pt x="289" y="276" on="0"/>
        <pt x="262" y="276" on="1"/>
        <pt x="228" y="276" on="1"/>
        <pt x="228" y="58" on="1"/>
        <pt x="315" y="37" on="1"/>
        <pt x="315" y="0" on="1"/>
        <pt x="39" y="0" on="1"/>
        <pt x="39" y="37" on="1"/>
        <pt x="129" y="58" on="1"/>
        <pt x="129" y="554" on="1"/>
        <pt x="38" y="575" on="1"/>
        <pt x="38" y="612" on="1"/>
        <pt x="294" y="612" on="1"/>
        <pt x="404" y="612" on="0"/>
        <pt x="511" y="526" on="0"/>
        <pt x="511" y="459" on="1"/>
        <pt x="511" y="402" on="0"/>
        <pt x="441" y="312" on="0"/>
        <pt x="366" y="293" on="1"/>
        <pt x="391" y="285" on="0"/>
        <pt x="419" y="263" on="0"/>
        <pt x="441" y="223" on="0"/>
        <pt x="463" y="174" on="1"/>
        <pt x="505" y="84" on="0"/>
        <pt x="518" y="58" on="1"/>
        <pt x="592" y="37" on="1"/>
        <pt x="592" y="0" on="1"/>
        <pt x="434" y="0" on="1"/>
      </contour>
      <contour>
        <pt x="342" y="320" on="0"/>
        <pt x="406" y="391" on="0"/>
        <pt x="406" y="450" on="1"/>
        <pt x="406" y="504" on="0"/>
        <pt x="344" y="564" on="0"/>
        <pt x="286" y="564" on="1"/>
        <pt x="260" y="564" on="0"/>
        <pt x="228" y="555" on="1"/>
        <pt x="228" y="320" on="1"/>
        <pt x="283" y="320" on="1"/>
      </contour>
    </TTGlyph>
    <TTGlyph name="Racute" xMin="38" yMin="0" xMax="592" yMax="799">
      <contour>
        <pt x="180" y="669" on="1"/>
        <pt x="335" y="799" on="1"/>
        <pt x="418" y="769" on="1"/>
        <pt x="418" y="750" on="1"/>
        <pt x="199" y="645" on="1"/>
      </contour>
      <contour>
        <pt x="396" y="85" on="1"/>
        <pt x="350" y="189" on="0"/>
        <pt x="316" y="257" on="0"/>
        <pt x="289" y="276" on="0"/>
        <pt x="262" y="276" on="1"/>
        <pt x="228" y="276" on="1"/>
        <pt x="228" y="58" on="1"/>
        <pt x="315" y="37" on="1"/>
        <pt x="315" y="0" on="1"/>
        <pt x="39" y="0" on="1"/>
        <pt x="39" y="37" on="1"/>
        <pt x="129" y="58" on="1"/>
        <pt x="129" y="554" on="1"/>
        <pt x="38" y="575" on="1"/>
        <pt x="38" y="612" on="1"/>
        <pt x="294" y="612" on="1"/>
        <pt x="404" y="612" on="0"/>
        <pt x="511" y="526" on="0"/>
        <pt x="511" y="459" on="1"/>
        <pt x="511" y="402" on="0"/>
        <pt x="441" y="312" on="0"/>
        <pt x="366" y="293" on="1"/>
        <pt x="391" y="285" on="0"/>
        <pt x="419" y="263" on="0"/>
        <pt x="441" y="223" on="0"/>
        <pt x="463" y="174" on="1"/>
        <pt x="505" y="84" on="0"/>
        <pt x="518" y="58" on="1"/>
        <pt x="592" y="37" on="1"/>
        <pt x="592" y="0" on="1"/>
        <pt x="434" y="0" on="1"/>
      </contour>
      <contour>
        <pt x="342" y="320" on="0"/>
        <pt x="406" y="391" on="0"/>
        <pt x="406" y="450" on="1"/>
        <pt x="406" y="504" on="0"/>
        <pt x="344" y="564" on="0"/>
        <pt x="286" y="564" on="1"/>
        <pt x="260" y="564" on="0"/>
        <pt x="228" y="555" on="1"/>
        <pt x="228" y="320" on="1"/>
        <pt x="283" y="320" on="1"/>
      </contour>
    </TTGlyph>
    <TTGlyph name="Rcaron" xMin="38" yMin="0" xMax="592" yMax="800">
      <contour>
        <pt x="148" y="780" on="1"/>
        <pt x="168" y="800" on="1"/>
        <pt x="287" y="720" on="1"/>
        <pt x="404" y="800" on="1"/>
        <pt x="423" y="780" on="1"/>
        <pt x="320" y="648" on="1"/>
        <pt x="253" y="648" on="1"/>
      </contour>
      <contour>
        <pt x="39" y="37" on="1"/>
        <pt x="129" y="58" on="1"/>
        <pt x="129" y="554" on="1"/>
        <pt x="38" y="575" on="1"/>
        <pt x="38" y="612" on="1"/>
        <pt x="294" y="612" on="1"/>
        <pt x="404" y="612" on="0"/>
        <pt x="511" y="526" on="0"/>
        <pt x="511" y="459" on="1"/>
        <pt x="511" y="402" on="0"/>
        <pt x="441" y="312" on="0"/>
        <pt x="366" y="293" on="1"/>
        <pt x="391" y="285" on="0"/>
        <pt x="419" y="263" on="0"/>
        <pt x="441" y="223" on="0"/>
        <pt x="463" y="174" on="1"/>
        <pt x="505" y="84" on="0"/>
        <pt x="518" y="58" on="1"/>
        <pt x="592" y="37" on="1"/>
        <pt x="592" y="0" on="1"/>
        <pt x="434" y="0" on="1"/>
        <pt x="396" y="85" on="1"/>
        <pt x="350" y="189" on="0"/>
        <pt x="316" y="257" on="0"/>
        <pt x="289" y="276" on="0"/>
        <pt x="262" y="276" on="1"/>
        <pt x="228" y="276" on="1"/>
        <pt x="228" y="58" on="1"/>
        <pt x="315" y="37" on="1"/>
        <pt x="315" y="0" on="1"/>
        <pt x="39" y="0" on="1"/>
      </contour>
      <contour>
        <pt x="283" y="320" on="1"/>
        <pt x="342" y="320" on="0"/>
        <pt x="406" y="391" on="0"/>
        <pt x="406" y="450" on="1"/>
        <pt x="406" y="504" on="0"/>
        <pt x="344" y="564" on="0"/>
        <pt x="286" y="564" on="1"/>
        <pt x="260" y="564" on="0"/>
        <pt x="228" y="555" on="1"/>
        <pt x="228" y="320" on="1"/>
      </contour>
    </TTGlyph>
    <TTGlyph name="Rcommaaccent" xMin="38" yMin="-226" xMax="592" yMax="612">
      <contour>
        <pt x="39" y="37" on="1"/>
        <pt x="129" y="58" on="1"/>
        <pt x="129" y="554" on="1"/>
        <pt x="38" y="575" on="1"/>
        <pt x="38" y="612" on="1"/>
        <pt x="294" y="612" on="1"/>
        <pt x="404" y="612" on="0"/>
        <pt x="511" y="526" on="0"/>
        <pt x="511" y="459" on="1"/>
        <pt x="511" y="402" on="0"/>
        <pt x="441" y="312" on="0"/>
        <pt x="366" y="293" on="1"/>
        <pt x="391" y="285" on="0"/>
        <pt x="419" y="263" on="0"/>
        <pt x="441" y="223" on="0"/>
        <pt x="463" y="174" on="1"/>
        <pt x="505" y="84" on="0"/>
        <pt x="518" y="58" on="1"/>
        <pt x="592" y="37" on="1"/>
        <pt x="592" y="0" on="1"/>
        <pt x="434" y="0" on="1"/>
        <pt x="396" y="85" on="1"/>
        <pt x="350" y="189" on="0"/>
        <pt x="316" y="257" on="0"/>
        <pt x="289" y="276" on="0"/>
        <pt x="262" y="276" on="1"/>
        <pt x="228" y="276" on="1"/>
        <pt x="228" y="58" on="1"/>
        <pt x="315" y="37" on="1"/>
        <pt x="315" y="0" on="1"/>
        <pt x="39" y="0" on="1"/>
      </contour>
      <contour>
        <pt x="283" y="320" on="1"/>
        <pt x="342" y="320" on="0"/>
        <pt x="406" y="391" on="0"/>
        <pt x="406" y="450" on="1"/>
        <pt x="406" y="504" on="0"/>
        <pt x="344" y="564" on="0"/>
        <pt x="286" y="564" on="1"/>
        <pt x="260" y="564" on="0"/>
        <pt x="228" y="555" on="1"/>
        <pt x="228" y="320" on="1"/>
      </contour>
      <contour>
        <pt x="288" y="-43" on="1"/>
        <pt x="364" y="-27" on="1"/>
        <pt x="381" y="-44" on="1"/>
        <pt x="312" y="-226" on="1"/>
        <pt x="276" y="-223" on="1"/>
      </contour>
    </TTGlyph>
    <TTGlyph name="S" xMin="33" yMin="-10" xMax="434" yMax="627">
      <contour>
        <pt x="44" y="535" on="0"/>
        <pt x="150" y="627" on="0"/>
        <pt x="247" y="627" on="1"/>
        <pt x="333" y="627" on="0"/>
        <pt x="413" y="600" on="1"/>
        <pt x="403" y="466" on="1"/>
        <pt x="361" y="466" on="1"/>
        <pt x="339" y="561" on="1"/>
        <pt x="325" y="565" on="0"/>
        <pt x="274" y="571" on="0"/>
        <pt x="255" y="571" on="1"/>
        <pt x="199" y="571" on="0"/>
        <pt x="133" y="523" on="0"/>
        <pt x="133" y="475" on="1"/>
        <pt x="133" y="436" on="0"/>
        <pt x="178" y="387" on="0"/>
        <pt x="224" y="369" on="1"/>
        <pt x="326" y="327" on="1"/>
        <pt x="382" y="305" on="0"/>
        <pt x="434" y="229" on="0"/>
        <pt x="434" y="168" on="1"/>
        <pt x="434" y="84" on="0"/>
        <pt x="319" y="-10" on="0"/>
        <pt x="209" y="-10" on="1"/>
        <pt x="167" y="-10" on="0"/>
        <pt x="71" y="6" on="0"/>
        <pt x="33" y="21" on="1"/>
        <pt x="47" y="146" on="1"/>
        <pt x="90" y="146" on="1"/>
        <pt x="108" y="60" on="1"/>
        <pt x="159" y="46" on="0"/>
        <pt x="212" y="46" on="1"/>
        <pt x="271" y="46" on="0"/>
        <pt x="340" y="97" on="0"/>
        <pt x="340" y="141" on="1"/>
        <pt x="340" y="180" on="0"/>
        <pt x="300" y="232" on="0"/>
        <pt x="253" y="251" on="1"/>
        <pt x="148" y="293" on="1"/>
        <pt x="101" y="311" on="0"/>
        <pt x="44" y="389" on="0"/>
        <pt x="44" y="453" on="1"/>
      </contour>
    </TTGlyph>
    <TTGlyph name="Sacute" xMin="36" yMin="-10" xMax="437" yMax="799">
      <contour>
        <pt x="137" y="669" on="1"/>
        <pt x="292" y="799" on="1"/>
        <pt x="375" y="769" on="1"/>
        <pt x="375" y="750" on="1"/>
        <pt x="156" y="645" on="1"/>
      </contour>
      <contour>
        <pt x="47" y="535" on="0"/>
        <pt x="153" y="627" on="0"/>
        <pt x="250" y="627" on="1"/>
        <pt x="336" y="627" on="0"/>
        <pt x="416" y="600" on="1"/>
        <pt x="406" y="466" on="1"/>
        <pt x="364" y="466" on="1"/>
        <pt x="342" y="561" on="1"/>
        <pt x="329" y="565" on="0"/>
        <pt x="277" y="571" on="0"/>
        <pt x="258" y="571" on="1"/>
        <pt x="202" y="571" on="0"/>
        <pt x="136" y="523" on="0"/>
        <pt x="136" y="475" on="1"/>
        <pt x="136" y="436" on="0"/>
        <pt x="180" y="387" on="0"/>
        <pt x="226" y="369" on="1"/>
        <pt x="329" y="327" on="1"/>
        <pt x="385" y="305" on="0"/>
        <pt x="437" y="229" on="0"/>
        <pt x="437" y="168" on="1"/>
        <pt x="437" y="85" on="0"/>
        <pt x="322" y="-10" on="0"/>
        <pt x="212" y="-10" on="1"/>
        <pt x="169" y="-10" on="0"/>
        <pt x="73" y="6" on="0"/>
        <pt x="36" y="21" on="1"/>
        <pt x="50" y="146" on="1"/>
        <pt x="93" y="146" on="1"/>
        <pt x="111" y="60" on="1"/>
        <pt x="162" y="46" on="0"/>
        <pt x="215" y="46" on="1"/>
        <pt x="274" y="46" on="0"/>
        <pt x="343" y="97" on="0"/>
        <pt x="343" y="141" on="1"/>
        <pt x="343" y="180" on="0"/>
        <pt x="303" y="232" on="0"/>
        <pt x="256" y="251" on="1"/>
        <pt x="150" y="293" on="1"/>
        <pt x="103" y="311" on="0"/>
        <pt x="47" y="389" on="0"/>
        <pt x="47" y="453" on="1"/>
      </contour>
    </TTGlyph>
    <TTGlyph name="Sacute.loclPLK" xMin="33" yMin="-10" xMax="434" yMax="804">
      <component glyphName=".ttfautohint" x="33" y="0" flags="0x0"/>
      <component glyphName="S" x="0" y="0" flags="0x0"/>
      <component glyphName="acute.loclPLK.case" x="132" y="0" flags="0x0"/>
    </TTGlyph>
    <TTGlyph name="Scaron" xMin="33" yMin="-10" xMax="434" yMax="800">
      <contour>
        <pt x="102" y="780" on="1"/>
        <pt x="122" y="800" on="1"/>
        <pt x="241" y="720" on="1"/>
        <pt x="357" y="800" on="1"/>
        <pt x="377" y="780" on="1"/>
        <pt x="274" y="648" on="1"/>
        <pt x="206" y="648" on="1"/>
      </contour>
      <contour>
        <pt x="167" y="-10" on="0"/>
        <pt x="71" y="6" on="0"/>
        <pt x="33" y="21" on="1"/>
        <pt x="47" y="146" on="1"/>
        <pt x="90" y="146" on="1"/>
        <pt x="108" y="60" on="1"/>
        <pt x="159" y="46" on="0"/>
        <pt x="212" y="46" on="1"/>
        <pt x="271" y="46" on="0"/>
        <pt x="340" y="97" on="0"/>
        <pt x="340" y="141" on="1"/>
        <pt x="340" y="180" on="0"/>
        <pt x="300" y="232" on="0"/>
        <pt x="253" y="251" on="1"/>
        <pt x="148" y="293" on="1"/>
        <pt x="101" y="311" on="0"/>
        <pt x="44" y="389" on="0"/>
        <pt x="44" y="453" on="1"/>
        <pt x="44" y="535" on="0"/>
        <pt x="150" y="627" on="0"/>
        <pt x="247" y="627" on="1"/>
        <pt x="333" y="627" on="0"/>
        <pt x="413" y="600" on="1"/>
        <pt x="403" y="466" on="1"/>
        <pt x="361" y="466" on="1"/>
        <pt x="339" y="561" on="1"/>
        <pt x="325" y="565" on="0"/>
        <pt x="274" y="571" on="0"/>
        <pt x="255" y="571" on="1"/>
        <pt x="199" y="571" on="0"/>
        <pt x="133" y="523" on="0"/>
        <pt x="133" y="475" on="1"/>
        <pt x="133" y="436" on="0"/>
        <pt x="178" y="387" on="0"/>
        <pt x="224" y="369" on="1"/>
        <pt x="326" y="327" on="1"/>
        <pt x="382" y="305" on="0"/>
        <pt x="434" y="229" on="0"/>
        <pt x="434" y="168" on="1"/>
        <pt x="434" y="84" on="0"/>
        <pt x="319" y="-10" on="0"/>
        <pt x="209" y="-10" on="1"/>
      </contour>
    </TTGlyph>
    <TTGlyph name="Scedilla" xMin="36" yMin="-219" xMax="437" yMax="627">
      <contour>
        <pt x="160" y="-219" on="0"/>
        <pt x="138" y="-210" on="1"/>
        <pt x="146" y="-181" on="1"/>
        <pt x="164" y="-187" on="0"/>
        <pt x="179" y="-187" on="1"/>
        <pt x="212" y="-187" on="0"/>
        <pt x="252" y="-151" on="0"/>
        <pt x="252" y="-126" on="1"/>
        <pt x="252" y="-106" on="0"/>
        <pt x="218" y="-81" on="0"/>
        <pt x="181" y="-81" on="1"/>
        <pt x="177" y="-69" on="1"/>
        <pt x="197" y="-10" on="1"/>
        <pt x="157" y="-9" on="0"/>
        <pt x="70" y="7" on="0"/>
        <pt x="36" y="21" on="1"/>
        <pt x="50" y="146" on="1"/>
        <pt x="93" y="146" on="1"/>
        <pt x="111" y="60" on="1"/>
        <pt x="162" y="46" on="0"/>
        <pt x="215" y="46" on="1"/>
        <pt x="274" y="46" on="0"/>
        <pt x="343" y="97" on="0"/>
        <pt x="343" y="141" on="1"/>
        <pt x="343" y="180" on="0"/>
        <pt x="303" y="232" on="0"/>
        <pt x="256" y="251" on="1"/>
        <pt x="150" y="293" on="1"/>
        <pt x="103" y="311" on="0"/>
        <pt x="47" y="389" on="0"/>
        <pt x="47" y="453" on="1"/>
        <pt x="47" y="535" on="0"/>
        <pt x="153" y="627" on="0"/>
        <pt x="250" y="627" on="1"/>
        <pt x="336" y="627" on="0"/>
        <pt x="416" y="600" on="1"/>
        <pt x="406" y="466" on="1"/>
        <pt x="364" y="466" on="1"/>
        <pt x="342" y="561" on="1"/>
        <pt x="329" y="565" on="0"/>
        <pt x="277" y="571" on="0"/>
        <pt x="258" y="571" on="1"/>
        <pt x="202" y="571" on="0"/>
        <pt x="136" y="523" on="0"/>
        <pt x="136" y="475" on="1"/>
        <pt x="136" y="436" on="0"/>
        <pt x="180" y="387" on="0"/>
        <pt x="226" y="369" on="1"/>
        <pt x="329" y="327" on="1"/>
        <pt x="385" y="305" on="0"/>
        <pt x="437" y="229" on="0"/>
        <pt x="437" y="168" on="1"/>
        <pt x="437" y="89" on="0"/>
        <pt x="333" y="-5" on="0"/>
        <pt x="233" y="-10" on="1"/>
        <pt x="222" y="-46" on="1"/>
        <pt x="273" y="-46" on="0"/>
        <pt x="326" y="-87" on="0"/>
        <pt x="326" y="-117" on="1"/>
        <pt x="326" y="-144" on="0"/>
        <pt x="289" y="-191" on="0"/>
        <pt x="226" y="-219" on="0"/>
        <pt x="191" y="-219" on="1"/>
      </contour>
    </TTGlyph>
    <TTGlyph name="Scircumflex" xMin="33" yMin="-10" xMax="434" yMax="800">
      <component glyphName=".ttfautohint" x="33" y="0" flags="0x0"/>
      <component glyphName="S" x="0" y="0" flags="0x0"/>
      <component glyphName="uni0302" x="361" y="0" flags="0x0"/>
    </TTGlyph>
    <TTGlyph name="Scommaaccent" xMin="36" yMin="-226" xMax="437" yMax="627">
      <contour>
        <pt x="169" y="-10" on="0"/>
        <pt x="73" y="6" on="0"/>
        <pt x="36" y="21" on="1"/>
        <pt x="50" y="146" on="1"/>
        <pt x="93" y="146" on="1"/>
        <pt x="111" y="60" on="1"/>
        <pt x="162" y="46" on="0"/>
        <pt x="215" y="46" on="1"/>
        <pt x="274" y="46" on="0"/>
        <pt x="343" y="97" on="0"/>
        <pt x="343" y="141" on="1"/>
        <pt x="343" y="180" on="0"/>
        <pt x="303" y="232" on="0"/>
        <pt x="256" y="251" on="1"/>
        <pt x="150" y="293" on="1"/>
        <pt x="103" y="311" on="0"/>
        <pt x="47" y="389" on="0"/>
        <pt x="47" y="453" on="1"/>
        <pt x="47" y="535" on="0"/>
        <pt x="153" y="627" on="0"/>
        <pt x="250" y="627" on="1"/>
        <pt x="336" y="627" on="0"/>
        <pt x="416" y="600" on="1"/>
        <pt x="406" y="466" on="1"/>
        <pt x="364" y="466" on="1"/>
        <pt x="342" y="561" on="1"/>
        <pt x="329" y="565" on="0"/>
        <pt x="277" y="571" on="0"/>
        <pt x="258" y="571" on="1"/>
        <pt x="202" y="571" on="0"/>
        <pt x="136" y="523" on="0"/>
        <pt x="136" y="475" on="1"/>
        <pt x="136" y="436" on="0"/>
        <pt x="180" y="387" on="0"/>
        <pt x="226" y="369" on="1"/>
        <pt x="329" y="327" on="1"/>
        <pt x="385" y="305" on="0"/>
        <pt x="437" y="229" on="0"/>
        <pt x="437" y="168" on="1"/>
        <pt x="437" y="85" on="0"/>
        <pt x="322" y="-10" on="0"/>
        <pt x="212" y="-10" on="1"/>
      </contour>
      <contour>
        <pt x="194" y="-43" on="1"/>
        <pt x="270" y="-27" on="1"/>
        <pt x="287" y="-44" on="1"/>
        <pt x="217" y="-226" on="1"/>
        <pt x="181" y="-223" on="1"/>
      </contour>
    </TTGlyph>
    <TTGlyph name="T" xMin="9" yMin="0" xMax="513" yMax="612">
      <contour>
        <pt x="513" y="612" on="1"/>
        <pt x="507" y="466" on="1"/>
        <pt x="462" y="466" on="1"/>
        <pt x="443" y="555" on="1"/>
        <pt x="311" y="555" on="1"/>
        <pt x="311" y="58" on="1"/>
        <pt x="410" y="37" on="1"/>
        <pt x="410" y="0" on="1"/>
        <pt x="112" y="0" on="1"/>
        <pt x="112" y="37" on="1"/>
        <pt x="212" y="58" on="1"/>
        <pt x="212" y="555" on="1"/>
        <pt x="78" y="555" on="1"/>
        <pt x="59" y="466" on="1"/>
        <pt x="17" y="466" on="1"/>
        <pt x="9" y="612" on="1"/>
      </contour>
    </TTGlyph>
    <TTGlyph name="Tbar" xMin="9" yMin="0" xMax="513" yMax="612">
      <contour>
        <pt x="311" y="555" on="1"/>
        <pt x="311" y="335" on="1"/>
        <pt x="485" y="335" on="1"/>
        <pt x="485" y="287" on="1"/>
        <pt x="311" y="287" on="1"/>
        <pt x="311" y="58" on="1"/>
        <pt x="410" y="37" on="1"/>
        <pt x="410" y="0" on="1"/>
        <pt x="112" y="0" on="1"/>
        <pt x="112" y="37" on="1"/>
        <pt x="212" y="58" on="1"/>
        <pt x="212" y="287" on="1"/>
        <pt x="41" y="287" on="1"/>
        <pt x="41" y="335" on="1"/>
        <pt x="212" y="335" on="1"/>
        <pt x="212" y="555" on="1"/>
        <pt x="78" y="555" on="1"/>
        <pt x="59" y="466" on="1"/>
        <pt x="17" y="466" on="1"/>
        <pt x="9" y="612" on="1"/>
        <pt x="513" y="612" on="1"/>
        <pt x="507" y="466" on="1"/>
        <pt x="462" y="466" on="1"/>
        <pt x="443" y="555" on="1"/>
      </contour>
    </TTGlyph>
    <TTGlyph name="Tcaron" xMin="9" yMin="0" xMax="513" yMax="800">
      <contour>
        <pt x="122" y="780" on="1"/>
        <pt x="142" y="800" on="1"/>
        <pt x="261" y="720" on="1"/>
        <pt x="377" y="800" on="1"/>
        <pt x="397" y="780" on="1"/>
        <pt x="294" y="648" on="1"/>
        <pt x="226" y="648" on="1"/>
      </contour>
      <contour>
        <pt x="112" y="37" on="1"/>
        <pt x="212" y="58" on="1"/>
        <pt x="212" y="555" on="1"/>
        <pt x="78" y="555" on="1"/>
        <pt x="59" y="466" on="1"/>
        <pt x="17" y="466" on="1"/>
        <pt x="9" y="612" on="1"/>
        <pt x="513" y="612" on="1"/>
        <pt x="507" y="466" on="1"/>
        <pt x="462" y="466" on="1"/>
        <pt x="443" y="555" on="1"/>
        <pt x="311" y="555" on="1"/>
        <pt x="311" y="58" on="1"/>
        <pt x="410" y="37" on="1"/>
        <pt x="410" y="0" on="1"/>
        <pt x="112" y="0" on="1"/>
      </contour>
    </TTGlyph>
    <TTGlyph name="Thorn" xMin="37" yMin="0" xMax="491" yMax="612">
      <contour>
        <pt x="37" y="37" on="1"/>
        <pt x="126" y="58" on="1"/>
        <pt x="126" y="554" on="1"/>
        <pt x="37" y="575" on="1"/>
        <pt x="37" y="612" on="1"/>
        <pt x="313" y="612" on="1"/>
        <pt x="313" y="575" on="1"/>
        <pt x="225" y="554" on="1"/>
        <pt x="225" y="485" on="1"/>
        <pt x="269" y="485" on="1"/>
        <pt x="371" y="485" on="0"/>
        <pt x="491" y="399" on="0"/>
        <pt x="491" y="317" on="1"/>
        <pt x="491" y="256" on="0"/>
        <pt x="435" y="171" on="0"/>
        <pt x="342" y="129" on="0"/>
        <pt x="287" y="129" on="1"/>
        <pt x="252" y="129" on="0"/>
        <pt x="225" y="135" on="1"/>
        <pt x="225" y="58" on="1"/>
        <pt x="313" y="37" on="1"/>
        <pt x="313" y="0" on="1"/>
        <pt x="37" y="0" on="1"/>
      </contour>
      <contour>
        <pt x="321" y="172" on="0"/>
        <pt x="390" y="240" on="0"/>
        <pt x="390" y="309" on="1"/>
        <pt x="390" y="372" on="0"/>
        <pt x="324" y="437" on="0"/>
        <pt x="268" y="437" on="1"/>
        <pt x="260" y="437" on="0"/>
        <pt x="225" y="432" on="1"/>
        <pt x="225" y="176" on="1"/>
        <pt x="241" y="172" on="0"/>
        <pt x="264" y="172" on="1"/>
      </contour>
    </TTGlyph>
    <TTGlyph name="U" xMin="8" yMin="-10" xMax="642" yMax="612">
      <contour>
        <pt x="561" y="143" on="0"/>
        <pt x="463" y="-10" on="0"/>
        <pt x="331" y="-10" on="1"/>
        <pt x="236" y="-10" on="0"/>
        <pt x="133" y="62" on="0"/>
        <pt x="97" y="181" on="0"/>
        <pt x="97" y="264" on="1"/>
        <pt x="97" y="554" on="1"/>
        <pt x="8" y="575" on="1"/>
        <pt x="8" y="612" on="1"/>
        <pt x="285" y="612" on="1"/>
        <pt x="285" y="575" on="1"/>
        <pt x="196" y="554" on="1"/>
        <pt x="196" y="264" on="1"/>
        <pt x="196" y="161" on="0"/>
        <pt x="255" y="48" on="0"/>
        <pt x="340" y="48" on="1"/>
        <pt x="423" y="48" on="0"/>
        <pt x="498" y="150" on="0"/>
        <pt x="498" y="239" on="1"/>
        <pt x="498" y="555" on="1"/>
        <pt x="413" y="575" on="1"/>
        <pt x="413" y="612" on="1"/>
        <pt x="642" y="612" on="1"/>
        <pt x="642" y="575" on="1"/>
        <pt x="561" y="555" on="1"/>
        <pt x="561" y="236" on="1"/>
      </contour>
    </TTGlyph>
    <TTGlyph name="Uacute" xMin="8" yMin="-10" xMax="642" yMax="799">
      <contour>
        <pt x="231" y="669" on="1"/>
        <pt x="386" y="799" on="1"/>
        <pt x="469" y="769" on="1"/>
        <pt x="469" y="750" on="1"/>
        <pt x="251" y="645" on="1"/>
      </contour>
      <contour>
        <pt x="561" y="143" on="0"/>
        <pt x="463" y="-10" on="0"/>
        <pt x="331" y="-10" on="1"/>
        <pt x="236" y="-10" on="0"/>
        <pt x="133" y="62" on="0"/>
        <pt x="97" y="181" on="0"/>
        <pt x="97" y="264" on="1"/>
        <pt x="97" y="554" on="1"/>
        <pt x="8" y="575" on="1"/>
        <pt x="8" y="612" on="1"/>
        <pt x="285" y="612" on="1"/>
        <pt x="285" y="575" on="1"/>
        <pt x="196" y="554" on="1"/>
        <pt x="196" y="264" on="1"/>
        <pt x="196" y="161" on="0"/>
        <pt x="255" y="48" on="0"/>
        <pt x="340" y="48" on="1"/>
        <pt x="423" y="48" on="0"/>
        <pt x="498" y="150" on="0"/>
        <pt x="498" y="239" on="1"/>
        <pt x="498" y="555" on="1"/>
        <pt x="413" y="575" on="1"/>
        <pt x="413" y="612" on="1"/>
        <pt x="642" y="612" on="1"/>
        <pt x="642" y="575" on="1"/>
        <pt x="561" y="555" on="1"/>
        <pt x="561" y="236" on="1"/>
      </contour>
    </TTGlyph>
    <TTGlyph name="Ubreve" xMin="8" yMin="-10" xMax="642" yMax="783">
      <component glyphName=".ttfautohint" x="8" y="0" flags="0x0"/>
      <component glyphName="U" x="0" y="0" flags="0x0"/>
      <component glyphName="uni0306" x="456" y="0" flags="0x0"/>
    </TTGlyph>
    <TTGlyph name="Ucircumflex" xMin="8" yMin="-10" xMax="642" yMax="800">
      <contour>
        <pt x="343" y="728" on="1"/>
        <pt x="227" y="648" on="1"/>
        <pt x="208" y="668" on="1"/>
        <pt x="311" y="800" on="1"/>
        <pt x="378" y="800" on="1"/>
        <pt x="483" y="668" on="1"/>
        <pt x="463" y="648" on="1"/>
      </contour>
      <contour>
        <pt x="561" y="143" on="0"/>
        <pt x="463" y="-10" on="0"/>
        <pt x="331" y="-10" on="1"/>
        <pt x="236" y="-10" on="0"/>
        <pt x="133" y="62" on="0"/>
        <pt x="97" y="181" on="0"/>
        <pt x="97" y="264" on="1"/>
        <pt x="97" y="554" on="1"/>
        <pt x="8" y="575" on="1"/>
        <pt x="8" y="612" on="1"/>
        <pt x="285" y="612" on="1"/>
        <pt x="285" y="575" on="1"/>
        <pt x="196" y="554" on="1"/>
        <pt x="196" y="264" on="1"/>
        <pt x="196" y="161" on="0"/>
        <pt x="255" y="48" on="0"/>
        <pt x="340" y="48" on="1"/>
        <pt x="423" y="48" on="0"/>
        <pt x="498" y="150" on="0"/>
        <pt x="498" y="239" on="1"/>
        <pt x="498" y="555" on="1"/>
        <pt x="413" y="575" on="1"/>
        <pt x="413" y="612" on="1"/>
        <pt x="642" y="612" on="1"/>
        <pt x="642" y="575" on="1"/>
        <pt x="561" y="555" on="1"/>
        <pt x="561" y="236" on="1"/>
      </contour>
    </TTGlyph>
    <TTGlyph name="Udieresis" xMin="8" yMin="-10" xMax="642" yMax="784">
      <contour>
        <pt x="306" y="696" on="0"/>
        <pt x="269" y="661" on="0"/>
        <pt x="243" y="661" on="1"/>
        <pt x="218" y="661" on="0"/>
        <pt x="180" y="696" on="0"/>
        <pt x="180" y="721" on="1"/>
        <pt x="180" y="747" on="0"/>
        <pt x="218" y="784" on="0"/>
        <pt x="243" y="784" on="1"/>
        <pt x="269" y="784" on="0"/>
        <pt x="306" y="747" on="0"/>
        <pt x="306" y="721" on="1"/>
      </contour>
      <contour>
        <pt x="512" y="696" on="0"/>
        <pt x="474" y="661" on="0"/>
        <pt x="449" y="661" on="1"/>
        <pt x="423" y="661" on="0"/>
        <pt x="386" y="696" on="0"/>
        <pt x="386" y="721" on="1"/>
        <pt x="386" y="747" on="0"/>
        <pt x="423" y="784" on="0"/>
        <pt x="449" y="784" on="1"/>
        <pt x="474" y="784" on="0"/>
        <pt x="512" y="747" on="0"/>
        <pt x="512" y="721" on="1"/>
      </contour>
      <contour>
        <pt x="561" y="143" on="0"/>
        <pt x="463" y="-10" on="0"/>
        <pt x="331" y="-10" on="1"/>
        <pt x="236" y="-10" on="0"/>
        <pt x="133" y="62" on="0"/>
        <pt x="97" y="181" on="0"/>
        <pt x="97" y="264" on="1"/>
        <pt x="97" y="554" on="1"/>
        <pt x="8" y="575" on="1"/>
        <pt x="8" y="612" on="1"/>
        <pt x="285" y="612" on="1"/>
        <pt x="285" y="575" on="1"/>
        <pt x="196" y="554" on="1"/>
        <pt x="196" y="264" on="1"/>
        <pt x="196" y="161" on="0"/>
        <pt x="255" y="48" on="0"/>
        <pt x="340" y="48" on="1"/>
        <pt x="423" y="48" on="0"/>
        <pt x="498" y="150" on="0"/>
        <pt x="498" y="239" on="1"/>
        <pt x="498" y="555" on="1"/>
        <pt x="413" y="575" on="1"/>
        <pt x="413" y="612" on="1"/>
        <pt x="642" y="612" on="1"/>
        <pt x="642" y="575" on="1"/>
        <pt x="561" y="555" on="1"/>
        <pt x="561" y="236" on="1"/>
      </contour>
    </TTGlyph>
    <TTGlyph name="Ugrave" xMin="8" yMin="-10" xMax="642" yMax="799">
      <contour>
        <pt x="182" y="750" on="1"/>
        <pt x="183" y="769" on="1"/>
        <pt x="266" y="799" on="1"/>
        <pt x="419" y="669" on="1"/>
        <pt x="402" y="645" on="1"/>
      </contour>
      <contour>
        <pt x="561" y="143" on="0"/>
        <pt x="463" y="-10" on="0"/>
        <pt x="331" y="-10" on="1"/>
        <pt x="236" y="-10" on="0"/>
        <pt x="133" y="62" on="0"/>
        <pt x="97" y="181" on="0"/>
        <pt x="97" y="264" on="1"/>
        <pt x="97" y="554" on="1"/>
        <pt x="8" y="575" on="1"/>
        <pt x="8" y="612" on="1"/>
        <pt x="285" y="612" on="1"/>
        <pt x="285" y="575" on="1"/>
        <pt x="196" y="554" on="1"/>
        <pt x="196" y="264" on="1"/>
        <pt x="196" y="161" on="0"/>
        <pt x="255" y="48" on="0"/>
        <pt x="340" y="48" on="1"/>
        <pt x="423" y="48" on="0"/>
        <pt x="498" y="150" on="0"/>
        <pt x="498" y="239" on="1"/>
        <pt x="498" y="555" on="1"/>
        <pt x="413" y="575" on="1"/>
        <pt x="413" y="612" on="1"/>
        <pt x="642" y="612" on="1"/>
        <pt x="642" y="575" on="1"/>
        <pt x="561" y="555" on="1"/>
        <pt x="561" y="236" on="1"/>
      </contour>
    </TTGlyph>
    <TTGlyph name="Uhorn" xMin="8" yMin="-10" xMax="693" yMax="733">
      <contour>
        <pt x="693" y="646" on="0"/>
        <pt x="654" y="601" on="0"/>
        <pt x="620" y="587" on="1"/>
        <pt x="561" y="555" on="1"/>
        <pt x="561" y="236" on="1"/>
        <pt x="561" y="143" on="0"/>
        <pt x="463" y="-10" on="0"/>
        <pt x="331" y="-10" on="1"/>
        <pt x="236" y="-10" on="0"/>
        <pt x="133" y="62" on="0"/>
        <pt x="97" y="181" on="0"/>
        <pt x="97" y="264" on="1"/>
        <pt x="97" y="554" on="1"/>
        <pt x="8" y="575" on="1"/>
        <pt x="8" y="612" on="1"/>
        <pt x="285" y="612" on="1"/>
        <pt x="285" y="575" on="1"/>
        <pt x="196" y="554" on="1"/>
        <pt x="196" y="264" on="1"/>
        <pt x="196" y="161" on="0"/>
        <pt x="255" y="48" on="0"/>
        <pt x="340" y="48" on="1"/>
        <pt x="423" y="48" on="0"/>
        <pt x="498" y="150" on="0"/>
        <pt x="498" y="239" on="1"/>
        <pt x="498" y="555" on="1"/>
        <pt x="413" y="575" on="1"/>
        <pt x="413" y="612" on="1"/>
        <pt x="543" y="612" on="1"/>
        <pt x="574" y="612" on="0"/>
        <pt x="606" y="634" on="0"/>
        <pt x="606" y="665" on="1"/>
        <pt x="606" y="684" on="0"/>
        <pt x="601" y="706" on="1"/>
        <pt x="607" y="719" on="1"/>
        <pt x="680" y="733" on="1"/>
        <pt x="686" y="720" on="0"/>
        <pt x="693" y="688" on="0"/>
        <pt x="693" y="676" on="1"/>
      </contour>
    </TTGlyph>
    <TTGlyph name="Uhungarumlaut" xMin="8" yMin="-10" xMax="642" yMax="804">
      <contour>
        <pt x="211" y="663" on="1"/>
        <pt x="291" y="804" on="1"/>
        <pt x="371" y="804" on="1"/>
        <pt x="371" y="786" on="1"/>
        <pt x="236" y="646" on="1"/>
      </contour>
      <contour>
        <pt x="372" y="663" on="1"/>
        <pt x="452" y="804" on="1"/>
        <pt x="532" y="804" on="1"/>
        <pt x="532" y="786" on="1"/>
        <pt x="397" y="646" on="1"/>
      </contour>
      <contour>
        <pt x="561" y="143" on="0"/>
        <pt x="463" y="-10" on="0"/>
        <pt x="331" y="-10" on="1"/>
        <pt x="236" y="-10" on="0"/>
        <pt x="133" y="62" on="0"/>
        <pt x="97" y="181" on="0"/>
        <pt x="97" y="264" on="1"/>
        <pt x="97" y="554" on="1"/>
        <pt x="8" y="575" on="1"/>
        <pt x="8" y="612" on="1"/>
        <pt x="285" y="612" on="1"/>
        <pt x="285" y="575" on="1"/>
        <pt x="196" y="554" on="1"/>
        <pt x="196" y="264" on="1"/>
        <pt x="196" y="161" on="0"/>
        <pt x="255" y="48" on="0"/>
        <pt x="340" y="48" on="1"/>
        <pt x="423" y="48" on="0"/>
        <pt x="498" y="150" on="0"/>
        <pt x="498" y="239" on="1"/>
        <pt x="498" y="555" on="1"/>
        <pt x="413" y="575" on="1"/>
        <pt x="413" y="612" on="1"/>
        <pt x="642" y="612" on="1"/>
        <pt x="642" y="575" on="1"/>
        <pt x="561" y="555" on="1"/>
        <pt x="561" y="236" on="1"/>
      </contour>
    </TTGlyph>
    <TTGlyph name="Umacron" xMin="8" yMin="-10" xMax="642" yMax="752">
      <contour>
        <pt x="458" y="752" on="1"/>
        <pt x="458" y="691" on="1"/>
        <pt x="234" y="691" on="1"/>
        <pt x="234" y="752" on="1"/>
      </contour>
      <contour>
        <pt x="561" y="143" on="0"/>
        <pt x="463" y="-10" on="0"/>
        <pt x="331" y="-10" on="1"/>
        <pt x="236" y="-10" on="0"/>
        <pt x="133" y="62" on="0"/>
        <pt x="97" y="181" on="0"/>
        <pt x="97" y="264" on="1"/>
        <pt x="97" y="554" on="1"/>
        <pt x="8" y="575" on="1"/>
        <pt x="8" y="612" on="1"/>
        <pt x="285" y="612" on="1"/>
        <pt x="285" y="575" on="1"/>
        <pt x="196" y="554" on="1"/>
        <pt x="196" y="264" on="1"/>
        <pt x="196" y="161" on="0"/>
        <pt x="255" y="48" on="0"/>
        <pt x="340" y="48" on="1"/>
        <pt x="423" y="48" on="0"/>
        <pt x="498" y="150" on="0"/>
        <pt x="498" y="239" on="1"/>
        <pt x="498" y="555" on="1"/>
        <pt x="413" y="575" on="1"/>
        <pt x="413" y="612" on="1"/>
        <pt x="642" y="612" on="1"/>
        <pt x="642" y="575" on="1"/>
        <pt x="561" y="555" on="1"/>
        <pt x="561" y="236" on="1"/>
      </contour>
    </TTGlyph>
    <TTGlyph name="Uogonek" xMin="8" yMin="-235" xMax="642" yMax="612">
      <contour>
        <pt x="317" y="-235" on="0"/>
        <pt x="269" y="-185" on="0"/>
        <pt x="269" y="-150" on="1"/>
        <pt x="269" y="-112" on="0"/>
        <pt x="310" y="-37" on="0"/>
        <pt x="350" y="-8" on="1"/>
        <pt x="331" y="-10" on="1"/>
        <pt x="236" y="-10" on="0"/>
        <pt x="133" y="62" on="0"/>
        <pt x="97" y="181" on="0"/>
        <pt x="97" y="264" on="1"/>
        <pt x="97" y="554" on="1"/>
        <pt x="8" y="575" on="1"/>
        <pt x="8" y="612" on="1"/>
        <pt x="285" y="612" on="1"/>
        <pt x="285" y="575" on="1"/>
        <pt x="196" y="554" on="1"/>
        <pt x="196" y="264" on="1"/>
        <pt x="196" y="161" on="0"/>
        <pt x="255" y="48" on="0"/>
        <pt x="340" y="48" on="1"/>
        <pt x="423" y="48" on="0"/>
        <pt x="498" y="150" on="0"/>
        <pt x="498" y="239" on="1"/>
        <pt x="498" y="555" on="1"/>
        <pt x="413" y="575" on="1"/>
        <pt x="413" y="612" on="1"/>
        <pt x="642" y="612" on="1"/>
        <pt x="642" y="575" on="1"/>
        <pt x="561" y="555" on="1"/>
        <pt x="561" y="236" on="1"/>
        <pt x="561" y="166" on="0"/>
        <pt x="503" y="35" on="0"/>
        <pt x="428" y="7" on="1"/>
        <pt x="384" y="-11" on="0"/>
        <pt x="342" y="-87" on="0"/>
        <pt x="342" y="-131" on="1"/>
        <pt x="342" y="-157" on="0"/>
        <pt x="369" y="-186" on="0"/>
        <pt x="393" y="-186" on="1"/>
        <pt x="421" y="-186" on="0"/>
        <pt x="446" y="-164" on="1"/>
        <pt x="465" y="-181" on="1"/>
        <pt x="465" y="-183" on="0"/>
        <pt x="440" y="-211" on="0"/>
        <pt x="396" y="-235" on="0"/>
        <pt x="366" y="-235" on="1"/>
      </contour>
    </TTGlyph>
    <TTGlyph name="Uring" xMin="8" yMin="-10" xMax="642" yMax="821">
      <contour>
        <pt x="300" y="631" on="0"/>
        <pt x="246" y="684" on="0"/>
        <pt x="246" y="726" on="1"/>
        <pt x="246" y="767" on="0"/>
        <pt x="300" y="821" on="0"/>
        <pt x="350" y="821" on="1"/>
        <pt x="400" y="821" on="0"/>
        <pt x="455" y="767" on="0"/>
        <pt x="455" y="726" on="1"/>
        <pt x="455" y="684" on="0"/>
        <pt x="401" y="631" on="0"/>
        <pt x="350" y="631" on="1"/>
      </contour>
      <contour>
        <pt x="379" y="670" on="0"/>
        <pt x="398" y="698" on="0"/>
        <pt x="398" y="726" on="1"/>
        <pt x="398" y="753" on="0"/>
        <pt x="379" y="783" on="0"/>
        <pt x="350" y="783" on="1"/>
        <pt x="322" y="783" on="0"/>
        <pt x="303" y="753" on="0"/>
        <pt x="303" y="726" on="1"/>
        <pt x="303" y="698" on="0"/>
        <pt x="322" y="670" on="0"/>
        <pt x="350" y="670" on="1"/>
      </contour>
      <contour>
        <pt x="236" y="-10" on="0"/>
        <pt x="133" y="62" on="0"/>
        <pt x="97" y="181" on="0"/>
        <pt x="97" y="264" on="1"/>
        <pt x="97" y="554" on="1"/>
        <pt x="8" y="575" on="1"/>
        <pt x="8" y="612" on="1"/>
        <pt x="285" y="612" on="1"/>
        <pt x="285" y="575" on="1"/>
        <pt x="196" y="554" on="1"/>
        <pt x="196" y="264" on="1"/>
        <pt x="196" y="161" on="0"/>
        <pt x="255" y="48" on="0"/>
        <pt x="340" y="48" on="1"/>
        <pt x="423" y="48" on="0"/>
        <pt x="498" y="150" on="0"/>
        <pt x="498" y="239" on="1"/>
        <pt x="498" y="555" on="1"/>
        <pt x="413" y="575" on="1"/>
        <pt x="413" y="612" on="1"/>
        <pt x="642" y="612" on="1"/>
        <pt x="642" y="575" on="1"/>
        <pt x="561" y="555" on="1"/>
        <pt x="561" y="236" on="1"/>
        <pt x="561" y="143" on="0"/>
        <pt x="463" y="-10" on="0"/>
        <pt x="331" y="-10" on="1"/>
      </contour>
    </TTGlyph>
    <TTGlyph name="Utilde" xMin="8" yMin="-10" xMax="642" yMax="803">
      <contour>
        <pt x="482" y="737" on="0"/>
        <pt x="448" y="687" on="0"/>
        <pt x="425" y="687" on="1"/>
        <pt x="401" y="687" on="0"/>
        <pt x="344" y="708" on="1"/>
        <pt x="323" y="715" on="0"/>
        <pt x="284" y="726" on="0"/>
        <pt x="273" y="726" on="1"/>
        <pt x="263" y="726" on="0"/>
        <pt x="243" y="711" on="0"/>
        <pt x="231" y="695" on="0"/>
        <pt x="229" y="692" on="1"/>
        <pt x="194" y="706" on="1"/>
        <pt x="212" y="752" on="0"/>
        <pt x="249" y="803" on="0"/>
        <pt x="272" y="803" on="1"/>
        <pt x="292" y="803" on="0"/>
        <pt x="350" y="783" on="1"/>
        <pt x="403" y="764" on="0"/>
        <pt x="424" y="764" on="1"/>
        <pt x="435" y="764" on="0"/>
        <pt x="454" y="779" on="0"/>
        <pt x="466" y="795" on="0"/>
        <pt x="467" y="798" on="1"/>
        <pt x="502" y="784" on="1"/>
      </contour>
      <contour>
        <pt x="561" y="143" on="0"/>
        <pt x="463" y="-10" on="0"/>
        <pt x="331" y="-10" on="1"/>
        <pt x="236" y="-10" on="0"/>
        <pt x="133" y="62" on="0"/>
        <pt x="97" y="181" on="0"/>
        <pt x="97" y="264" on="1"/>
        <pt x="97" y="554" on="1"/>
        <pt x="8" y="575" on="1"/>
        <pt x="8" y="612" on="1"/>
        <pt x="285" y="612" on="1"/>
        <pt x="285" y="575" on="1"/>
        <pt x="196" y="554" on="1"/>
        <pt x="196" y="264" on="1"/>
        <pt x="196" y="159" on="0"/>
        <pt x="255" y="45" on="0"/>
        <pt x="340" y="45" on="1"/>
        <pt x="423" y="45" on="0"/>
        <pt x="498" y="148" on="0"/>
        <pt x="498" y="239" on="1"/>
        <pt x="498" y="555" on="1"/>
        <pt x="413" y="575" on="1"/>
        <pt x="413" y="612" on="1"/>
        <pt x="642" y="612" on="1"/>
        <pt x="642" y="575" on="1"/>
        <pt x="561" y="555" on="1"/>
        <pt x="561" y="236" on="1"/>
      </contour>
    </TTGlyph>
    <TTGlyph name="V" xMin="2" yMin="-10" xMax="597" yMax="612">
      <contour>
        <pt x="74" y="554" on="1"/>
        <pt x="2" y="575" on="1"/>
        <pt x="2" y="612" on="1"/>
        <pt x="238" y="612" on="1"/>
        <pt x="238" y="575" on="1"/>
        <pt x="177" y="555" on="1"/>
        <pt x="317" y="147" on="1"/>
        <pt x="322" y="125" on="1"/>
        <pt x="327" y="147" on="1"/>
        <pt x="458" y="554" on="1"/>
        <pt x="388" y="575" on="1"/>
        <pt x="388" y="612" on="1"/>
        <pt x="597" y="612" on="1"/>
        <pt x="597" y="576" on="1"/>
        <pt x="525" y="554" on="1"/>
        <pt x="338" y="2" on="1"/>
        <pt x="271" y="-10" on="1"/>
      </contour>
    </TTGlyph>
    <TTGlyph name="W" xMin="-18" yMin="-9" xMax="788" yMax="612">
      <contour>
        <pt x="788" y="612" on="1"/>
        <pt x="788" y="576" on="1"/>
        <pt x="716" y="554" on="1"/>
        <pt x="582" y="2" on="1"/>
        <pt x="520" y="-9" on="1"/>
        <pt x="386" y="412" on="1"/>
        <pt x="268" y="2" on="1"/>
        <pt x="207" y="-9" on="1"/>
        <pt x="54" y="554" on="1"/>
        <pt x="-18" y="575" on="1"/>
        <pt x="-18" y="612" on="1"/>
        <pt x="220" y="612" on="1"/>
        <pt x="220" y="575" on="1"/>
        <pt x="159" y="555" on="1"/>
        <pt x="253" y="164" on="1"/>
        <pt x="355" y="552" on="1"/>
        <pt x="439" y="568" on="1"/>
        <pt x="559" y="156" on="1"/>
        <pt x="648" y="554" on="1"/>
        <pt x="577" y="575" on="1"/>
        <pt x="577" y="612" on="1"/>
      </contour>
    </TTGlyph>
    <TTGlyph name="Wacute" xMin="-18" yMin="-9" xMax="788" yMax="799">
      <component glyphName=".ttfautohint" x="0" y="0" flags="0x0"/>
      <component glyphName="W" x="0" y="0" flags="0x0"/>
      <component glyphName="acutecomb" x="561" y="0" flags="0x0"/>
    </TTGlyph>
    <TTGlyph name="Wcircumflex" xMin="-18" yMin="-9" xMax="788" yMax="800">
      <component glyphName=".ttfautohint" x="0" y="0" flags="0x0"/>
      <component glyphName="W" x="0" y="0" flags="0x0"/>
      <component glyphName="uni0302" x="505" y="0" flags="0x0"/>
    </TTGlyph>
    <TTGlyph name="Wdieresis" xMin="-18" yMin="-9" xMax="788" yMax="784">
      <component glyphName=".ttfautohint" x="0" y="0" flags="0x0"/>
      <component glyphName="W" x="0" y="0" flags="0x0"/>
      <component glyphName="uni0308" x="504" y="0" flags="0x0"/>
    </TTGlyph>
    <TTGlyph name="Wgrave" xMin="-18" yMin="-9" xMax="788" yMax="799">
      <component glyphName=".ttfautohint" x="0" y="0" flags="0x0"/>
      <component glyphName="W" x="0" y="0" flags="0x0"/>
      <component glyphName="gravecomb" x="449" y="0" flags="0x0"/>
    </TTGlyph>
    <TTGlyph name="X" xMin="3" yMin="0" xMax="579" yMax="612">
      <contour>
        <pt x="216" y="0" on="1"/>
        <pt x="3" y="0" on="1"/>
        <pt x="3" y="37" on="1"/>
        <pt x="71" y="57" on="1"/>
        <pt x="235" y="306" on="1"/>
        <pt x="76" y="555" on="1"/>
        <pt x="9" y="575" on="1"/>
        <pt x="9" y="612" on="1"/>
        <pt x="251" y="612" on="1"/>
        <pt x="251" y="574" on="1"/>
        <pt x="189" y="555" on="1"/>
        <pt x="307" y="371" on="1"/>
        <pt x="426" y="555" on="1"/>
        <pt x="357" y="574" on="1"/>
        <pt x="357" y="612" on="1"/>
        <pt x="570" y="612" on="1"/>
        <pt x="570" y="575" on="1"/>
        <pt x="502" y="555" on="1"/>
        <pt x="343" y="315" on="1"/>
        <pt x="508" y="56" on="1"/>
        <pt x="579" y="37" on="1"/>
        <pt x="579" y="0" on="1"/>
        <pt x="335" y="0" on="1"/>
        <pt x="335" y="38" on="1"/>
        <pt x="395" y="56" on="1"/>
        <pt x="271" y="248" on="1"/>
        <pt x="147" y="57" on="1"/>
        <pt x="216" y="37" on="1"/>
      </contour>
    </TTGlyph>
    <TTGlyph name="Y" xMin="11" yMin="0" xMax="572" yMax="612">
      <contour>
        <pt x="361" y="612" on="1"/>
        <pt x="572" y="612" on="1"/>
        <pt x="572" y="576" on="1"/>
        <pt x="500" y="554" on="1"/>
        <pt x="340" y="234" on="1"/>
        <pt x="340" y="58" on="1"/>
        <pt x="441" y="37" on="1"/>
        <pt x="441" y="0" on="1"/>
        <pt x="142" y="0" on="1"/>
        <pt x="142" y="37" on="1"/>
        <pt x="242" y="58" on="1"/>
        <pt x="242" y="234" on="1"/>
        <pt x="80" y="554" on="1"/>
        <pt x="11" y="575" on="1"/>
        <pt x="11" y="612" on="1"/>
        <pt x="254" y="612" on="1"/>
        <pt x="254" y="575" on="1"/>
        <pt x="193" y="554" on="1"/>
        <pt x="312" y="311" on="1"/>
        <pt x="432" y="555" on="1"/>
        <pt x="361" y="575" on="1"/>
      </contour>
    </TTGlyph>
    <TTGlyph name="Y.loclGUA" xMin="-1" yMin="-167" xMax="655" yMax="612">
      <contour>
        <pt x="219" y="-95" on="0"/>
        <pt x="286" y="-110" on="0"/>
        <pt x="313" y="-110" on="1"/>
        <pt x="393" y="-110" on="0"/>
        <pt x="475" y="-29" on="0"/>
        <pt x="475" y="61" on="1"/>
        <pt x="475" y="110" on="1"/>
        <pt x="413" y="53" on="0"/>
        <pt x="313" y="53" on="1"/>
        <pt x="221" y="53" on="0"/>
        <pt x="123" y="124" on="0"/>
        <pt x="88" y="244" on="0"/>
        <pt x="88" y="331" on="1"/>
        <pt x="88" y="554" on="1"/>
        <pt x="-1" y="575" on="1"/>
        <pt x="-1" y="612" on="1"/>
        <pt x="275" y="612" on="1"/>
        <pt x="275" y="575" on="1"/>
        <pt x="186" y="554" on="1"/>
        <pt x="186" y="331" on="1"/>
        <pt x="186" y="224" on="0"/>
        <pt x="242" y="107" on="0"/>
        <pt x="324" y="107" on="1"/>
        <pt x="384" y="107" on="0"/>
        <pt x="457" y="156" on="0"/>
        <pt x="475" y="193" on="1"/>
        <pt x="475" y="554" on="1"/>
        <pt x="386" y="575" on="1"/>
        <pt x="386" y="612" on="1"/>
        <pt x="655" y="612" on="1"/>
        <pt x="655" y="575" on="1"/>
        <pt x="567" y="554" on="1"/>
        <pt x="567" y="62" on="1"/>
        <pt x="567" y="-3" on="0"/>
        <pt x="511" y="-107" on="0"/>
        <pt x="398" y="-167" on="0"/>
        <pt x="316" y="-167" on="1"/>
        <pt x="259" y="-167" on="0"/>
        <pt x="164" y="-146" on="0"/>
        <pt x="118" y="-123" on="1"/>
        <pt x="135" y="0" on="1"/>
        <pt x="174" y="0" on="1"/>
        <pt x="195" y="-82" on="1"/>
      </contour>
    </TTGlyph>
    <TTGlyph name="Yacute" xMin="6" yMin="0" xMax="566" yMax="799">
      <contour>
        <pt x="195" y="669" on="1"/>
        <pt x="349" y="799" on="1"/>
        <pt x="432" y="769" on="1"/>
        <pt x="432" y="750" on="1"/>
        <pt x="214" y="645" on="1"/>
      </contour>
      <contour>
        <pt x="356" y="612" on="1"/>
        <pt x="566" y="612" on="1"/>
        <pt x="566" y="576" on="1"/>
        <pt x="495" y="554" on="1"/>
        <pt x="335" y="234" on="1"/>
        <pt x="335" y="58" on="1"/>
        <pt x="435" y="37" on="1"/>
        <pt x="435" y="0" on="1"/>
        <pt x="137" y="0" on="1"/>
        <pt x="137" y="37" on="1"/>
        <pt x="237" y="58" on="1"/>
        <pt x="237" y="234" on="1"/>
        <pt x="74" y="554" on="1"/>
        <pt x="6" y="575" on="1"/>
        <pt x="6" y="612" on="1"/>
        <pt x="248" y="612" on="1"/>
        <pt x="248" y="575" on="1"/>
        <pt x="187" y="554" on="1"/>
        <pt x="306" y="311" on="1"/>
        <pt x="427" y="555" on="1"/>
        <pt x="356" y="575" on="1"/>
      </contour>
    </TTGlyph>
    <TTGlyph name="Yacute.loclGUA" xMin="5" yMin="-167" xMax="661" yMax="799">
      <contour>
        <pt x="245" y="669" on="1"/>
        <pt x="399" y="799" on="1"/>
        <pt x="483" y="769" on="1"/>
        <pt x="483" y="750" on="1"/>
        <pt x="264" y="645" on="1"/>
      </contour>
      <contour>
        <pt x="225" y="-95" on="0"/>
        <pt x="293" y="-110" on="0"/>
        <pt x="320" y="-110" on="1"/>
        <pt x="399" y="-110" on="0"/>
        <pt x="481" y="-29" on="0"/>
        <pt x="481" y="61" on="1"/>
        <pt x="481" y="110" on="1"/>
        <pt x="419" y="53" on="0"/>
        <pt x="319" y="53" on="1"/>
        <pt x="228" y="53" on="0"/>
        <pt x="129" y="124" on="0"/>
        <pt x="94" y="244" on="0"/>
        <pt x="94" y="331" on="1"/>
        <pt x="94" y="554" on="1"/>
        <pt x="5" y="575" on="1"/>
        <pt x="5" y="612" on="1"/>
        <pt x="281" y="612" on="1"/>
        <pt x="281" y="575" on="1"/>
        <pt x="192" y="554" on="1"/>
        <pt x="192" y="331" on="1"/>
        <pt x="192" y="224" on="0"/>
        <pt x="249" y="107" on="0"/>
        <pt x="330" y="107" on="1"/>
        <pt x="438" y="107" on="0"/>
        <pt x="481" y="193" on="1"/>
        <pt x="481" y="554" on="1"/>
        <pt x="393" y="575" on="1"/>
        <pt x="393" y="612" on="1"/>
        <pt x="661" y="612" on="1"/>
        <pt x="661" y="575" on="1"/>
        <pt x="573" y="554" on="1"/>
        <pt x="573" y="62" on="1"/>
        <pt x="573" y="-3" on="0"/>
        <pt x="517" y="-107" on="0"/>
        <pt x="404" y="-167" on="0"/>
        <pt x="322" y="-167" on="1"/>
        <pt x="265" y="-167" on="0"/>
        <pt x="170" y="-146" on="0"/>
        <pt x="124" y="-123" on="1"/>
        <pt x="141" y="0" on="1"/>
        <pt x="180" y="0" on="1"/>
        <pt x="201" y="-82" on="1"/>
      </contour>
    </TTGlyph>
    <TTGlyph name="Ycircumflex" xMin="6" yMin="0" xMax="566" yMax="800">
      <contour>
        <pt x="295" y="728" on="1"/>
        <pt x="180" y="648" on="1"/>
        <pt x="160" y="668" on="1"/>
        <pt x="263" y="800" on="1"/>
        <pt x="331" y="800" on="1"/>
        <pt x="435" y="668" on="1"/>
        <pt x="415" y="648" on="1"/>
      </contour>
      <contour>
        <pt x="356" y="612" on="1"/>
        <pt x="566" y="612" on="1"/>
        <pt x="566" y="576" on="1"/>
        <pt x="495" y="554" on="1"/>
        <pt x="335" y="234" on="1"/>
        <pt x="335" y="58" on="1"/>
        <pt x="435" y="37" on="1"/>
        <pt x="435" y="0" on="1"/>
        <pt x="137" y="0" on="1"/>
        <pt x="137" y="37" on="1"/>
        <pt x="237" y="58" on="1"/>
        <pt x="237" y="234" on="1"/>
        <pt x="74" y="554" on="1"/>
        <pt x="6" y="575" on="1"/>
        <pt x="6" y="612" on="1"/>
        <pt x="248" y="612" on="1"/>
        <pt x="248" y="575" on="1"/>
        <pt x="187" y="554" on="1"/>
        <pt x="306" y="311" on="1"/>
        <pt x="427" y="555" on="1"/>
        <pt x="356" y="575" on="1"/>
      </contour>
    </TTGlyph>
    <TTGlyph name="Ycircumflex.loclGUA" xMin="5" yMin="-167" xMax="661" yMax="800">
      <contour>
        <pt x="206" y="668" on="1"/>
        <pt x="309" y="800" on="1"/>
        <pt x="376" y="800" on="1"/>
        <pt x="481" y="668" on="1"/>
        <pt x="461" y="648" on="1"/>
        <pt x="341" y="728" on="1"/>
        <pt x="225" y="648" on="1"/>
      </contour>
      <contour>
        <pt x="265" y="-167" on="0"/>
        <pt x="170" y="-146" on="0"/>
        <pt x="124" y="-123" on="1"/>
        <pt x="141" y="0" on="1"/>
        <pt x="180" y="0" on="1"/>
        <pt x="201" y="-82" on="1"/>
        <pt x="225" y="-95" on="0"/>
        <pt x="293" y="-110" on="0"/>
        <pt x="320" y="-110" on="1"/>
        <pt x="399" y="-110" on="0"/>
        <pt x="481" y="-29" on="0"/>
        <pt x="481" y="61" on="1"/>
        <pt x="481" y="110" on="1"/>
        <pt x="419" y="53" on="0"/>
        <pt x="319" y="53" on="1"/>
        <pt x="228" y="53" on="0"/>
        <pt x="129" y="124" on="0"/>
        <pt x="94" y="244" on="0"/>
        <pt x="94" y="331" on="1"/>
        <pt x="94" y="554" on="1"/>
        <pt x="5" y="575" on="1"/>
        <pt x="5" y="612" on="1"/>
        <pt x="281" y="612" on="1"/>
        <pt x="281" y="575" on="1"/>
        <pt x="192" y="554" on="1"/>
        <pt x="192" y="331" on="1"/>
        <pt x="192" y="224" on="0"/>
        <pt x="249" y="107" on="0"/>
        <pt x="330" y="107" on="1"/>
        <pt x="438" y="107" on="0"/>
        <pt x="481" y="193" on="1"/>
        <pt x="481" y="554" on="1"/>
        <pt x="393" y="575" on="1"/>
        <pt x="393" y="612" on="1"/>
        <pt x="661" y="612" on="1"/>
        <pt x="661" y="575" on="1"/>
        <pt x="573" y="554" on="1"/>
        <pt x="573" y="62" on="1"/>
        <pt x="573" y="-3" on="0"/>
        <pt x="517" y="-107" on="0"/>
        <pt x="404" y="-167" on="0"/>
        <pt x="322" y="-167" on="1"/>
      </contour>
    </TTGlyph>
    <TTGlyph name="Ydieresis" xMin="6" yMin="0" xMax="567" yMax="784">
      <contour>
        <pt x="170" y="662" on="0"/>
        <pt x="132" y="697" on="0"/>
        <pt x="132" y="722" on="1"/>
        <pt x="132" y="748" on="0"/>
        <pt x="170" y="784" on="0"/>
        <pt x="196" y="784" on="1"/>
        <pt x="221" y="784" on="0"/>
        <pt x="258" y="748" on="0"/>
        <pt x="258" y="722" on="1"/>
        <pt x="258" y="697" on="0"/>
        <pt x="221" y="662" on="0"/>
        <pt x="196" y="662" on="1"/>
      </contour>
      <contour>
        <pt x="376" y="662" on="0"/>
        <pt x="338" y="697" on="0"/>
        <pt x="338" y="722" on="1"/>
        <pt x="338" y="748" on="0"/>
        <pt x="376" y="784" on="0"/>
        <pt x="402" y="784" on="1"/>
        <pt x="427" y="784" on="0"/>
        <pt x="464" y="748" on="0"/>
        <pt x="464" y="722" on="1"/>
        <pt x="464" y="697" on="0"/>
        <pt x="427" y="662" on="0"/>
        <pt x="402" y="662" on="1"/>
      </contour>
      <contour>
        <pt x="137" y="37" on="1"/>
        <pt x="237" y="58" on="1"/>
        <pt x="237" y="234" on="1"/>
        <pt x="74" y="554" on="1"/>
        <pt x="6" y="575" on="1"/>
        <pt x="6" y="612" on="1"/>
        <pt x="249" y="612" on="1"/>
        <pt x="249" y="575" on="1"/>
        <pt x="187" y="554" on="1"/>
        <pt x="307" y="311" on="1"/>
        <pt x="428" y="555" on="1"/>
        <pt x="357" y="575" on="1"/>
        <pt x="357" y="612" on="1"/>
        <pt x="567" y="612" on="1"/>
        <pt x="567" y="576" on="1"/>
        <pt x="495" y="554" on="1"/>
        <pt x="335" y="234" on="1"/>
        <pt x="335" y="58" on="1"/>
        <pt x="435" y="37" on="1"/>
        <pt x="435" y="0" on="1"/>
        <pt x="137" y="0" on="1"/>
      </contour>
    </TTGlyph>
    <TTGlyph name="Ydieresis.loclGUA" xMin="5" yMin="-167" xMax="661" yMax="789">
      <contour>
        <pt x="304" y="701" on="0"/>
        <pt x="267" y="666" on="0"/>
        <pt x="242" y="666" on="1"/>
        <pt x="216" y="666" on="0"/>
        <pt x="178" y="701" on="0"/>
        <pt x="178" y="727" on="1"/>
        <pt x="178" y="752" on="0"/>
        <pt x="216" y="789" on="0"/>
        <pt x="242" y="789" on="1"/>
        <pt x="267" y="789" on="0"/>
        <pt x="304" y="752" on="0"/>
        <pt x="304" y="727" on="1"/>
      </contour>
      <contour>
        <pt x="510" y="701" on="0"/>
        <pt x="473" y="666" on="0"/>
        <pt x="448" y="666" on="1"/>
        <pt x="422" y="666" on="0"/>
        <pt x="384" y="701" on="0"/>
        <pt x="384" y="727" on="1"/>
        <pt x="384" y="752" on="0"/>
        <pt x="422" y="789" on="0"/>
        <pt x="448" y="789" on="1"/>
        <pt x="472" y="789" on="0"/>
        <pt x="510" y="752" on="0"/>
        <pt x="510" y="727" on="1"/>
      </contour>
      <contour>
        <pt x="225" y="-95" on="0"/>
        <pt x="293" y="-110" on="0"/>
        <pt x="320" y="-110" on="1"/>
        <pt x="399" y="-110" on="0"/>
        <pt x="481" y="-29" on="0"/>
        <pt x="481" y="61" on="1"/>
        <pt x="481" y="110" on="1"/>
        <pt x="419" y="53" on="0"/>
        <pt x="319" y="53" on="1"/>
        <pt x="228" y="53" on="0"/>
        <pt x="129" y="124" on="0"/>
        <pt x="94" y="244" on="0"/>
        <pt x="94" y="331" on="1"/>
        <pt x="94" y="554" on="1"/>
        <pt x="5" y="575" on="1"/>
        <pt x="5" y="612" on="1"/>
        <pt x="281" y="612" on="1"/>
        <pt x="281" y="575" on="1"/>
        <pt x="192" y="554" on="1"/>
        <pt x="192" y="331" on="1"/>
        <pt x="192" y="224" on="0"/>
        <pt x="249" y="107" on="0"/>
        <pt x="330" y="107" on="1"/>
        <pt x="438" y="107" on="0"/>
        <pt x="481" y="193" on="1"/>
        <pt x="481" y="554" on="1"/>
        <pt x="393" y="575" on="1"/>
        <pt x="393" y="612" on="1"/>
        <pt x="661" y="612" on="1"/>
        <pt x="661" y="575" on="1"/>
        <pt x="573" y="554" on="1"/>
        <pt x="573" y="62" on="1"/>
        <pt x="573" y="-3" on="0"/>
        <pt x="517" y="-107" on="0"/>
        <pt x="404" y="-167" on="0"/>
        <pt x="322" y="-167" on="1"/>
        <pt x="265" y="-167" on="0"/>
        <pt x="170" y="-146" on="0"/>
        <pt x="124" y="-123" on="1"/>
        <pt x="141" y="0" on="1"/>
        <pt x="180" y="0" on="1"/>
        <pt x="201" y="-82" on="1"/>
      </contour>
    </TTGlyph>
    <TTGlyph name="Ygrave" xMin="6" yMin="0" xMax="567" yMax="799">
      <contour>
        <pt x="174" y="750" on="1"/>
        <pt x="176" y="769" on="1"/>
        <pt x="259" y="799" on="1"/>
        <pt x="411" y="669" on="1"/>
        <pt x="394" y="645" on="1"/>
      </contour>
      <contour>
        <pt x="137" y="37" on="1"/>
        <pt x="237" y="58" on="1"/>
        <pt x="237" y="234" on="1"/>
        <pt x="74" y="554" on="1"/>
        <pt x="6" y="575" on="1"/>
        <pt x="6" y="612" on="1"/>
        <pt x="249" y="612" on="1"/>
        <pt x="249" y="575" on="1"/>
        <pt x="187" y="554" on="1"/>
        <pt x="307" y="311" on="1"/>
        <pt x="428" y="555" on="1"/>
        <pt x="357" y="575" on="1"/>
        <pt x="357" y="612" on="1"/>
        <pt x="567" y="612" on="1"/>
        <pt x="567" y="576" on="1"/>
        <pt x="495" y="554" on="1"/>
        <pt x="335" y="234" on="1"/>
        <pt x="335" y="58" on="1"/>
        <pt x="435" y="37" on="1"/>
        <pt x="435" y="0" on="1"/>
        <pt x="137" y="0" on="1"/>
      </contour>
    </TTGlyph>
    <TTGlyph name="Ygrave.loclGUA" xMin="5" yMin="-167" xMax="661" yMax="799">
      <contour>
        <pt x="207" y="750" on="1"/>
        <pt x="208" y="769" on="1"/>
        <pt x="291" y="799" on="1"/>
        <pt x="445" y="669" on="1"/>
        <pt x="426" y="645" on="1"/>
      </contour>
      <contour>
        <pt x="225" y="-95" on="0"/>
        <pt x="293" y="-110" on="0"/>
        <pt x="320" y="-110" on="1"/>
        <pt x="399" y="-110" on="0"/>
        <pt x="481" y="-29" on="0"/>
        <pt x="481" y="61" on="1"/>
        <pt x="481" y="110" on="1"/>
        <pt x="419" y="53" on="0"/>
        <pt x="319" y="53" on="1"/>
        <pt x="228" y="53" on="0"/>
        <pt x="129" y="124" on="0"/>
        <pt x="94" y="244" on="0"/>
        <pt x="94" y="331" on="1"/>
        <pt x="94" y="554" on="1"/>
        <pt x="5" y="575" on="1"/>
        <pt x="5" y="612" on="1"/>
        <pt x="281" y="612" on="1"/>
        <pt x="281" y="575" on="1"/>
        <pt x="192" y="554" on="1"/>
        <pt x="192" y="331" on="1"/>
        <pt x="192" y="224" on="0"/>
        <pt x="249" y="107" on="0"/>
        <pt x="330" y="107" on="1"/>
        <pt x="438" y="107" on="0"/>
        <pt x="481" y="193" on="1"/>
        <pt x="481" y="554" on="1"/>
        <pt x="393" y="575" on="1"/>
        <pt x="393" y="612" on="1"/>
        <pt x="661" y="612" on="1"/>
        <pt x="661" y="575" on="1"/>
        <pt x="573" y="554" on="1"/>
        <pt x="573" y="62" on="1"/>
        <pt x="573" y="-3" on="0"/>
        <pt x="517" y="-107" on="0"/>
        <pt x="404" y="-167" on="0"/>
        <pt x="322" y="-167" on="1"/>
        <pt x="265" y="-167" on="0"/>
        <pt x="170" y="-146" on="0"/>
        <pt x="124" y="-123" on="1"/>
        <pt x="141" y="0" on="1"/>
        <pt x="180" y="0" on="1"/>
        <pt x="201" y="-82" on="1"/>
      </contour>
    </TTGlyph>
    <TTGlyph name="Z" xMin="36" yMin="0" xMax="474" yMax="612">
      <contour>
        <pt x="463" y="0" on="1"/>
        <pt x="54" y="0" on="1"/>
        <pt x="36" y="33" on="1"/>
        <pt x="357" y="554" on="1"/>
        <pt x="132" y="554" on="1"/>
        <pt x="110" y="476" on="1"/>
        <pt x="66" y="476" on="1"/>
        <pt x="56" y="612" on="1"/>
        <pt x="469" y="612" on="1"/>
        <pt x="474" y="580" on="1"/>
        <pt x="157" y="59" on="1"/>
        <pt x="392" y="59" on="1"/>
        <pt x="429" y="152" on="1"/>
        <pt x="473" y="152" on="1"/>
      </contour>
    </TTGlyph>
    <TTGlyph name="Zacute" xMin="36" yMin="0" xMax="474" yMax="799">
      <contour>
        <pt x="161" y="669" on="1"/>
        <pt x="315" y="799" on="1"/>
        <pt x="398" y="769" on="1"/>
        <pt x="398" y="750" on="1"/>
        <pt x="180" y="645" on="1"/>
      </contour>
      <contour>
        <pt x="463" y="0" on="1"/>
        <pt x="54" y="0" on="1"/>
        <pt x="36" y="33" on="1"/>
        <pt x="357" y="554" on="1"/>
        <pt x="132" y="554" on="1"/>
        <pt x="110" y="476" on="1"/>
        <pt x="66" y="476" on="1"/>
        <pt x="56" y="612" on="1"/>
        <pt x="469" y="612" on="1"/>
        <pt x="474" y="580" on="1"/>
        <pt x="157" y="59" on="1"/>
        <pt x="392" y="59" on="1"/>
        <pt x="429" y="152" on="1"/>
        <pt x="473" y="152" on="1"/>
      </contour>
    </TTGlyph>
    <TTGlyph name="Zacute.loclPLK" xMin="36" yMin="0" xMax="474" yMax="804">
      <component glyphName=".ttfautohint" x="36" y="0" flags="0x0"/>
      <component glyphName="Z" x="0" y="0" flags="0x0"/>
      <component glyphName="acute.loclPLK.case" x="155" y="0" flags="0x0"/>
    </TTGlyph>
    <TTGlyph name="Zcaron" xMin="39" yMin="0" xMax="477" yMax="800">
      <contour>
        <pt x="138" y="780" on="1"/>
        <pt x="157" y="800" on="1"/>
        <pt x="276" y="720" on="1"/>
        <pt x="393" y="800" on="1"/>
        <pt x="412" y="780" on="1"/>
        <pt x="310" y="648" on="1"/>
        <pt x="242" y="648" on="1"/>
      </contour>
      <contour>
        <pt x="39" y="33" on="1"/>
        <pt x="360" y="554" on="1"/>
        <pt x="135" y="554" on="1"/>
        <pt x="113" y="476" on="1"/>
        <pt x="68" y="476" on="1"/>
        <pt x="59" y="612" on="1"/>
        <pt x="472" y="612" on="1"/>
        <pt x="477" y="580" on="1"/>
        <pt x="160" y="59" on="1"/>
        <pt x="395" y="59" on="1"/>
        <pt x="432" y="152" on="1"/>
        <pt x="476" y="152" on="1"/>
        <pt x="466" y="0" on="1"/>
        <pt x="57" y="0" on="1"/>
      </contour>
    </TTGlyph>
    <TTGlyph name="Zdotaccent" xMin="36" yMin="0" xMax="474" yMax="789">
      <contour>
        <pt x="336" y="695" on="0"/>
        <pt x="296" y="658" on="0"/>
        <pt x="269" y="658" on="1"/>
        <pt x="241" y="658" on="0"/>
        <pt x="201" y="695" on="0"/>
        <pt x="201" y="722" on="1"/>
        <pt x="201" y="749" on="0"/>
        <pt x="242" y="789" on="0"/>
        <pt x="269" y="789" on="1"/>
        <pt x="296" y="789" on="0"/>
        <pt x="336" y="749" on="0"/>
        <pt x="336" y="722" on="1"/>
      </contour>
      <contour>
        <pt x="463" y="0" on="1"/>
        <pt x="54" y="0" on="1"/>
        <pt x="36" y="33" on="1"/>
        <pt x="357" y="554" on="1"/>
        <pt x="132" y="554" on="1"/>
        <pt x="110" y="476" on="1"/>
        <pt x="66" y="476" on="1"/>
        <pt x="56" y="612" on="1"/>
        <pt x="469" y="612" on="1"/>
        <pt x="474" y="580" on="1"/>
        <pt x="157" y="59" on="1"/>
        <pt x="392" y="59" on="1"/>
        <pt x="429" y="152" on="1"/>
        <pt x="473" y="152" on="1"/>
      </contour>
    </TTGlyph>
    <TTGlyph name="a" xMin="38" yMin="-11" xMax="497" yMax="501">
      <contour>
        <pt x="185" y="440" on="0"/>
        <pt x="141" y="426" on="1"/>
        <pt x="118" y="341" on="1"/>
        <pt x="79" y="341" on="1"/>
        <pt x="62" y="464" on="1"/>
        <pt x="162" y="501" on="0"/>
        <pt x="255" y="501" on="1"/>
        <pt x="331" y="501" on="0"/>
        <pt x="411" y="450" on="0"/>
        <pt x="411" y="387" on="1"/>
        <pt x="411" y="66" on="1"/>
        <pt x="497" y="45" on="1"/>
        <pt x="497" y="12" on="1"/>
        <pt x="441" y="-4" on="0"/>
        <pt x="390" y="-4" on="1"/>
        <pt x="362" y="-4" on="0"/>
        <pt x="320" y="24" on="0"/>
        <pt x="314" y="50" on="1"/>
        <pt x="273" y="20" on="0"/>
        <pt x="193" y="-11" on="0"/>
        <pt x="149" y="-11" on="1"/>
        <pt x="97" y="-11" on="0"/>
        <pt x="38" y="61" on="0"/>
        <pt x="38" y="112" on="1"/>
        <pt x="38" y="160" on="0"/>
        <pt x="93" y="240" on="0"/>
        <pt x="165" y="253" on="1"/>
        <pt x="312" y="280" on="1"/>
        <pt x="312" y="360" on="1"/>
        <pt x="312" y="401" on="0"/>
        <pt x="277" y="440" on="0"/>
        <pt x="232" y="440" on="1"/>
      </contour>
      <contour>
        <pt x="139" y="200" on="0"/>
        <pt x="139" y="127" on="1"/>
        <pt x="139" y="57" on="0"/>
        <pt x="206" y="57" on="1"/>
        <pt x="249" y="57" on="0"/>
        <pt x="312" y="91" on="1"/>
        <pt x="312" y="232" on="1"/>
        <pt x="221" y="216" on="1"/>
      </contour>
    </TTGlyph>
    <TTGlyph name="aacute" xMin="38" yMin="-11" xMax="497" yMax="714">
      <component glyphName=".ttfautohint" x="38" y="0" flags="0x0"/>
      <component glyphName="a" x="0" y="0" flags="0x0"/>
      <component glyphName="acute" x="148" y="0" flags="0x0"/>
    </TTGlyph>
    <TTGlyph name="abreve" xMin="38" yMin="-11" xMax="497" yMax="699">
      <contour>
        <pt x="169" y="577" on="0"/>
        <pt x="118" y="643" on="0"/>
        <pt x="118" y="697" on="1"/>
        <pt x="159" y="699" on="1"/>
        <pt x="159" y="638" on="0"/>
        <pt x="234" y="638" on="1"/>
        <pt x="314" y="638" on="0"/>
        <pt x="314" y="699" on="1"/>
        <pt x="354" y="697" on="1"/>
        <pt x="354" y="577" on="0"/>
        <pt x="235" y="577" on="1"/>
      </contour>
      <contour>
        <pt x="185" y="440" on="0"/>
        <pt x="141" y="426" on="1"/>
        <pt x="118" y="341" on="1"/>
        <pt x="79" y="341" on="1"/>
        <pt x="62" y="464" on="1"/>
        <pt x="162" y="501" on="0"/>
        <pt x="255" y="501" on="1"/>
        <pt x="331" y="501" on="0"/>
        <pt x="411" y="450" on="0"/>
        <pt x="411" y="387" on="1"/>
        <pt x="411" y="66" on="1"/>
        <pt x="497" y="45" on="1"/>
        <pt x="497" y="12" on="1"/>
        <pt x="441" y="-4" on="0"/>
        <pt x="390" y="-4" on="1"/>
        <pt x="362" y="-4" on="0"/>
        <pt x="320" y="24" on="0"/>
        <pt x="314" y="50" on="1"/>
        <pt x="273" y="20" on="0"/>
        <pt x="193" y="-11" on="0"/>
        <pt x="149" y="-11" on="1"/>
        <pt x="97" y="-11" on="0"/>
        <pt x="38" y="61" on="0"/>
        <pt x="38" y="112" on="1"/>
        <pt x="38" y="160" on="0"/>
        <pt x="93" y="240" on="0"/>
        <pt x="165" y="253" on="1"/>
        <pt x="312" y="280" on="1"/>
        <pt x="312" y="360" on="1"/>
        <pt x="312" y="401" on="0"/>
        <pt x="277" y="440" on="0"/>
        <pt x="232" y="440" on="1"/>
      </contour>
      <contour>
        <pt x="139" y="200" on="0"/>
        <pt x="139" y="127" on="1"/>
        <pt x="139" y="57" on="0"/>
        <pt x="206" y="57" on="1"/>
        <pt x="249" y="57" on="0"/>
        <pt x="312" y="91" on="1"/>
        <pt x="312" y="232" on="1"/>
        <pt x="221" y="216" on="1"/>
      </contour>
    </TTGlyph>
    <TTGlyph name="acircumflex" xMin="38" yMin="-11" xMax="497" yMax="715">
      <contour>
        <pt x="231" y="643" on="1"/>
        <pt x="121" y="554" on="1"/>
        <pt x="95" y="576" on="1"/>
        <pt x="197" y="715" on="1"/>
        <pt x="265" y="715" on="1"/>
        <pt x="368" y="576" on="1"/>
        <pt x="342" y="554" on="1"/>
      </contour>
      <contour>
        <pt x="185" y="440" on="0"/>
        <pt x="141" y="426" on="1"/>
        <pt x="118" y="341" on="1"/>
        <pt x="79" y="341" on="1"/>
        <pt x="62" y="464" on="1"/>
        <pt x="162" y="501" on="0"/>
        <pt x="255" y="501" on="1"/>
        <pt x="331" y="501" on="0"/>
        <pt x="411" y="450" on="0"/>
        <pt x="411" y="387" on="1"/>
        <pt x="411" y="66" on="1"/>
        <pt x="497" y="45" on="1"/>
        <pt x="497" y="12" on="1"/>
        <pt x="441" y="-4" on="0"/>
        <pt x="390" y="-4" on="1"/>
        <pt x="362" y="-4" on="0"/>
        <pt x="320" y="24" on="0"/>
        <pt x="314" y="50" on="1"/>
        <pt x="273" y="20" on="0"/>
        <pt x="193" y="-11" on="0"/>
        <pt x="149" y="-11" on="1"/>
        <pt x="97" y="-11" on="0"/>
        <pt x="38" y="61" on="0"/>
        <pt x="38" y="112" on="1"/>
        <pt x="38" y="160" on="0"/>
        <pt x="93" y="240" on="0"/>
        <pt x="165" y="253" on="1"/>
        <pt x="312" y="280" on="1"/>
        <pt x="312" y="360" on="1"/>
        <pt x="312" y="401" on="0"/>
        <pt x="277" y="440" on="0"/>
        <pt x="232" y="440" on="1"/>
      </contour>
      <contour>
        <pt x="139" y="200" on="0"/>
        <pt x="139" y="127" on="1"/>
        <pt x="139" y="57" on="0"/>
        <pt x="206" y="57" on="1"/>
        <pt x="249" y="57" on="0"/>
        <pt x="312" y="91" on="1"/>
        <pt x="312" y="232" on="1"/>
        <pt x="221" y="216" on="1"/>
      </contour>
    </TTGlyph>
    <TTGlyph name="acute" xMin="8" yMin="558" xMax="246" yMax="714">
      <contour>
        <pt x="8" y="582" on="1"/>
        <pt x="163" y="714" on="1"/>
        <pt x="246" y="682" on="1"/>
        <pt x="246" y="663" on="1"/>
        <pt x="28" y="558" on="1"/>
      </contour>
    </TTGlyph>
    <TTGlyph name="acute.case" xMin="8" yMin="645" xMax="246" yMax="799">
      <contour>
        <pt x="8" y="669" on="1"/>
        <pt x="163" y="799" on="1"/>
        <pt x="246" y="769" on="1"/>
        <pt x="246" y="750" on="1"/>
        <pt x="28" y="645" on="1"/>
      </contour>
    </TTGlyph>
    <TTGlyph name="acute.loclPLK" xMin="69" yMin="546" xMax="220" yMax="720">
      <contour>
        <pt x="69" y="561" on="1"/>
        <pt x="139" y="720" on="1"/>
        <pt x="220" y="720" on="1"/>
        <pt x="220" y="702" on="1"/>
        <pt x="91" y="546" on="1"/>
      </contour>
    </TTGlyph>
    <TTGlyph name="acute.loclPLK.case" xMin="71" yMin="646" xMax="211" yMax="804">
      <contour>
        <pt x="71" y="663" on="1"/>
        <pt x="131" y="804" on="1"/>
        <pt x="211" y="804" on="1"/>
        <pt x="211" y="786" on="1"/>
        <pt x="95" y="646" on="1"/>
      </contour>
    </TTGlyph>
    <TTGlyph name="acutecomb" xMin="-247" yMin="645" xMax="-9" yMax="799">
      <contour>
        <pt x="-247" y="669" on="1"/>
        <pt x="-92" y="799" on="1"/>
        <pt x="-9" y="769" on="1"/>
        <pt x="-9" y="750" on="1"/>
        <pt x="-227" y="645" on="1"/>
      </contour>
    </TTGlyph>
    <TTGlyph name="adieresis" xMin="38" yMin="-11" xMax="497" yMax="702">
      <contour>
        <pt x="197" y="614" on="0"/>
        <pt x="160" y="579" on="0"/>
        <pt x="135" y="579" on="1"/>
        <pt x="110" y="579" on="0"/>
        <pt x="72" y="614" on="0"/>
        <pt x="72" y="639" on="1"/>
        <pt x="72" y="665" on="0"/>
        <pt x="110" y="702" on="0"/>
        <pt x="135" y="702" on="1"/>
        <pt x="160" y="702" on="0"/>
        <pt x="197" y="665" on="0"/>
        <pt x="197" y="639" on="1"/>
      </contour>
      <contour>
        <pt x="404" y="614" on="0"/>
        <pt x="366" y="579" on="0"/>
        <pt x="341" y="579" on="1"/>
        <pt x="315" y="579" on="0"/>
        <pt x="278" y="614" on="0"/>
        <pt x="278" y="639" on="1"/>
        <pt x="278" y="665" on="0"/>
        <pt x="315" y="702" on="0"/>
        <pt x="341" y="702" on="1"/>
        <pt x="366" y="702" on="0"/>
        <pt x="404" y="665" on="0"/>
        <pt x="404" y="639" on="1"/>
      </contour>
      <contour>
        <pt x="185" y="440" on="0"/>
        <pt x="141" y="426" on="1"/>
        <pt x="118" y="341" on="1"/>
        <pt x="79" y="341" on="1"/>
        <pt x="62" y="464" on="1"/>
        <pt x="162" y="501" on="0"/>
        <pt x="255" y="501" on="1"/>
        <pt x="331" y="501" on="0"/>
        <pt x="411" y="450" on="0"/>
        <pt x="411" y="387" on="1"/>
        <pt x="411" y="66" on="1"/>
        <pt x="497" y="45" on="1"/>
        <pt x="497" y="12" on="1"/>
        <pt x="441" y="-4" on="0"/>
        <pt x="390" y="-4" on="1"/>
        <pt x="362" y="-4" on="0"/>
        <pt x="320" y="24" on="0"/>
        <pt x="314" y="50" on="1"/>
        <pt x="273" y="20" on="0"/>
        <pt x="193" y="-11" on="0"/>
        <pt x="149" y="-11" on="1"/>
        <pt x="97" y="-11" on="0"/>
        <pt x="38" y="61" on="0"/>
        <pt x="38" y="112" on="1"/>
        <pt x="38" y="160" on="0"/>
        <pt x="93" y="240" on="0"/>
        <pt x="165" y="253" on="1"/>
        <pt x="312" y="280" on="1"/>
        <pt x="312" y="360" on="1"/>
        <pt x="312" y="401" on="0"/>
        <pt x="277" y="440" on="0"/>
        <pt x="232" y="440" on="1"/>
      </contour>
      <contour>
        <pt x="139" y="200" on="0"/>
        <pt x="139" y="127" on="1"/>
        <pt x="139" y="57" on="0"/>
        <pt x="206" y="57" on="1"/>
        <pt x="249" y="57" on="0"/>
        <pt x="312" y="91" on="1"/>
        <pt x="312" y="232" on="1"/>
        <pt x="221" y="216" on="1"/>
      </contour>
    </TTGlyph>
    <TTGlyph name="ae" xMin="30" yMin="-11" xMax="674" yMax="501">
      <contour>
        <pt x="85" y="-10" on="0"/>
        <pt x="30" y="61" on="0"/>
        <pt x="30" y="112" on="1"/>
        <pt x="30" y="157" on="0"/>
        <pt x="94" y="224" on="0"/>
        <pt x="164" y="237" on="1"/>
        <pt x="289" y="262" on="1"/>
        <pt x="289" y="361" on="1"/>
        <pt x="289" y="402" on="0"/>
        <pt x="256" y="440" on="0"/>
        <pt x="212" y="440" on="1"/>
        <pt x="173" y="440" on="0"/>
        <pt x="131" y="426" on="1"/>
        <pt x="109" y="342" on="1"/>
        <pt x="69" y="342" on="1"/>
        <pt x="52" y="464" on="1"/>
        <pt x="101" y="482" on="0"/>
        <pt x="187" y="501" on="0"/>
        <pt x="235" y="501" on="1"/>
        <pt x="284" y="501" on="0"/>
        <pt x="349" y="475" on="0"/>
        <pt x="366" y="446" on="1"/>
        <pt x="418" y="501" on="0"/>
        <pt x="495" y="501" on="1"/>
        <pt x="574" y="501" on="0"/>
        <pt x="674" y="412" on="0"/>
        <pt x="674" y="316" on="1"/>
        <pt x="674" y="300" on="0"/>
        <pt x="671" y="283" on="1"/>
        <pt x="383" y="231" on="1"/>
        <pt x="383" y="135" on="0"/>
        <pt x="442" y="50" on="0"/>
        <pt x="511" y="50" on="1"/>
        <pt x="578" y="50" on="0"/>
        <pt x="652" y="72" on="1"/>
        <pt x="660" y="37" on="1"/>
        <pt x="621" y="13" on="0"/>
        <pt x="539" y="-11" on="0"/>
        <pt x="486" y="-11" on="1"/>
        <pt x="420" y="-11" on="0"/>
        <pt x="346" y="28" on="0"/>
        <pt x="317" y="65" on="1"/>
        <pt x="270" y="27" on="0"/>
        <pt x="195" y="-10" on="0"/>
        <pt x="142" y="-10" on="1"/>
      </contour>
      <contour>
        <pt x="570" y="316" on="1"/>
        <pt x="570" y="372" on="0"/>
        <pt x="538" y="444" on="0"/>
        <pt x="492" y="444" on="1"/>
        <pt x="439" y="444" on="0"/>
        <pt x="389" y="362" on="0"/>
        <pt x="385" y="277" on="1"/>
      </contour>
      <contour>
        <pt x="219" y="55" on="0"/>
        <pt x="263" y="74" on="0"/>
        <pt x="289" y="93" on="1"/>
        <pt x="289" y="214" on="1"/>
        <pt x="211" y="199" on="1"/>
        <pt x="165" y="191" on="0"/>
        <pt x="129" y="157" on="0"/>
        <pt x="129" y="126" on="1"/>
        <pt x="129" y="93" on="0"/>
        <pt x="163" y="55" on="0"/>
        <pt x="195" y="55" on="1"/>
      </contour>
    </TTGlyph>
    <TTGlyph name="aeacute" xMin="30" yMin="-11" xMax="674" yMax="714">
      <component glyphName=".ttfautohint" x="30" y="0" flags="0x0"/>
      <component glyphName="ae" x="0" y="0" flags="0x0"/>
      <component glyphName="acute" x="244" y="0" flags="0x0"/>
    </TTGlyph>
    <TTGlyph name="agrave" xMin="38" yMin="-11" xMax="497" yMax="714">
      <contour>
        <pt x="101" y="663" on="1"/>
        <pt x="102" y="682" on="1"/>
        <pt x="185" y="714" on="1"/>
        <pt x="339" y="582" on="1"/>
        <pt x="322" y="558" on="1"/>
      </contour>
      <contour>
        <pt x="185" y="440" on="0"/>
        <pt x="141" y="426" on="1"/>
        <pt x="118" y="341" on="1"/>
        <pt x="79" y="341" on="1"/>
        <pt x="62" y="464" on="1"/>
        <pt x="162" y="501" on="0"/>
        <pt x="255" y="501" on="1"/>
        <pt x="331" y="501" on="0"/>
        <pt x="411" y="450" on="0"/>
        <pt x="411" y="387" on="1"/>
        <pt x="411" y="66" on="1"/>
        <pt x="497" y="45" on="1"/>
        <pt x="497" y="12" on="1"/>
        <pt x="441" y="-4" on="0"/>
        <pt x="390" y="-4" on="1"/>
        <pt x="362" y="-4" on="0"/>
        <pt x="320" y="24" on="0"/>
        <pt x="314" y="50" on="1"/>
        <pt x="273" y="20" on="0"/>
        <pt x="193" y="-11" on="0"/>
        <pt x="149" y="-11" on="1"/>
        <pt x="97" y="-11" on="0"/>
        <pt x="38" y="61" on="0"/>
        <pt x="38" y="112" on="1"/>
        <pt x="38" y="160" on="0"/>
        <pt x="93" y="240" on="0"/>
        <pt x="165" y="253" on="1"/>
        <pt x="312" y="280" on="1"/>
        <pt x="312" y="360" on="1"/>
        <pt x="312" y="401" on="0"/>
        <pt x="277" y="440" on="0"/>
        <pt x="232" y="440" on="1"/>
      </contour>
      <contour>
        <pt x="139" y="200" on="0"/>
        <pt x="139" y="127" on="1"/>
        <pt x="139" y="57" on="0"/>
        <pt x="206" y="57" on="1"/>
        <pt x="249" y="57" on="0"/>
        <pt x="312" y="91" on="1"/>
        <pt x="312" y="232" on="1"/>
        <pt x="221" y="216" on="1"/>
      </contour>
    </TTGlyph>
    <TTGlyph name="amacron" xMin="38" yMin="-11" xMax="497" yMax="668">
      <contour>
        <pt x="343" y="668" on="1"/>
        <pt x="343" y="608" on="1"/>
        <pt x="118" y="608" on="1"/>
        <pt x="118" y="668" on="1"/>
      </contour>
      <contour>
        <pt x="185" y="440" on="0"/>
        <pt x="141" y="426" on="1"/>
        <pt x="118" y="341" on="1"/>
        <pt x="79" y="341" on="1"/>
        <pt x="62" y="464" on="1"/>
        <pt x="162" y="501" on="0"/>
        <pt x="255" y="501" on="1"/>
        <pt x="331" y="501" on="0"/>
        <pt x="411" y="450" on="0"/>
        <pt x="411" y="387" on="1"/>
        <pt x="411" y="66" on="1"/>
        <pt x="497" y="45" on="1"/>
        <pt x="497" y="12" on="1"/>
        <pt x="441" y="-4" on="0"/>
        <pt x="390" y="-4" on="1"/>
        <pt x="362" y="-4" on="0"/>
        <pt x="320" y="24" on="0"/>
        <pt x="314" y="50" on="1"/>
        <pt x="273" y="20" on="0"/>
        <pt x="193" y="-11" on="0"/>
        <pt x="149" y="-11" on="1"/>
        <pt x="97" y="-11" on="0"/>
        <pt x="38" y="61" on="0"/>
        <pt x="38" y="112" on="1"/>
        <pt x="38" y="160" on="0"/>
        <pt x="93" y="240" on="0"/>
        <pt x="165" y="253" on="1"/>
        <pt x="312" y="280" on="1"/>
        <pt x="312" y="360" on="1"/>
        <pt x="312" y="401" on="0"/>
        <pt x="277" y="440" on="0"/>
        <pt x="232" y="440" on="1"/>
      </contour>
      <contour>
        <pt x="139" y="200" on="0"/>
        <pt x="139" y="127" on="1"/>
        <pt x="139" y="57" on="0"/>
        <pt x="206" y="57" on="1"/>
        <pt x="249" y="57" on="0"/>
        <pt x="312" y="91" on="1"/>
        <pt x="312" y="232" on="1"/>
        <pt x="221" y="216" on="1"/>
      </contour>
    </TTGlyph>
    <TTGlyph name="ampersand" xMin="43" yMin="-11" xMax="606" yMax="625">
      <contour>
        <pt x="365" y="24" on="0"/>
        <pt x="281" y="-11" on="0"/>
        <pt x="223" y="-11" on="1"/>
        <pt x="134" y="-11" on="0"/>
        <pt x="43" y="79" on="0"/>
        <pt x="43" y="146" on="1"/>
        <pt x="43" y="216" on="0"/>
        <pt x="114" y="305" on="0"/>
        <pt x="173" y="337" on="1"/>
        <pt x="145" y="377" on="0"/>
        <pt x="110" y="459" on="0"/>
        <pt x="110" y="490" on="1"/>
        <pt x="110" y="564" on="0"/>
        <pt x="208" y="625" on="0"/>
        <pt x="269" y="625" on="1"/>
        <pt x="333" y="625" on="0"/>
        <pt x="412" y="565" on="0"/>
        <pt x="412" y="509" on="1"/>
        <pt x="412" y="469" on="0"/>
        <pt x="377" y="408" on="0"/>
        <pt x="323" y="364" on="0"/>
        <pt x="280" y="338" on="1"/>
        <pt x="333" y="272" on="0"/>
        <pt x="420" y="170" on="1"/>
        <pt x="441" y="223" on="0"/>
        <pt x="445" y="286" on="1"/>
        <pt x="396" y="301" on="1"/>
        <pt x="396" y="335" on="1"/>
        <pt x="574" y="335" on="1"/>
        <pt x="574" y="303" on="1"/>
        <pt x="499" y="286" on="1"/>
        <pt x="490" y="205" on="0"/>
        <pt x="456" y="133" on="1"/>
        <pt x="533" y="52" on="1"/>
        <pt x="606" y="35" on="1"/>
        <pt x="606" y="0" on="1"/>
        <pt x="461" y="0" on="1"/>
        <pt x="402" y="61" on="1"/>
      </contour>
      <contour>
        <pt x="197" y="473" on="0"/>
        <pt x="224" y="414" on="0"/>
        <pt x="249" y="379" on="1"/>
        <pt x="290" y="403" on="0"/>
        <pt x="337" y="458" on="0"/>
        <pt x="337" y="495" on="1"/>
        <pt x="337" y="574" on="0"/>
        <pt x="266" y="574" on="1"/>
        <pt x="233" y="574" on="0"/>
        <pt x="197" y="536" on="0"/>
        <pt x="197" y="501" on="1"/>
      </contour>
      <contour>
        <pt x="326" y="48" on="0"/>
        <pt x="372" y="96" on="1"/>
        <pt x="349" y="122" on="0"/>
        <pt x="331" y="142" on="1"/>
        <pt x="300" y="177" on="0"/>
        <pt x="230" y="258" on="0"/>
        <pt x="204" y="293" on="1"/>
        <pt x="167" y="266" on="0"/>
        <pt x="138" y="214" on="0"/>
        <pt x="138" y="172" on="1"/>
        <pt x="138" y="108" on="0"/>
        <pt x="195" y="48" on="0"/>
        <pt x="251" y="48" on="1"/>
      </contour>
    </TTGlyph>
    <TTGlyph name="ampersand.001" xMin="43" yMin="-11" xMax="606" yMax="635">
      <contour>
        <pt x="366" y="25" on="0"/>
        <pt x="281" y="-11" on="0"/>
        <pt x="223" y="-11" on="1"/>
        <pt x="134" y="-11" on="0"/>
        <pt x="43" y="80" on="0"/>
        <pt x="43" y="148" on="1"/>
        <pt x="43" y="219" on="0"/>
        <pt x="114" y="310" on="0"/>
        <pt x="173" y="342" on="1"/>
        <pt x="145" y="383" on="0"/>
        <pt x="110" y="466" on="0"/>
        <pt x="110" y="498" on="1"/>
        <pt x="110" y="573" on="0"/>
        <pt x="208" y="635" on="0"/>
        <pt x="269" y="635" on="1"/>
        <pt x="333" y="635" on="0"/>
        <pt x="412" y="574" on="0"/>
        <pt x="412" y="517" on="1"/>
        <pt x="412" y="458" on="0"/>
        <pt x="344" y="382" on="0"/>
        <pt x="280" y="343" on="1"/>
        <pt x="332" y="275" on="0"/>
        <pt x="420" y="171" on="1"/>
        <pt x="441" y="226" on="0"/>
        <pt x="445" y="291" on="1"/>
        <pt x="396" y="306" on="1"/>
        <pt x="396" y="340" on="1"/>
        <pt x="574" y="340" on="1"/>
        <pt x="574" y="308" on="1"/>
        <pt x="499" y="291" on="1"/>
        <pt x="490" y="208" on="0"/>
        <pt x="456" y="134" on="1"/>
        <pt x="533" y="52" on="1"/>
        <pt x="606" y="35" on="1"/>
        <pt x="606" y="0" on="1"/>
        <pt x="461" y="0" on="1"/>
        <pt x="402" y="63" on="1"/>
      </contour>
      <contour>
        <pt x="197" y="481" on="0"/>
        <pt x="224" y="420" on="0"/>
        <pt x="249" y="384" on="1"/>
        <pt x="290" y="408" on="0"/>
        <pt x="337" y="465" on="0"/>
        <pt x="337" y="503" on="1"/>
        <pt x="337" y="584" on="0"/>
        <pt x="266" y="584" on="1"/>
        <pt x="233" y="584" on="0"/>
        <pt x="197" y="545" on="0"/>
        <pt x="197" y="509" on="1"/>
      </contour>
      <contour>
        <pt x="325" y="48" on="0"/>
        <pt x="372" y="98" on="1"/>
        <pt x="331" y="145" on="1"/>
        <pt x="244" y="242" on="0"/>
        <pt x="204" y="299" on="1"/>
        <pt x="167" y="271" on="0"/>
        <pt x="138" y="218" on="0"/>
        <pt x="138" y="174" on="1"/>
        <pt x="138" y="109" on="0"/>
        <pt x="195" y="48" on="0"/>
        <pt x="251" y="48" on="1"/>
      </contour>
    </TTGlyph>
    <TTGlyph name="aogonek" xMin="38" yMin="-235" xMax="501" yMax="501">
      <contour>
        <pt x="501" y="-181" on="1"/>
        <pt x="491" y="-198" on="0"/>
        <pt x="442" y="-235" on="0"/>
        <pt x="402" y="-235" on="1"/>
        <pt x="353" y="-235" on="0"/>
        <pt x="304" y="-186" on="0"/>
        <pt x="304" y="-150" on="1"/>
        <pt x="304" y="-113" on="0"/>
        <pt x="355" y="-35" on="0"/>
        <pt x="398" y="-4" on="1"/>
        <pt x="391" y="-4" on="1"/>
        <pt x="362" y="-4" on="0"/>
        <pt x="320" y="23" on="0"/>
        <pt x="314" y="50" on="1"/>
        <pt x="273" y="20" on="0"/>
        <pt x="193" y="-11" on="0"/>
        <pt x="149" y="-11" on="1"/>
        <pt x="97" y="-11" on="0"/>
        <pt x="38" y="61" on="0"/>
        <pt x="38" y="112" on="1"/>
        <pt x="38" y="160" on="0"/>
        <pt x="93" y="240" on="0"/>
        <pt x="165" y="253" on="1"/>
        <pt x="312" y="280" on="1"/>
        <pt x="312" y="360" on="1"/>
        <pt x="312" y="401" on="0"/>
        <pt x="277" y="440" on="0"/>
        <pt x="232" y="440" on="1"/>
        <pt x="185" y="440" on="0"/>
        <pt x="141" y="426" on="1"/>
        <pt x="118" y="341" on="1"/>
        <pt x="79" y="341" on="1"/>
        <pt x="62" y="464" on="1"/>
        <pt x="162" y="501" on="0"/>
        <pt x="255" y="501" on="1"/>
        <pt x="331" y="501" on="0"/>
        <pt x="411" y="450" on="0"/>
        <pt x="411" y="387" on="1"/>
        <pt x="411" y="66" on="1"/>
        <pt x="497" y="45" on="1"/>
        <pt x="497" y="12" on="1"/>
        <pt x="437" y="-5" on="0"/>
        <pt x="378" y="-83" on="0"/>
        <pt x="378" y="-131" on="1"/>
        <pt x="378" y="-158" on="0"/>
        <pt x="405" y="-186" on="0"/>
        <pt x="429" y="-186" on="1"/>
        <pt x="457" y="-186" on="0"/>
        <pt x="482" y="-164" on="1"/>
      </contour>
      <contour>
        <pt x="312" y="232" on="1"/>
        <pt x="221" y="216" on="1"/>
        <pt x="139" y="200" on="0"/>
        <pt x="139" y="127" on="1"/>
        <pt x="139" y="57" on="0"/>
        <pt x="206" y="57" on="1"/>
        <pt x="249" y="57" on="0"/>
        <pt x="312" y="91" on="1"/>
      </contour>
    </TTGlyph>
    <TTGlyph name="approxequal" xMin="46" yMin="169" xMax="462" yMax="442">
      <contour>
        <pt x="46" y="342" on="1"/>
        <pt x="94" y="440" on="0"/>
        <pt x="163" y="440" on="1"/>
        <pt x="184" y="440" on="0"/>
        <pt x="222" y="427" on="0"/>
        <pt x="255" y="413" on="1"/>
        <pt x="287" y="399" on="0"/>
        <pt x="323" y="387" on="0"/>
        <pt x="342" y="387" on="1"/>
        <pt x="369" y="387" on="0"/>
        <pt x="404" y="411" on="0"/>
        <pt x="424" y="442" on="1"/>
        <pt x="462" y="420" on="1"/>
        <pt x="406" y="319" on="0"/>
        <pt x="338" y="319" on="1"/>
        <pt x="319" y="319" on="0"/>
        <pt x="281" y="333" on="0"/>
        <pt x="249" y="347" on="1"/>
        <pt x="220" y="361" on="0"/>
        <pt x="178" y="375" on="0"/>
        <pt x="159" y="375" on="1"/>
        <pt x="137" y="375" on="0"/>
        <pt x="101" y="349" on="0"/>
        <pt x="82" y="320" on="1"/>
      </contour>
      <contour>
        <pt x="46" y="193" on="1"/>
        <pt x="94" y="291" on="0"/>
        <pt x="163" y="291" on="1"/>
        <pt x="184" y="291" on="0"/>
        <pt x="225" y="277" on="0"/>
        <pt x="255" y="263" on="1"/>
        <pt x="284" y="249" on="0"/>
        <pt x="323" y="236" on="0"/>
        <pt x="342" y="236" on="1"/>
        <pt x="369" y="236" on="0"/>
        <pt x="404" y="260" on="0"/>
        <pt x="424" y="291" on="1"/>
        <pt x="462" y="270" on="1"/>
        <pt x="407" y="170" on="0"/>
        <pt x="338" y="170" on="1"/>
        <pt x="319" y="170" on="0"/>
        <pt x="279" y="184" on="0"/>
        <pt x="249" y="197" on="1"/>
        <pt x="217" y="211" on="0"/>
        <pt x="178" y="224" on="0"/>
        <pt x="159" y="224" on="1"/>
        <pt x="137" y="224" on="0"/>
        <pt x="100" y="199" on="0"/>
        <pt x="82" y="169" on="1"/>
      </contour>
    </TTGlyph>
    <TTGlyph name="aring" xMin="38" yMin="-11" xMax="497" yMax="739">
      <contour>
        <pt x="341" y="591" on="0"/>
        <pt x="286" y="535" on="0"/>
        <pt x="235" y="535" on="1"/>
        <pt x="183" y="535" on="0"/>
        <pt x="128" y="591" on="0"/>
        <pt x="128" y="636" on="1"/>
        <pt x="128" y="682" on="0"/>
        <pt x="183" y="739" on="0"/>
        <pt x="235" y="739" on="1"/>
        <pt x="286" y="739" on="0"/>
        <pt x="341" y="682" on="0"/>
        <pt x="341" y="636" on="1"/>
      </contour>
      <contour>
        <pt x="207" y="699" on="0"/>
        <pt x="188" y="666" on="0"/>
        <pt x="188" y="636" on="1"/>
        <pt x="188" y="607" on="0"/>
        <pt x="207" y="575" on="0"/>
        <pt x="235" y="575" on="1"/>
        <pt x="262" y="575" on="0"/>
        <pt x="281" y="607" on="0"/>
        <pt x="281" y="636" on="1"/>
        <pt x="281" y="666" on="0"/>
        <pt x="262" y="699" on="0"/>
        <pt x="235" y="699" on="1"/>
      </contour>
      <contour>
        <pt x="185" y="440" on="0"/>
        <pt x="141" y="426" on="1"/>
        <pt x="118" y="341" on="1"/>
        <pt x="79" y="341" on="1"/>
        <pt x="62" y="464" on="1"/>
        <pt x="162" y="501" on="0"/>
        <pt x="255" y="501" on="1"/>
        <pt x="331" y="501" on="0"/>
        <pt x="411" y="450" on="0"/>
        <pt x="411" y="387" on="1"/>
        <pt x="411" y="66" on="1"/>
        <pt x="497" y="45" on="1"/>
        <pt x="497" y="12" on="1"/>
        <pt x="441" y="-4" on="0"/>
        <pt x="390" y="-4" on="1"/>
        <pt x="362" y="-4" on="0"/>
        <pt x="320" y="24" on="0"/>
        <pt x="314" y="50" on="1"/>
        <pt x="273" y="20" on="0"/>
        <pt x="193" y="-11" on="0"/>
        <pt x="149" y="-11" on="1"/>
        <pt x="97" y="-11" on="0"/>
        <pt x="38" y="61" on="0"/>
        <pt x="38" y="112" on="1"/>
        <pt x="38" y="160" on="0"/>
        <pt x="93" y="240" on="0"/>
        <pt x="165" y="253" on="1"/>
        <pt x="312" y="280" on="1"/>
        <pt x="312" y="360" on="1"/>
        <pt x="312" y="401" on="0"/>
        <pt x="277" y="440" on="0"/>
        <pt x="232" y="440" on="1"/>
      </contour>
      <contour>
        <pt x="139" y="200" on="0"/>
        <pt x="139" y="127" on="1"/>
        <pt x="139" y="57" on="0"/>
        <pt x="206" y="57" on="1"/>
        <pt x="249" y="57" on="0"/>
        <pt x="312" y="91" on="1"/>
        <pt x="312" y="232" on="1"/>
        <pt x="221" y="216" on="1"/>
      </contour>
    </TTGlyph>
    <TTGlyph name="aringacute" xMin="38" yMin="-11" xMax="497" yMax="859">
      <component glyphName=".ttfautohint" x="38" y="0" flags="0x0"/>
      <component glyphName="a" x="0" y="0" flags="0x0"/>
      <component glyphName="uni030A" x="379" y="-121" flags="0x4"/>
      <component glyphName="acutecomb" x="438" y="60" flags="0x4"/>
    </TTGlyph>
    <TTGlyph name="arrowdown" xMin="65" yMin="29" xMax="491" yMax="495">
      <contour>
        <pt x="96" y="353" on="1"/>
        <pt x="249" y="184" on="1"/>
        <pt x="236" y="495" on="1"/>
        <pt x="333" y="495" on="1"/>
        <pt x="319" y="185" on="1"/>
        <pt x="460" y="353" on="1"/>
        <pt x="491" y="321" on="1"/>
        <pt x="292" y="29" on="1"/>
        <pt x="278" y="29" on="1"/>
        <pt x="65" y="321" on="1"/>
      </contour>
    </TTGlyph>
    <TTGlyph name="arrowleft" xMin="45" yMin="47" xMax="511" yMax="473">
      <contour>
        <pt x="511" y="316" on="1"/>
        <pt x="511" y="219" on="1"/>
        <pt x="200" y="231" on="1"/>
        <pt x="368" y="79" on="1"/>
        <pt x="337" y="47" on="1"/>
        <pt x="45" y="260" on="1"/>
        <pt x="45" y="274" on="1"/>
        <pt x="337" y="473" on="1"/>
        <pt x="368" y="443" on="1"/>
        <pt x="201" y="302" on="1"/>
      </contour>
    </TTGlyph>
    <TTGlyph name="arrowright" xMin="45" yMin="47" xMax="512" yMax="473">
      <contour>
        <pt x="188" y="79" on="1"/>
        <pt x="355" y="231" on="1"/>
        <pt x="45" y="219" on="1"/>
        <pt x="45" y="316" on="1"/>
        <pt x="355" y="302" on="1"/>
        <pt x="188" y="443" on="1"/>
        <pt x="219" y="473" on="1"/>
        <pt x="512" y="274" on="1"/>
        <pt x="512" y="260" on="1"/>
        <pt x="219" y="47" on="1"/>
      </contour>
    </TTGlyph>
    <TTGlyph name="arrowup" xMin="65" yMin="26" xMax="491" yMax="492">
      <contour>
        <pt x="459" y="169" on="1"/>
        <pt x="307" y="337" on="1"/>
        <pt x="320" y="26" on="1"/>
        <pt x="223" y="26" on="1"/>
        <pt x="237" y="336" on="1"/>
        <pt x="95" y="168" on="1"/>
        <pt x="65" y="200" on="1"/>
        <pt x="263" y="492" on="1"/>
        <pt x="279" y="492" on="1"/>
        <pt x="491" y="200" on="1"/>
      </contour>
    </TTGlyph>
    <TTGlyph name="asciicircum" xMin="40" yMin="251" xMax="451" yMax="611">
      <contour>
        <pt x="219" y="611" on="1"/>
        <pt x="274" y="611" on="1"/>
        <pt x="451" y="251" on="1"/>
        <pt x="376" y="251" on="1"/>
        <pt x="247" y="519" on="1"/>
        <pt x="116" y="251" on="1"/>
        <pt x="40" y="251" on="1"/>
      </contour>
    </TTGlyph>
    <TTGlyph name="asciitilde" xMin="52" yMin="219" xMax="459" yMax="338">
      <contour>
        <pt x="141" y="273" on="0"/>
        <pt x="107" y="249" on="0"/>
        <pt x="87" y="220" on="1"/>
        <pt x="52" y="242" on="1"/>
        <pt x="100" y="337" on="0"/>
        <pt x="166" y="337" on="1"/>
        <pt x="187" y="337" on="0"/>
        <pt x="228" y="324" on="0"/>
        <pt x="256" y="311" on="1"/>
        <pt x="286" y="298" on="0"/>
        <pt x="323" y="285" on="0"/>
        <pt x="342" y="285" on="1"/>
        <pt x="369" y="285" on="0"/>
        <pt x="402" y="308" on="0"/>
        <pt x="421" y="338" on="1"/>
        <pt x="459" y="316" on="1"/>
        <pt x="405" y="219" on="0"/>
        <pt x="338" y="219" on="1"/>
        <pt x="319" y="219" on="0"/>
        <pt x="278" y="233" on="0"/>
        <pt x="251" y="246" on="1"/>
        <pt x="218" y="260" on="0"/>
        <pt x="181" y="273" on="0"/>
        <pt x="162" y="273" on="1"/>
      </contour>
    </TTGlyph>
    <TTGlyph name="asterisk" xMin="6" yMin="426" xMax="336" yMax="743">
      <contour>
        <pt x="41" y="477" on="1"/>
        <pt x="126" y="564" on="1"/>
        <pt x="124" y="571" on="1"/>
        <pt x="6" y="589" on="1"/>
        <pt x="30" y="673" on="1"/>
        <pt x="141" y="618" on="1"/>
        <pt x="147" y="621" on="1"/>
        <pt x="128" y="743" on="1"/>
        <pt x="213" y="743" on="1"/>
        <pt x="195" y="621" on="1"/>
        <pt x="202" y="617" on="1"/>
        <pt x="311" y="673" on="1"/>
        <pt x="336" y="589" on="1"/>
        <pt x="217" y="571" on="1"/>
        <pt x="214" y="564" on="1"/>
        <pt x="299" y="477" on="1"/>
        <pt x="231" y="426" on="1"/>
        <pt x="174" y="533" on="1"/>
        <pt x="168" y="533" on="1"/>
        <pt x="112" y="426" on="1"/>
      </contour>
    </TTGlyph>
    <TTGlyph name="at" xMin="37" yMin="-81" xMax="696" yMax="557">
      <contour>
        <pt x="124" y="100" on="0"/>
        <pt x="249" y="-29" on="0"/>
        <pt x="360" y="-29" on="1"/>
        <pt x="412" y="-29" on="0"/>
        <pt x="516" y="-7" on="0"/>
        <pt x="583" y="16" on="1"/>
        <pt x="595" y="-22" on="1"/>
        <pt x="471" y="-81" on="0"/>
        <pt x="343" y="-81" on="1"/>
        <pt x="239" y="-81" on="0"/>
        <pt x="101" y="7" on="0"/>
        <pt x="37" y="154" on="0"/>
        <pt x="37" y="244" on="1"/>
        <pt x="37" y="327" on="0"/>
        <pt x="105" y="469" on="0"/>
        <pt x="254" y="557" on="0"/>
        <pt x="367" y="557" on="1"/>
        <pt x="548" y="557" on="0"/>
        <pt x="696" y="393" on="0"/>
        <pt x="696" y="271" on="1"/>
        <pt x="696" y="207" on="0"/>
        <pt x="646" y="109" on="0"/>
        <pt x="556" y="55" on="0"/>
        <pt x="499" y="55" on="1"/>
        <pt x="474" y="55" on="0"/>
        <pt x="430" y="78" on="0"/>
        <pt x="424" y="97" on="1"/>
        <pt x="369" y="53" on="0"/>
        <pt x="318" y="53" on="1"/>
        <pt x="274" y="53" on="0"/>
        <pt x="227" y="108" on="0"/>
        <pt x="227" y="146" on="1"/>
        <pt x="227" y="220" on="0"/>
        <pt x="314" y="242" on="1"/>
        <pt x="421" y="267" on="1"/>
        <pt x="421" y="318" on="1"/>
        <pt x="421" y="346" on="0"/>
        <pt x="396" y="371" on="0"/>
        <pt x="366" y="371" on="1"/>
        <pt x="320" y="371" on="0"/>
        <pt x="253" y="348" on="1"/>
        <pt x="240" y="382" on="1"/>
        <pt x="313" y="420" on="0"/>
        <pt x="383" y="420" on="1"/>
        <pt x="440" y="420" on="0"/>
        <pt x="499" y="382" on="0"/>
        <pt x="499" y="337" on="1"/>
        <pt x="499" y="130" on="1"/>
        <pt x="499" y="120" on="0"/>
        <pt x="513" y="104" on="0"/>
        <pt x="523" y="104" on="1"/>
        <pt x="612" y="104" on="0"/>
        <pt x="612" y="285" on="1"/>
        <pt x="612" y="347" on="0"/>
        <pt x="561" y="447" on="0"/>
        <pt x="456" y="507" on="0"/>
        <pt x="378" y="507" on="1"/>
        <pt x="246" y="507" on="0"/>
        <pt x="124" y="360" on="0"/>
        <pt x="124" y="239" on="1"/>
      </contour>
      <contour>
        <pt x="327" y="203" on="0"/>
        <pt x="306" y="177" on="0"/>
        <pt x="306" y="155" on="1"/>
        <pt x="306" y="129" on="0"/>
        <pt x="329" y="108" on="0"/>
        <pt x="354" y="108" on="1"/>
        <pt x="383" y="108" on="0"/>
        <pt x="421" y="129" on="1"/>
        <pt x="421" y="225" on="1"/>
        <pt x="356" y="210" on="1"/>
      </contour>
    </TTGlyph>
    <TTGlyph name="atilde" xMin="38" yMin="-11" xMax="497" yMax="698">
      <contour>
        <pt x="374" y="632" on="0"/>
        <pt x="338" y="582" on="0"/>
        <pt x="316" y="582" on="1"/>
        <pt x="294" y="582" on="0"/>
        <pt x="236" y="602" on="1"/>
        <pt x="181" y="621" on="0"/>
        <pt x="163" y="621" on="1"/>
        <pt x="153" y="621" on="0"/>
        <pt x="134" y="606" on="0"/>
        <pt x="122" y="590" on="0"/>
        <pt x="120" y="587" on="1"/>
        <pt x="85" y="601" on="1"/>
        <pt x="103" y="647" on="0"/>
        <pt x="140" y="698" on="0"/>
        <pt x="163" y="698" on="1"/>
        <pt x="183" y="698" on="0"/>
        <pt x="241" y="678" on="1"/>
        <pt x="294" y="659" on="0"/>
        <pt x="315" y="659" on="1"/>
        <pt x="326" y="659" on="0"/>
        <pt x="345" y="674" on="0"/>
        <pt x="357" y="690" on="0"/>
        <pt x="358" y="693" on="1"/>
        <pt x="393" y="679" on="1"/>
      </contour>
      <contour>
        <pt x="185" y="440" on="0"/>
        <pt x="141" y="426" on="1"/>
        <pt x="118" y="341" on="1"/>
        <pt x="79" y="341" on="1"/>
        <pt x="62" y="464" on="1"/>
        <pt x="162" y="501" on="0"/>
        <pt x="255" y="501" on="1"/>
        <pt x="331" y="501" on="0"/>
        <pt x="411" y="450" on="0"/>
        <pt x="411" y="387" on="1"/>
        <pt x="411" y="66" on="1"/>
        <pt x="497" y="45" on="1"/>
        <pt x="497" y="12" on="1"/>
        <pt x="441" y="-4" on="0"/>
        <pt x="390" y="-4" on="1"/>
        <pt x="362" y="-4" on="0"/>
        <pt x="320" y="24" on="0"/>
        <pt x="314" y="50" on="1"/>
        <pt x="273" y="20" on="0"/>
        <pt x="193" y="-11" on="0"/>
        <pt x="149" y="-11" on="1"/>
        <pt x="97" y="-11" on="0"/>
        <pt x="38" y="61" on="0"/>
        <pt x="38" y="112" on="1"/>
        <pt x="38" y="160" on="0"/>
        <pt x="93" y="240" on="0"/>
        <pt x="165" y="253" on="1"/>
        <pt x="312" y="280" on="1"/>
        <pt x="312" y="360" on="1"/>
        <pt x="312" y="401" on="0"/>
        <pt x="277" y="440" on="0"/>
        <pt x="232" y="440" on="1"/>
      </contour>
      <contour>
        <pt x="139" y="200" on="0"/>
        <pt x="139" y="127" on="1"/>
        <pt x="139" y="57" on="0"/>
        <pt x="206" y="57" on="1"/>
        <pt x="249" y="57" on="0"/>
        <pt x="312" y="91" on="1"/>
        <pt x="312" y="232" on="1"/>
        <pt x="221" y="216" on="1"/>
      </contour>
    </TTGlyph>
</ttFont>
